/* XPM */
static char *_b538d6577554d1aae792c7028a04495aWri8ZbO9gmceDlU[] = {
/* columns rows colors chars-per-pixel */
"101 75 255 2 ",
"   c #020302",
".  c #020B03",
"X  c #090705",
"o  c #170704",
"O  c #021201",
"+  c #071808",
"@  c #151409",
"#  c #050A16",
"$  c #181817",
"%  c #0E1214",
"&  c #270704",
"*  c #370706",
"=  c #26150A",
"-  c #371808",
";  c #261A17",
":  c #351B17",
">  c #270E14",
",  c #0A240A",
"<  c #172C11",
"1  c #38251A",
"2  c #2B2815",
"3  c #0A1726",
"4  c #0F1B30",
"5  c #2C1B28",
"6  c #182A30",
"7  c #282526",
"8  c #362627",
"9  c #293736",
"0  c #383737",
"q  c #2E2C33",
"w  c #4C1611",
"e  c #4C2A19",
"r  c #472726",
"t  c #4A352A",
"y  c #583829",
"u  c #483836",
"i  c #583936",
"p  c #54292D",
"a  c #663937",
"s  c #6F342F",
"d  c #64221E",
"f  c #2F4B35",
"g  c #204414",
"h  c #5A4537",
"j  c #514335",
"k  c #664738",
"l  c #704E34",
"z  c #6E592A",
"x  c #0B2D57",
"c  c #2E364B",
"v  c #0C3466",
"b  c #133C6A",
"n  c #143D75",
"m  c #0B346E",
"M  c #4D3947",
"N  c #6E3F49",
"B  c #344A51",
"V  c #1A4476",
"C  c #19426D",
"Z  c #2F5070",
"A  c #3B6260",
"S  c #594847",
"D  c #585558",
"F  c #4D4B50",
"G  c #684847",
"H  c #774849",
"J  c #685547",
"K  c #775748",
"L  c #6B5759",
"P  c #795857",
"I  c #6E4955",
"U  c #736455",
"Y  c #5B5767",
"T  c #4F586D",
"R  c #675968",
"E  c #775867",
"W  c #53656D",
"Q  c #78676A",
"!  c #7A7579",
"~  c #6E6A72",
"^  c #52615C",
"/  c #8E3B36",
"(  c #A43B38",
")  c #8E473A",
"_  c #A94438",
"`  c #87595A",
"'  c #985B57",
"]  c #8B4E49",
"[  c #A95857",
"{  c #AF574F",
"}  c #876548",
"|  c #876658",
" . c #966E55",
".. c #B7665B",
"X. c #AC7057",
"o. c #895865",
"O. c #8F5D68",
"+. c #876666",
"@. c #966668",
"#. c #976A75",
"$. c #887677",
"%. c #927271",
"&. c #A76866",
"*. c #B76965",
"=. c #A97879",
"-. c #B0756E",
";. c #A05E60",
":. c #C6675C",
">. c #C6706C",
",. c #C35E59",
"<. c #A73E42",
"1. c #938378",
"2. c #B4836E",
"3. c #C6846C",
"4. c #1C4781",
"5. c #254D85",
"6. c #29538A",
"7. c #345A8B",
"8. c #2C5897",
"9. c #365B97",
"0. c #3A6499",
"q. c #336D92",
"w. c #385DA5",
"e. c #2B5CA1",
"r. c #3A64A8",
"t. c #297BB4",
"y. c #326FAD",
"u. c #1D78AB",
"i. c #58779B",
"p. c #4D6B90",
"a. c #6F758E",
"s. c #4769AA",
"d. c #4B75A9",
"f. c #5479A9",
"g. c #456CB4",
"h. c #486CB5",
"j. c #4C73B4",
"k. c #4D74BB",
"l. c #4875B8",
"z. c #547BBC",
"x. c #5B7CBC",
"c. c #5477B7",
"v. c #526DAA",
"b. c #647DB2",
"n. c #547CC2",
"m. c #597EC3",
"M. c #4D7BC2",
"N. c #617DC1",
"B. c #8F7688",
"V. c #A87A87",
"C. c #897DA6",
"Z. c #C07480",
"A. c #2481B2",
"S. c #6F8398",
"D. c #5983BB",
"F. c #5183AC",
"G. c #6686B9",
"H. c #748EB1",
"J. c #5C82C3",
"K. c #5B85C6",
"L. c #6484C4",
"P. c #658BCB",
"I. c #6C8BCB",
"U. c #6687C7",
"Y. c #738DCC",
"T. c #6A93CC",
"R. c #7696CC",
"E. c #6A8ED1",
"W. c #6D93D3",
"Q. c #7493D2",
"!. c #739BD4",
"~. c #7C9BD5",
"^. c #789AD8",
"/. c #738FD0",
"(. c #7DA2DA",
"). c #79A0D5",
"_. c #7CA4E2",
"`. c #93888E",
"'. c #A99899",
"]. c #AC8B8E",
"[. c #8D90AF",
"{. c #B5A8AC",
"}. c #AA9FA7",
"|. c #CAB4B3",
" X c #CF9A97",
".X c #8698C8",
"XX c #819ED9",
"oX c #829DD4",
"OX c #979AC4",
"+X c #84A3DB",
"@X c #89A5DD",
"#X c #8AA9DF",
"$X c #83A7DB",
"%X c #90AFDE",
"&X c #84AAE4",
"*X c #8CACE2",
"=X c #88ACE8",
"-X c #92AEE4",
";X c #8CB4EC",
":X c #8DB2E7",
">X c #94B3E5",
",X c #99B6E7",
"<X c #94B5EB",
"1X c #94BAED",
"2X c #9CBBEB",
"3X c #99B7E8",
"4X c #95BBF1",
"5X c #9BBEF1",
"6X c #92B6F1",
"7X c #8EB6F0",
"8X c #A2BEED",
"9X c #A6BFED",
"0X c #B1B3CC",
"qX c #9EC1EE",
"wX c #9DC1F3",
"eX c #9FC7FA",
"rX c #A3C1EF",
"tX c #ACC4EE",
"yX c #B2C6ED",
"uX c #B7CBEF",
"iX c #A4C3F2",
"pX c #ABC5F3",
"aX c #ADCAF5",
"sX c #ACCCFA",
"dX c #A5C7F7",
"fX c #B3CBF4",
"gX c #B9CEF3",
"hX c #B3CDFA",
"jX c #B3CAF3",
"kX c #AFD1FC",
"lX c #BCD2F5",
"zX c #B4D3FC",
"xX c #BBD4FD",
"cX c #B6D9FE",
"vX c #BCDBFE",
"bX c #BFE0FF",
"nX c #B7C0CF",
"mX c #C1D7FB",
"MX c #C2DAFE",
"NX c #C6DDFE",
"BX c #C3DCFD",
"VX c #C9DEFE",
"CX c #C0D6F7",
"ZX c #C9D7E2",
"AX c #C5E1FE",
"SX c #CEE2FF",
"DX c #CAE5FE",
"FX c #CEE6FE",
"GX c #CCE4FE",
"HX c #CDE9FF",
"JX c #CBE9FE",
"KX c #D0E6FE",
"LX c #D1E6FE",
"PX c #D2E9FF",
"IX c #DEC7D5",
/* pixels */
"%X%X,X2X2X8X8XtXrXtXpXjXhXhXhXhXmXhXmXmXmXhXmXMXNXMXVXVXNXAXSXFXFXFXFXDXFXFXHXHXJXHXHXJXJXHXHXHXJXJXJXJXHXPXHXHXPXPXHXPXPXPXPXHXKXKXKXZXKXKXLXGXLXLXVXGXVXVXVXVXMXNXmXmXmXmXmXCXgXlXgXgXgXuXuXuXyXyXyXyXyX",
">X>X,X8X,XtXtXrXtXtXpXaXpXhXhXhXhXhXhXmXmXmXmXmXMXNXBXBXNXGXGXAXDXDXDXFXDXHXHXFXJXHXHXPXJXPXHXHXJXJXJXJXHXHXHXPXPXHXPXPXHXHXPXPXKXKXKXKXLXKXLXGXGXSXLXVXVXVXVXBXVXMXNXmXNXmXmXCXCXlXlXlXuXgXuXuXuXyXyXyXyX",
"%X>X,X8X9XrXrXtXtXpXjXjX9XmXhXhXmXhXmXhXmXmXmXmXMXBXBXBXNXAXGXSXDXDXFXDXHXDXFXFXHXHXHXHXPXHXHXJXJXJXJXJXHXHXPXHXPXPXHXHXHXHXPXHXKXKXKXKXLXGXGXLXSXLXSXVXVXVXVXVXNXNXMXNXNXmXmXmXgXCXCXgXlXuXuXuXuXuXyXyX9X",
">X,X,X8X8XrXrXtXtXyXpXjXmX9XhXhXhXhXhXmXhXmXmXmXMXBXBXNXNXVXNXAXAXFXDXDXDXDXFXHXHXJXPXHXPXJXHXHXJXJXJXJXHXHXHXPXHXHXPXHXKXHXPXPXKXKXGXGXKXKXLXGXSXSXLXVXVXVXVXVXNXNXNXmXNXMXmXmXCXCXCXCXCXuXZXgXuXuXyXyXyX",
">X,X,XrX8XtXrXtXhX9X9X9X9XhXmX9XxXhXmXhXxXxXxXMXMXBXBXVXBXNXAXSXDXDXDXDXFXJXFXHXJXKXJXHXKXGXKXJXJXJXHXHXHXHXPXHXKXHXKXHXKXKXKXKXKXKXGXKXSXLXLXLXSXSXVXVXVXVXVXVXNXNXNXNXNXNXmXmXmXCXCXCXCXCXuXuXgXuX9XCX9X",
",X2X2XrX2XtXrXtX9X9XmXmXhXhXhXmXxXhXxXxXxXMXxXMXMXMXBXBXNXNXNXAXAXFXAXDXDXFXJXFXGXJXHXHXJXJXJXJXJXJXHXHXHXHXHXHXPXHXFXFXKXKXKXKXKXLXGXKXLXSXSXSXLXSXLXVXVXSXVXVXVXVXNXNXNXNXNXNXCXCXCXCXCXCXCXCXgXgXgXuX9X",
",X,XrXrX8XtXrXtXjX9XmX9X9XhXhXmXxXxXxXxXxXMXMXvXMXMXBXBXNXNXNXAXSXAXFXDXDXHXDXFXJXJXKXJXJXJXJXJXJXJXJXJXJXJXHXHXHXHXFXFXKXKXKXKXGXKXLXVXSXSXSXLXLXSXLXLXLXVXSXVXVXmXVXNXNXVXNXNXCXCXCXCXuXCXCXuXgXgXjXuXuX",
",X,X,XtXtX8XrXtX9XmX9X9XmX9XmX9XhXhXxXxXxXxXxXMXxXMXMXMXNXNXNXAXAXSXAXDXDXDXDXFXJXJXJXJXGXJXJXJXJXJXHXHXHXHXHXHXKXFXFXFXKXKXKXHXLXGXLXLXLXSXLXLXLXSXSXVXVXSXSXVXSXVXNXNXVXNXNXNXCXCXCXCXCXCXuXCXuXuXuX9XyX",
",X2X2X2X9X9XiXiX9X9XhX9XhX9XmXhXhXhXzXxXxXxXMXxXBXvXvXAXAXAXAXAXAXDXDXDXAXDXDXJXJXGXJXGXDXGXGXJXJXJXJXFXJXKXJXJXPXPXPXPXPXPXPXKXLXLXLXLXSXSXLXSXSXLXSXSXSXSXSXSXVXVXVXVXVXBXCXBXCXCXBXCXlXlXlXgXCX9X9XCX9X",
",X2X2X8X9X9XiXpX9XmX9XjXgXhXhXhXxXhXxXzXxXxXxXMXvXBXCXBXAXAXAXAXAXAXAXAXDXDXDXDXJXJXDXGXGXDXJXJXJXFXJXJXFXJXKXDXKXHXKXKXKXKXKXKXLXLXSXLXSXSXSXSXSXSXSXSXVXSXVXVXVXVXVXVXVXBXVXCXCXCXCXCXlXlXjXuX9XZXuX9XyX",
",X3X2XiX9XiX9XpX9XhX9XjXhXjXhXhXxXhXzXcXvXxXvXxXmXBXvXBXCXAXAXAXAXAXAXFXJXDXJXAXDXGXDXDXJXGXJXGXJXKXJXJXFXJXKXKXFXFXKXKXKXLXKXKXLXLXLXLXLXLXSXLXSXSXSXSXSXVXSXSXVXVXVXVXBXBXmXNXmXmXCXlXlXgXgXjXCXyX9XuXuX",
"3X2X8X5X9XiXiXpX9XhXhXhXjXhXhXmXxXzXzXxXxXvXvXMXvXBXAXlXAXAXCXAXAXAXAXDXAXAXJXAXJXJXJXGXGXJXGXJXJXJXFXJXJXFXGXJXHXFXKXKXPXLXLXLXLXLXLXLXLXSXLXSXSXLXSXSXSXSXSXVXSXSXVXVXVXVXVXMXCXmXCXlXmXlXlXgXjXCXuXCX9X",
"2X2XqXqXiXiX9XpXdXpXaXaXjXhXhXhXzXxXzXxXxXvXvXvXvXvXBXBXCXAXAXAXAXAXAXAXDXDXDXDXVXJXDXDXJXFXGXGXJXDXGXJXGXKXJXKXLXLXLXLXLXLXLXLXLXLXLXLXLXLXLXLXLXSXLXSXLXVXLXGXSXSXVXVXVXVXBXMXNXmXCXxXmXxXxXgXmXmX9XjXuX",
"3X2X2X2X9X5XiXiXpXaXaXaXsXhXhXhXzXxXxXxXvXxXMXvXBXBXBXBXAXAXAXAXGXAXAXDXAXDXDXDXJXVXDXDXDXDXJXJXJXDXJXGXJXKXGXKXKXLXLXLXLXLXLXLXLXLXLXLXLXLXLXLXLXLXLXLXLXLXLXLXSXSXSXSXVXVXVXBXNXNXMXMXmXCXmXlX9XmXmX9XyX",
"1X2XwXwXiXiXiXdXpXaXaXhXhXhXzXzXzXxXcXxXxXvXvXBXBXvXvXAXAXAXAXAXNXAXDXAXDXDXDXDXVXJXJXDXFXDXDXGXJXJXJXKXJXJXKXKXLXKXLXLXPXLXLXLXLXLXLXLXLXLXLXLXLXLXLXLXSXSXLXVXVXSXVXVXVXBXVXVXMXMXmXMXxXxXgXhXjXgX9XCXyX",
"2X2X2XqX5X9XiXpXpXdXaXaXaXhXhXzXzXzXzXxXxXvXvXBXvXAXvXAXAXCXAXAXBXAXAXDXDXAXDXDXJXVXZXJXDXDXFXJXJXKXJXJXJXKXKXLXLXPXPXPXPXLXLXLXLXLXLXLXLXLXLXLXLXLXLXLXLXGXSXLXSXNXVXNXMXVXMXBXmXmXlXlXlXlXgXjXjXCX9X9X9X",
"2X5X5XiXrXiXiXiXsXpXjXpXhXhXzXzXzXzXxXxXvXvXvXvXvXAXvXvXAXAXAXAXGXCXAXGXDXAXDXAXJXVXGXJXGXJXFXFXKXKXGXJXKXKXKXKXPXPXKXPXPXLXLXPXKXFXSXFXSXFXSXSXKXLXSXSXVXLXVXVXVXVXVXVXVXVXmXmXmXmXmXxXgXfXgXfXjXjXjX9XjX",
"2X2X2XiXiXiXiXpXpXhXsXhXhXhXhXzXzXxXxXxXxXvXMXvXbXBXAXAXAXAXBXAXAXAXGXAXJXGXDXJXJXGXJXGXGXGXKXGXJXKXKXKXKXKXKXKXLXLXKXKXKXKXLXLXSXSXSXFXSXLXLXSXKXKXKXSXSXLXLXVXVXVXNXNXmXmXVXCXmXmXmXmXxXxXxXfXjXgXjXjXuX",
"2X5X2XwX5XiXiXpXpXpXaXjXhXhXhXzXzXxXxXxXvXxXvXvXAXbXbXAXBXAXAXAXAXGXAXGXGXAXGXGXGXGXGXGXGXLXKXFXKXKXGXJXGXKXKXGXKXKXKXGXLXKXLXZXVXLXSXLXSXKXLXLXLXLXLXLXLXSXLXLXVXVXVXVXVXVXmXVXmXmXmXxXxXgXgXxXgXgXjXjXjX",
"1X4X5XqXiX5XiXiXdXpXdXaXaXhXhXhXzXzXzXxXxXvXvXvXvXbXvXAXAXbXbXAXAXCXGXAXAXGXGXGXGXGXKXGXGXLXKXKXJXZXJXGXKXJXJXKXKXJXGXGXKXLXLXPXLXLXLXLXKXSXSXLXSXSXSXSXSXLXVXVXVXNXVXVXVXVXVXVXmXNXmXCXCXlXxXgXgXgXhXjXyX",
";XqX7XqX5XwXiXiXdXdXdXaXdXsXhXsXzXzXzXcXcXxXvXvXvXvXvXvXbXAXbXAXAXAXAXAXAXGXGXDXGXGXGXKXKXSXKXKXFXKXGXGXGXGXGXGXLXGXLXLXKXGXKXGXSXLXGXLXSXLXSXLXLXVXSXSXSXSXVXVXVXVXVXVXVXVXVXVXmXmXCXCXlXgXgXhXgXhXjXjX9X",
";X;X1X1X2X5X5XwX5XiXiXdXpXsXsXsXkXkXzXzXcXzXcXcXcXxXvXvXvXbXbXbXAXAXAXAXAXAXAXGXGXGXGXGXFXSXSXFXJXKXLXGXKXKXGXLXVXLXSXLXGXGXKXKXLXSXLXVXSXGXSXSXLXVXSXSXSXAXLXVXSXNXVXVXmXVXmXmXmXmXCXCXxXlXgXgXjXjXyXpXjX",
";XqX1XqX1XwX4XwXiXiX5XdXdXsXsXsXsXkXkXzXkXzXzXzXcXcXcXvXvXvXbXbXlXAXCXAXAXAXAXAXAXGXGXAXAXFXDXDXGXGXLXSXGXGXLXLXLXLXLXSXLXVXZXKXLXSXLXSXVXLXSXAXVXSXSXAXNXSXNXNXVXVXBXBXmXmXmXmXmXmXCXCXlXgXgXfXjXjXuXyX9X",
"_.:X7X7X4X1X1X5X5X5XdXdX9XdXdXsXsXsXkXkXkXzXzXzXcXcXcXcXvXvXcXcXAXbXbXAXbXAXAXAXAXDXAXAXDXAXAXDXGXGXVXLXLXGXVXLXSXSXSXSXSXLXLXLXSXSXAXSXVXNXSXAXVXNXNXNXNXAXNXNXBXBXVXmXmXmXmXhXmXmXmXhXzXgXfXfXaXjXpXpXjX",
"qX;X7XwX7X7X7XeXeXwXeXwXdXdXdXsXsXsXsXkXkXkXzXzXzXcXzXcXcXcXcXbXbXbXbXbXbXbXbXbXAXAXbXDXAXAXDXDXFXAXAXDXSXFXAXDXSXSXKXGXGXGXVXGXAXSXAXAXSXAXAXAXAXAXAXAXAXNXAXNXNXNXBXBXMXMXMXxXxXxXxXxXhXhXsXaXjXpXdXtXrX",
"_.;X;X;X7X7X7X7X7XeXwXwX5XdX5XdXdXsXsXsXsXkXkXkXzXzXzXcXcXcXcXcXcXbXcXbXbXbXbXbXbXbXbXbXbXAXbXbXAXDXAXDXAXAXAXDXVXVXAXAXNXAXNXNXAXAXAXAXNXNXNXBXBXBXBXvXBXMXvXMXvXxXxXxXzXzXzXhXhXhXaXpXaXpXpXrX9X8XrX2X2X",
";X;X;X;X;X7X7X7XwX7X7XeX5XeXdXdXdXdXdXsXsXsXsXsXkXkXkXcXcXcXcXcXcXbXcXbXcXbXcXbXcXbXbXbXbXbXbXbXbXvXbXbXAXbXbXbXBXAXbXbXAXbXBXvXMXBXvXBXBXvXvXvXvXvXvXvXvXcXzXxXzXzXgXhXhXhXfXhXpXpXpXpXiXrXqXqX2XqX3X,X>X",
"_._.;X_.;X7X7X7X7X7XwX7X5X5X5XwXeXwXdXeXdXdXsXsXsXkXsXkXkXkXkXkXkXkXkXcXcXcXkXcXcXcXcXcXbXbXcXcXvXvXcXbXcXvXvXvXvXvXvXvXvXvXvXvXvXvXvXxXxXvXxXcXcXxXgXxXzXzXzXhXhXzXhXsXaXaXaXpXpXiXiX5X8X2X2X2X,X,X,X>X>X",
"_._._._.;X;X;X;X;X;XwXwX_.wX4XwXwXwXwXiXdXiXdXdXdXsXsXsXsXsXkXkXkXzXzXzXkXcXcXcXcXcXcXcXcXcXcXcXcXcXcXbXcXcXcXcXvXvXvXvXcXcXvXcXxXvXxXxXcXxXcXxXzXzXgXzXxXhXhXhXsXhXhXaXpXdXpXpXiXiX9X8X2X2X3X2X>X1X>X-X:X",
"_._._._._._.7X_.;X;X_.qX_.wX1X1X4X1X5XwXwXwXiXiXiXdXdXsXsXsXkXkXkXkXkXkXkXkXcXkXzXcXcXzXcXcXcXcXcXcXcXcXcXcXvXcXcXcXcXxXcXcXlXcXxXxXcXzXzXzXhXzXzXzXzXhXhXhXjXjXjXaXaXaXpXpXiXiX5X8X8X5X2X2X<X<X>X>X-X*X#X",
"_._._._._._.;X;X_.;X;X;XwX7XqX1X1X1X5X5X5XiX5XdXiXiXdXdXdXdXdXdXsXsXhXzXkXzXkXcXcXkXkXcXkXcXcXcXcXzXzXzXzXxXcXxXcXzXzXxXcXxXcXcXzXzXzXzXhXhXhXhXhXhXhXhXhX9XpXaXpXaXdX9XpXiX9X9X8X8X2X2X1X<X<X-X:X-X:X*X#X",
"!.!._._._._._._._.;X_.;X_.7X;X;X1X1X4X5X5X5X5XiXwXiXiXiXeXdXaXaXsXsXsXsXsXsXkXkXkXlXkXkXkXkXkXkXzXzXzXzXzXzXzXhXxXzXzXhXxXhXzXhXzXhXxXhXzXhXhXhXhXaXjXaXhXhXpXaXpX9XpXiX9X9X9X5X2X8X3X<X<X,X-X-X#X#X$X#X$X",
"!.W._.!._._._._.&X@X=X=X=X=X;X7X;X1X;X1X4X4X4X5X5XwXqXwXdXqXqXeXdXdXdXsXsXsXkXsXkXkXkXkXkXkXkXkXuXcXkXkXcXkXkXcXkXkXkXuXcXzXuXkXhXhXhXhXhXsXhXpXhXpXpXhX9XpXsX9XsX9X9X5X9X9X2X2X8X,X<X,X6X-X-X*X#X#X+X+X+X",
"W._.W._._.^._.(._.&X&X&X=X=X=X=X<X;X6X;X4X<X<X5X5X2XwXwXqXeXwXqXiXiXdXdXiXdXsXsXsXsXsXaXaXfXkXaXkXaXaXkXkXuXuXaXcXuXcXaXaXkXkXaXhXhXpXhXpXpXpXpX9XsXsX9X9X9X9X9X9X9X9X9X2X3X,X6X,X,X-X-X-X-X*X-X@X+X+X+XoX",
"W.!.W.^.!.!._.^.^.&X&X&X=X=X7X7X7X4X4X4X5X4X4X<X<X5X1XqXqXqXqXwXwXeXqXqXiXdXpXiXaXaXaXaXaXaXaXaXaXaXaXaXcXaXaXcXaXaXaXuXaXyXuXaXaXaXjXpXpXpXpXsXsXdX9X9X9X9X9X9X5X8X,X,X,X,X,X,X-X-X-X-X*X&XXX@X+X+X+XoX~.",
"W.W.W.W.!.^.W.!.^._.+Xc.L.w.8.4.6.5.9.9.9.z.(.<X1X*X1X;XwXqXwXwX2XqXiXiXiXrXiXiXiXiXdXdXdXaXaXiXqXaXaXtXaXqXaXuXaXaXaXaXaXaXaXaXaXpXpXdXpXpX9XpX9X9X9X9X9X9X9X9X5X8X,X,X,X-X,X-X-X@X@X*X@X@XXXXX+XoX~.~.~.",
"W.E.W.E.W.^.W._.E.8.n 5.4.5.8.8.5.8.4.5.8.4.V 8.9.;X$X(.!.qXeXwXqXqX3XqXqXqXiXiXrXrXrXiXaXiXiXrXqXaXtXqXaXqXaXqXaXiXtXrXtXaXrXtXdXpX9XdX9XiX8X8X9X5X8X8X3X8X,X,X,X,X,X,X-X-X-X-X-X@XXX@XXXXXXXXX~.~.R.~.R.",
"E.E.E.E.W.W.!._.I.0.6.4.4.V n 4.4.4.5.6.6.6.6.0.0.7.V C C V 6.F.T.qXdXqXqXqX2XqXqXqXrXrXqXrXrXqXqXqXtXqXqXtXqXtXrXrXiXtXiXrXrXiX9X9X9X9X9X8X8X8X8X8X8X8X,X,X,X,X,X,X-X-X-X-X-X-X@X@X@XXXXXXXXXXX~.~.~.R.Y.",
"P.P.E.E./.E.W.z.4.m n m n n n n C V n V V V V b C V V V V V V V C C 5.D.1XiX3XwXqXqXqXqXqXqXqXqXqXqXqXqXqXtXqXqXrXrXrXrXrXrXrXrX8X8X8X8X8X8X8X,X2X2X3X3X,X,X,X,X-X,X-X-X@X@X@X@X@XXXXXXXXXXXXXQ.~.Q.R.Y.Y.",
"N.K.P.P.P.P.E.8.m m m m m n m n m m n n C V n n C V C V V C Z C V Z Z b V G.qX,X,X,X,X,XqXqXqXqXqXqXqXqXqXqXqXqXqXqXrX2XqXqXqXqX8X,X8X8X2X,X8X,X,X,X,X,X-X,X-X-X-X-X-X@X@X@X@X@XXXoXXXXXQ.oXoX/.R.R.Y.I.Y.",
"N.P.E.N.E.E.E.E.h.9.8.8.n m m m V m C m C v C V C C V C C C C V V b V 6.7.7.wX>X,X<X3X2X2X2X3X3X1X2X2X3X>XqXqXqX,XqXqX,XqXqX,XqX3X3X3X,X,X>X>X>X>X>X>X,X-X>X-X*X@X@X@X@X@X@XXXXXXXXXXX^.^.oX/./.Y.I.U.Y.U.",
"m.m.N.N.N.E.N.E.P.P.N.m.N.n.c.x.K.7.C m v C C C b b C C v C C V V C V n Z R.1X:X>X>X>X>X1X>X>X1X>X>X>X1XqX>X%XqX,X>X>XqX>X,X>X>X,X<X<X>X<X-X>X>X-X>X*X#X%X#X#X#X@X@X@X@XXXXXXXXXXX^.XXN./././.Y.Y.I.Y.Y.U.",
"m.n.m.m.m.E.E.m.P.L.L.U.L.U.c.5.v v x v x v v C v v x b C v v v b n V s.D.$X#X#X*X:X:X-X:X%X>X:X%X1X:X:X:X%X>X>X>X,X>X>X>X3X>X>X<X>X<X>X-X-X*X*X*X*X#X#X@X+X@X+X@XXXXXXXXXXXXXXXXXXXXXN././.Y.Y.I.I.U.U.G.",
"n.n.n.n.m.m.m.m.m.L.J.m.P.L.9.n v v v x v x x x x m x x x v Z 8.d.d.0.d.R.(.#X#X#X#X*X*X*X*X:X:X:X%X%X:X%X:X:X%X%X:X:X>X>X>X>X%X-X-X*X*X-X*X*X@X@X@X@X@X+X+XXXXXXXXXXX.XXXXXN.^.N.N.XX/.Y./.N.Y.U.L.G.x.b.",
"M.n.n.n.m.n.m.m.n.L.m.L.J.U.m.s.0.0.6.8.r.0.7.7.6.7.d.0.d.0.0.0.c.L.P.R.!.&X+X(.$X$X+X$X$X#X#X$X(.%X$X$X#X*X*X:X*X*X%X#X:X*X*X*X*X*X@X$X@X+X@X&X@X+X+X+XXXXXoXoXXX/.XXXXN.XX^./.XXN.N.^.N.N.N.N.N.N.x.x.N.",
"h.h.h.n.n.M.n.n.m.n.m.m.J.L.m.J.J.J.J.D.D.D.D.D.s.0.s.0.s.z.J.P.P.T.T.~.~.!.~.(.(.+X+X+X$X$X$X$X(.%X$X$X$X#X(.$X(.#X#X$X#X#X#X$X@X@X@X+X+X+X+X+X(.XXXX~.~.~.Q.~./.XX/.XXXXN./.^.XXN.^.N./.N.N.N.N.b.x.x.x.",
"h.h.h.h.M.h.n.M.k.m.n.m.m.n.J.m.K.K.K.J.n.D.J.J.J.D.x.m.K.n.K.P.P.P.Q.T.^.Q.!.(.(.).~.).).).+X(.).).).$X).$X(.$X$X$X$X$X$X$X(.$XXX+XXXoX+XoX~.~.XX~.~.~.~.~.~.Q././././.N.^.N.N.N.^.N.N.N.N.N.N.N.b.x.x.c.",
"w.s.s.h.h.h.M.h.z.k.k.l.z.x.z.z.n.n.n.n.K.J.J.K.J.J.J.J.J.K.P.P.P.T.P.W.Q.Q.R.!.(.(.(.).).).).).).).).).).).(.(.$X).oXoX$XoX).$XoXoXoXoXoX.X.X~.~.^.~.Q.~.Q././././.N./.^.N.N./.N.N.N.N.N.N.N.N.c.x.v.c.v.",
"h.g.g.g.w.h.h.h.M.M.M.h.k.c.c.x.z.n.n.J.n.z.K.n.n.n.D.x.M.J.K.K.P.P.P.T.I.R.T.R.T.!.!.!.R.Q.!.^.).).!.!.Q.!.!.^.oXR.XX.X^.~.R..X.XOX.XOXOXC..XY./.N.XXN./.oXY.I.I.Y.I.U.P.P.D.K.m.N.N.N.b.f.x.c.c.h.c.v.v.",
"w.g.g.w.h.h.h.h.g.h.h.h.h.h.c.k.k.z.n.z.k.n.n.M.K.n.J.J.M.K.z.K.K.K.E.T.P.P.T.T.T.T.T.T.T.R.T.Y.).H.).T..X.XoX.X.XOXOXOX.X[.[.[.OXb.C.C.C.C.C.C.OX.XY.XX/.N.E.U.U.I.L.U.L.K.D.D.m.m.N.U.Y.G.v.v.h.v.v.s.v.",
"w.w.w.w.h.g.w.M.g.g.g.h.h.h.h.k.j.h.j.k.n.n.k.n.M.M.z.k.M.K.K.J.K.K.K.K.U.U.T.T.T.K.T.T.T.G..XY..X[.[.'.V.].B.C.R c B.Y V.{.V.B.o.E B.B.a.B.O.B.N B.C.C.N.Y.L.U.L.G.x.L.J.z.D.c.c.x.d.d.v.p.v.i.v.v.v.s.w.",
"e.w.w.w.w.w.w.r.w.g.w.h.M.E.E.m.g.P.z.g.k.l.k.M.M.K.l.n.K.l.M.K.K.D.D.D.K.K.T.K.T.D.G.H.)..XC.C.[.`.1.F =.=.#.E Q ].o.O.I N V.=.#.#.B.M N o.o.d o.o.O.I a.Y.b.x.D.D.K.x.z.D.c.D.x.c.d.f.H.R.H.v.Y.v.0.v.w.",
"e.e.7.7.0.w.w.w.s.w.w.s.r.r.r.g.g.M.E.L.s.j.j.l.h.g.M.k.M.z.n.z.D.F.n.K.D.K.K.D.F.G.[.a.`.F `.B.V.&.#.V.N E O.=.` ` V.V.*.V.*.O.V.#.N V.O.o.#.o.B.o.o.O.Y p.H.b.D.z.l.c.f.c.z.j.v.v.i.T x 4 x B c Z 0.0.p.",
"8.5.Z b 7.9.w.e.w.w.w.w.r.r.g.r.g.g.w.h.j.d.h.g.y.M.h.h.j.h.l.z.l.l.z.D.D.D.F.G.uX`.a.`.0 `.V.V.&.].V.` B.#.=.=.=. X*.-.*.] / Z.O.N o.] N ] ] o.p o.E I I R T p.b.H.f.c.d.d.d.j.c.i.Z c 4 3 3 4 c c Z 0.Z ",
"Z Z c 6 Z 7.8.9.9.9.w.w.w.w.w.r.r.s.r.s.s.r.l.g.M.g.h.Q.d.d.l.d.l.c.f.c.c.F.i.H.0XC.R ~ a.R R a.`.o.#.V.V.#.Z.=.` ` =.*.[ Z.>.[ *.H s -.<.[ *.] N p > #.#.L D D I q a.Y.G.d.v.s.v.0.4 4 4 3 3 3 4 3 4 B 4 ",
"c B , + 6 Z 6.8.8.9.9.7.9.9.0.9.w.r.r.r.r.r.r.g.r.y.s.s.D.F.l.l.J.y.d.F.d.v.[.[.W a.T a.a.S.a.T [.IXV.3.-. XZ.V.].=.*.[ *.[ ,.,.*.*.:.*.,.,.*.*.Z.;.N 5 @.H ` ` ;.@.Y c Z v.v.p.v.V # # # F 6 # % 7 q q q ",
"f 6 , , , x q.8.6.Z A Z A A A A 8.r.w.w.w.r.w.r.y.y.y.r.0.r.l.g.f.d.A.F.F.F.i.p.i.a.p.7.p.C Z W 0XE :.,.<.V.|.O.=.&.:.X.' ....,.>.,.*.>.[ [ ......' o.=.&.{ :...[ N a.4 4 Z W A 6 6 T $ . # q 7 r r H H u ",
", + O O , g C Z Z Z A f f f g A 7.e.8.8.r.e.0.y.y.t.y.y.y.y.y.l.y.q.F.q.d.d.F.Z 3 c i.F.f.F.F.S.0X X{ ,.[ #. X` -.[ :.{ X.{ { ,.{ { { [ [ ......_ ..;.3.[ d { _ { ].7 6 c [.B 6 0 + q S R 8 5 8 @.' ' l ` ",
"O . . O O , f f f g g , g , g f A 0.w.e.e.8.8.8.e.y.t.t.u.t.t.t.t.y.p.S.H.W p.H.V F.i.d.d.F.H.OX0X%.&.>./ <.[ >.:...:.:.>.>.:.<.<.,.,.{ ,.*.{ ..X.*.]  .&.&. .l +.$ ~ 3 7 ! L o = 7 $ 5 Q +.G +.K H / d s ",
"    . + O , < g < g g g < g g g A Z 5.9.r.8.e.u.y.t.u.A.A.A.A.t.t.q.F.S.S.i.H.q.H.p.F.F.i.F.p.! ! E =.&.&.*./ >...*.:.>.[ &.&.Z.>.Z.;.;.*.&.*.2.' @.%.| U +.U '.c 9 T # % ~ ].%.B.R q X > E a i : i s s a ",
"    #   O 7 < , , , 2 < , O , , g A f.7.x x q.q.u.t.u.A.A.A.u.A.q.F.S.H.p.F.p.H.i.G.f.G.a.a.C.a.O.+.R I %.+.G E M M q M c c q M M M E E +.H E O.` ` i G Q ^ `.S B . # T 9 ~ p ` J Q X # X S H ` H a a : +.",
"    #     @ @ + , O +   . O O O f B 6 p.a.FXq.q.q.q.q.q.q.q.t.y.p.Z W a.H.H.S.S.T i.i.[.a.E E I #.I F c 5 $ q 6 4 c c q 4 5 x M 4 c q c 7 $ 5 q u $ u '.~ W W ^ 9 + Y F % 7 H ;.` 8 5 X o 8 a d H a * ` o.",
"    %   X u @ @ + . X 7 D ~ f , 9 + # 5 0X[.=.@.~ ^ f ^ Y Y 4 T R ~ B.S.c W ZXnX[.OXa.T B.~ M 5 5 q % #   3 # c 4 c C.a.~ a.3 M 7 ; 5 i 3 3 3 c q 4 3 F Y c W 9 % W 0 0 q 5 w d %.= u u t r w d w w r r s ",
"  %   7 X X 1 @ 2 $.`.~ # c 9 , 0 X X o c `.} ) z Q U k +.E D M N o.E '.W a.9 9 c q 5 5 M R E C.O.B.R ~ c [.q C.b.R F R a.! > M Q o E M a.^ B c 3 # # F c 9 F # % 0 Y   q I * * `.M u > y y l ) s s e p s ",
"0   7 0   = h l L U F 2   # f + < X X 8 R R Q P +.t Q ].`.o r a s d ` V.S % 0 5 p I O.+.I I I N I B.`.R M 0X[.}.B.R V.p r N : u $ q q % 6 c + 3 $ 0 $ + 6 F # 7 u S ~ F ~ `.`.S D B.! Q J s w [ ) & - & 1 ",
"= X . S o 0 j J 1 = 2 @     . 2 O < 1 8 X X S u 1 ; h 1 1.U d w ;.] O.N t P o E #.p p p r H B.|.IX5 `.M ! I % # a.M I =.#.H u S F j 0   . j . . X $ $ .   7 ; ; ] & :   . 3 W B 9 7 R 2 e - ) s k | S = y ",
"o 2 0 U h = ; o o X u h X X U %.z 1.y $.7 o 1 e - w h K J K  .e - I G a $.u P +.I p : r ` o.E > u > I M u L 5 F }.a.o.' ' a S i J u 7 > r k 8 0 8 o $ 1 G K y ' { ) & ; 9 % 7 9 0 @ ; 2 , = H e > X 8 : s ",
"h l h 1 2 @ X ; S h G t G & ' k = 2 & r t 1 t h d l  .e z k z ) k r w d * w a H p p N #.O.N E ].B.I p * p G E > % L s w & #.: p : I 1 S H * ; 1 r r r = ` k d s / ) t 7 . $ f f . ; $ + 2 Q - r ; + o t s ",
"l l y j : y 2 k e t l j l e ) y - = - t j u | | K e %.k | %.-.].| %.{ _ ( ..&.d / N =.p * w s p d [ d X.&.) i i : o.' w * : r ].L S ; 1 G o & X & k s w o L %.e & a S + . 9 9 9 q @ 2 7 2 O @ ; S 7   u u ",
"1 e h z j = l & - z l 1 e y z l } t h k : r l y l %.K ` | @.| U 1.i s / w ] w ] s ;.| w s ' e * d _ { ) ) w * & ` %.s s K & o 8 o = o J P r > J k y  .} . 7 S P | & @ $ < F 9 7 2 : 5 7 F < 7 < o &   + X ",
"Q z j 1 z j e - - e h y 1 k l j l l } z G K ) z k k P =.'.=.{.$.}.B.].}.=.H %.=.O.H P - -  .+.a ) -. .` 2.h I %.@.H =.=.| e w y k > G w = ; 7   u 0 X X .     j 1 t @ @ o S 9 f H i o X o D   . X $ < @ X ",
"| J 1.k y z } K z e l k h y 1 @ e z K } U %.z k e K %.P =.%.L u '.! B.! ~ {.{.$.N ].].|.|.'.}.{.2.l k h Q %.].P w y ].| } y r l K o a G ].R       R $.`.. @ + .   2 o   X F 9 9 r r ;   . .   . .   @ . X ",
" .2.}  . . .z z } } y 2 e z } U e z e l 1.U j  .l K y h +.S R B.'.S Q L Q ! M @ o P 1 S ! a.~ B.}.P t 1 t k %.|  Xz } J u 8 @ X X o $.|.|.|.'.`.U R {.|.`.D j . @ + . O < f f < + 2 < < , + + , + % + . . ",
"2.2.X.2.3.X.X.X.} ) z y } z z z K K l  .z z  . .l l y k j Q Q U +.`.'.$.{.`.; 0 $.|.$.! a.F T 9 B 0X'.%. .} K K 2. .1.j f F ! @ 2 U ].$.K `.{.1.1.~ 1.U 1.g 1.}.. , 6 < + f 9 6 , , O O + + O . # + # .   ",
"X.X.3.3.3.X.3.X.X.3.3.2.X.} }  .} }  .} | 2.} l } h |  .G j S u y U +.%.J U }.}.{.{.$.'.F q D 9 6 ! B +.U K z  .z z } e 2 J 1.J 1.'.Q R L L L '.{.! '.1.F ! J h ^ f , , O B 9 + + O , + + + .   X . . X . "
};
