/* XPM */
static char *_145_8983100ac9a90cf54c0512e9435e762756c16176095e0de96e8528d10e03131c[] = {
/* columns rows colors chars-per-pixel */
"114 64 249 2 ",
"   c #010400",
".  c #030B00",
"X  c #0A0E01",
"o  c #051200",
"O  c #0C1301",
"+  c #0D1A01",
"@  c #121602",
"#  c #141B01",
"$  c #151A08",
"%  c #1A1C14",
"&  c #162301",
"*  c #1B2302",
"=  c #1D2A02",
"-  c #1D240B",
";  c #1C2413",
":  c #192E0D",
">  c #222C03",
",  c #232B0B",
"<  c #23280B",
"1  c #243302",
"2  c #2A3403",
"3  c #25320A",
"4  c #2B340C",
"5  c #2D3A0C",
"6  c #2B3B02",
"7  c #323D0B",
"8  c #333D06",
"9  c #242B13",
"0  c #262A18",
"q  c #2B3413",
"w  c #2D3914",
"e  c #2D341A",
"r  c #283418",
"t  c #333C13",
"y  c #343C1B",
"u  c #333819",
"i  c #282A23",
"p  c #2D3525",
"a  c #353C23",
"s  c #353B26",
"d  c #3A3C35",
"f  c #11302B",
"g  c #34430C",
"h  c #3A4A0C",
"j  c #344507",
"k  c #354213",
"l  c #3A4513",
"z  c #3C4A13",
"x  c #36421C",
"c  c #3B441C",
"v  c #3D4B1B",
"b  c #364C19",
"n  c #3D5417",
"m  c #334911",
"M  c #3C4523",
"N  c #3E4A24",
"B  c #3D432B",
"V  c #354929",
"C  c #3A5624",
"Z  c #364935",
"A  c #414D15",
"S  c #424D1B",
"D  c #40451C",
"F  c #45531C",
"G  c #4A551B",
"H  c #4C5B1C",
"J  c #465716",
"K  c #43500D",
"L  c #4D6218",
"P  c #51621C",
"I  c #434C23",
"U  c #434C2A",
"Y  c #43482B",
"T  c #455224",
"R  c #4A5424",
"E  c #4D5B23",
"W  c #47532B",
"Q  c #4B542B",
"!  c #4E5A2D",
"~  c #435C25",
"^  c #525D25",
"/  c #525C2C",
"(  c #505626",
")  c #444C32",
"_  c #454A35",
"`  c #4B5433",
"'  c #4E5A33",
"]  c #4A543A",
"[  c #535C33",
"{  c #535C3B",
"}  c #545A38",
"|  c #4D6126",
" . c #546424",
".. c #55622C",
"X. c #5A652C",
"o. c #5C6C2D",
"O. c #576A27",
"+. c #5D732B",
"@. c #556233",
"#. c #5A6534",
"$. c #5D6A33",
"%. c #56613A",
"&. c #5C643B",
"*. c #5E6B3B",
"=. c #566D33",
"-. c #5F7135",
";. c #4E6433",
":. c #616C2D",
">. c #616D34",
",. c #636D3B",
"<. c #637333",
"1. c #66733B",
"2. c #687739",
"3. c #63742D",
"4. c #35504B",
"5. c #395C76",
"6. c #3E6749",
"7. c #495749",
"8. c #555946",
"9. c #4D4E49",
"0. c #615F53",
"q. c #5C6542",
"w. c #5E6942",
"e. c #59684A",
"r. c #466558",
"t. c #557253",
"y. c #626B43",
"u. c #636B4A",
"i. c #616648",
"p. c #6A7445",
"a. c #6B744C",
"s. c #697745",
"d. c #727C49",
"f. c #656B52",
"g. c #6A7552",
"h. c #747B56",
"j. c #4C7470",
"k. c #727466",
"l. c #6D8139",
"z. c #78854D",
"x. c #74876D",
"c. c #869757",
"v. c #8B9579",
"b. c #8B926D",
"n. c #9DA675",
"m. c #97A36D",
"M. c #A3AE78",
"N. c #3B6B98",
"B. c #386E98",
"V. c #3B75A8",
"C. c #3578B9",
"Z. c #2D6DAD",
"A. c #2A598D",
"S. c #54768A",
"D. c #476C94",
"F. c #567897",
"G. c #496F92",
"H. c #4677A7",
"J. c #447EB4",
"K. c #547DAA",
"L. c #6B7B88",
"P. c #367DC3",
"I. c #3A85BF",
"U. c #598792",
"Y. c #6D8E8C",
"T. c #5A84A9",
"R. c #4585BB",
"E. c #5589B7",
"W. c #5792B1",
"Q. c #6895B6",
"!. c #6E95AD",
"~. c #7DA2AB",
"^. c #3C82C6",
"/. c #3885C8",
"(. c #358CD4",
"). c #3B8AD4",
"_. c #368CDA",
"`. c #3A8CDA",
"'. c #3C86D3",
"]. c #3391DB",
"[. c #3B93DC",
"{. c #3892D5",
"}. c #398EE2",
"|. c #3D93E2",
" X c #488BC7",
".X c #5796C5",
"XX c #458CD7",
"oX c #4594D8",
"OX c #5692CE",
"+X c #6B9DCE",
"@X c #699AC5",
"#X c #6C9ED2",
"$X c #649CD3",
"%X c #739FCD",
"&X c #67A0CB",
"*X c #6BA2D1",
"=X c #67A1D2",
"-X c #7AABCB",
";X c #4693E1",
":X c #6AADE8",
">X c #979B94",
",X c #90948A",
"<X c #9BA596",
"1X c #96AA8E",
"2X c #A2A985",
"3X c #ADB492",
"4X c #8E9DA8",
"5X c #92ACB4",
"6X c #A9B7A6",
"7X c #B6B8A8",
"8X c #B4B5AF",
"9X c #BCC3AF",
"0X c #C3C6B8",
"qX c #C9D2B9",
"wX c #CDD6B3",
"eX c #98BAC5",
"rX c #8AB1CE",
"tX c #B1BDCA",
"yX c #8DBAE5",
"uX c #9FC9DB",
"iX c #B7C7CC",
"pX c #A8C6E6",
"aX c #B3D9FC",
"sX c #B2D4F0",
"dX c #BEE6FF",
"fX c #98C7F1",
"gX c #C8CAC4",
"hX c #D5D9C6",
"jX c #CBD5D3",
"kX c #DAE3CF",
"lX c #E3E6D7",
"zX c #EBF1D5",
"xX c #CEDCEC",
"cX c #DDE7E6",
"vX c #D9ECFB",
"bX c #D5F6FE",
"nX c #C3EAFE",
"mX c #E6EAE5",
"MX c #FCFEED",
"NX c #F5FCE8",
"BX c #E5FFFF",
"VX c #ECFFFF",
"CX c #E7F4F9",
"ZX c #F7FEF4",
"AX c #FDFEF5",
"SX c #F4FEFF",
"DX c #000000",
"FX c #F4F7FD",
"GX c #EAF0EF",
/* pixels */
"DXDXDXDXDXDXDXDXDXDXDXDXDXDXDXDXDXDXDXDXDXDXDXDXDXDXDXDXDXDXDXDXDXDXDXDXDXDXDXDXDXDXDXDXDXDXDXDXDXDXDXDXDXDXDXDXDXDXDXDXDXDXDXDXDXDXDXDXDXDXDXDXDXDXDXDXDXDXDXDXDXDXDXDXDXDXDXDXDXDXDXDXDXDXDXDXDXDXDXDXDXDXDXDXDXDXDXDXDXDXDXDXDXDX",
"DXDXDXDXDXDXDXDXDXDXDXDXDXDXDXDXDXDXDXDXDXDXDXDXDXDXDXDXDXDXDXDXDXDXDXDXDXDXDXDXDXDXDXDXDXDXDXDXDXDXDXDXDXDXDXDXDXDXDXDXDXDXDXDXDXDXDXDXDXDXDXDXDXDXDXDXDXDXDXDXDXDXDXDXDXDXDXDXDXDXDXDXDXDXDXDXDXDXDXDXDXDXDXDXDXDXDXDXDXDXDXDXDXDX",
"DXDXDXDXDXDXDXDXDXDXDXDXDXDXDXDXDXDXDXDXDXDXDXDXDXDXDXDXDXDXDXDXDXDXDXDXDXDXDXDXDXDXDXDXDXDXDXDXDXDXDXDXDXDXDXDXDXDXDXDXDXDXDXDXDXDXZXDXDXDXSXVXBXBXBXBXBXBXnXsXaXaXaXaXaXsXpXiX4X4XiXFXDXDXDXDXDXDXDXDXDXDXDXDXDXcXcXFXDXDXiXtXrX+X",
"DXDXDXDXDXDXDXDXDXDXDXDXDXDXDXDXDXDXDXDXDXDXDXDXDXDXDXDXDXDXDXDXDXDXDXDXDXDXDXDXDXDXDXSXDXDXAXDXDXDXDXSXDXDXAXDXDXSXFXDXDXFXDXDXDXCXDXSXvXrXrXrXyXN.D.D.N.D.D.N.N.V.N.A.5.S.5XvXSXSXDXDXAXDXDXFXDXDXDXDXDXDXDXDXSXDXDXAXAXDXDXVXyXC.",
"DXDXDXDXDXDXDXDXDXDXDXDXDXDXDXDXDXDXDXDXDXDXDXDXDXDXDXDXDXDXDXDXDXDXDXDXDXDXDXDXDXDXDXDXDXDXSXDXDXDXDXDXDXDXSXDXDXDXDXDXDXDXDXDXDXDXSXBXA.C.C.C.P.C.D.G.F.D.G.G.D.N.F.rXvXSXDXFXDXDXDXDXDXDXDXDXDXDXDXFXDXDXDXDXAXAXAXAXAXFXDXFXaXE.",
"DXDXDXDXDXDXDXDXDXDXDXDXDXDXDXDXDXDXDXDXDXDXDXDXDXDXDXDXDXDXDXDXDXDXDXDXDXDXDXDXDXDXDXDXDXDXDXDXDXDXDXDXDXDXDXDXSXFXDXAXFXSXSXDXZXvXxXuXV.C.C.P.P.Z.bXBXVXVXVXBXBXBXVXSXDXDXAXDXDXDXSXAXAXAXDXDXDXAXDXDXDXDXDXDXAXAXFXAXAXDXDXSXBX%X",
"DXDXDXDXDXDXDXDXDXDXDXDXDXDXDXDXDXDXDXDXDXDXDXDXDXDXDXDXDXDXDXDXDXDXDXDXDXDXDXDXDXDXDXDXDXDXDXDXDXDXDXDXDXDXFXvXcXCX5X5X5XS.G.G.G.F.G.F.K.E.K.T.J.D.BXVXSXSXVXSXSXDXDXAXDXDXDXDXDXSXAXAXAXDXDXDXDXDXDXDXDXDXDXSXjX4XcXFXAXAXSXDXAXSX",
"DXDXDXDXDXDXDXDXDXDXDXDXDXDXDXDXDXDXDXDXDXDXDXDXDXDXDXDXDXDXDXDXDXDXDXDXDXDXDXDXDXDXAXAXDXAXDXDXFXDXDXDXDXDXDXjXjXjXcXxXsXnXdXdXbXCXVXVXVXBXVXVXVXVXSXDXDXSXDXAXDXDXDXAXDXFXDXDXDXDXDXAXFXDXDXFXDXDXDXDXDXDXDXSXvXxXCXDXAXDXDXSXDXAX",
"DXDXDXDXDXDXDXDXDXDXDXDXDXDXDXDXDXDXDXDXDXDXDXDXDXDXDXDXDXDXDXDXAXDXDXSXSXDXDXDXDXDXSXDXDXDXDXDXAXDXDXZXDXDXSXDXSXDXDXDXSXSXSXSXSXSXSXSXDXSXSXSXDXSXDXDXDXDXDXDXAXDXDXDXDXDXDXDXDXAXAXAXDXDXFXDXDXDXAXDXAXDXFXDXDXDXDXDXDXDXDXDXDXDX",
"DXDXDXDXDXDXDXDXDXDXDXDXDXDXDXDXDXDXDXDXDXDXDXDXDXDXDXDXDXDXDXDXAXDXDXDXDXSXDXAXDXDXSXDXDXAXAXSXSXVXBXVXVXVXVXVXVXVXVXSXVXSXVXSXSXVXVXVXSXVXVXBXVXVXVXSXSXSXSXSXVXVXVXVXSXSXSXSXSXVXSXFXFXFXVXVXSXSXSXDXFXDXDXDXDXDXDXDXDXDXDXDXDXDX",
"DXDXDXDXDXDXDXDXDXDXDXDXDXDXDXDXDXDXDXDXDXDXDXDXDXDXDXDXDXDXDXDXDXAXDXSXDXDXDXDXDXDXAXAXDXSXvXQ.@X*X&X=X*X#X+X@X&X&X=X$X*X@X*X*X+X+X*X*X#X$X=X=X=X$X$X.X#X#X+X+X*X+X+X#X#X#X#X#X#X#X#X*X+X%X+X%X%X!.SXDXDXAXDXDXDXDXAXAXDXDXDXDXDXDX",
"DXDXDXDXDXDXDXDXDXDXDXDXDXDXDXDXDXDXDXDXDXDXDXDXDXDXDXDXDXDXDXDXDXAXDXDXFXDXDXDXDXSXSXDXVXVXdXB.V.R.C.V.V.V.V.V.V.B.^./.I.I.^.P. X^.^.^./.P././././././.P./.P.I.^.^.^.^.P.'.P.^.^.^.P.^.XXP.R. XV.rXSXFXDXAXFXDXDXAXAXDXDXDXDXDXDXDX",
"DXDXDXDXDXDXDXDXDXDXDXDXDXDXDXDXDXDXDXDXDXDXDXDXDXDXDXDXDXDXDXDXAXDXDXDXDXAXDXDXVXBXyXfXfXW.J.H.K.T.rXrXuXbXvXbXbXbX.X/./. X).).{./.).).).(.'.(.(./.(.(.(.(.(.(./.).).'.).`.).)./.XXXXXX;X;XXXJ.%XVXDXDXDXAXDXDXDXDXDXDXDXDXDXDXDXDX",
"DXDXDXDXDXDXDXDXDXDXDXDXDXDXDXDXDXDXDXDXDXDXDXDXDXDXDXDXDXDXDXDXAXDXDXFXAXDXAXFXeXD.H.H.N.@X-XaXBXVXVXVXVXSXDXDXSXBXW.I.R.R. X XI.{.oXXX).'.(.{.(.(._._._._.(.(._.(._._._._._.).oX[.;XXXXXXXJ.@XCXDXSXDXDXDXAXDXDXDXDXDXDXAXDXDXDXDX",
"DXDXDXDXDXDXDXDXDXDXDXDXDXDXDXDXDXDXDXDXDXDXDXDXDXDXDXDXDXDXDXDXDXDXFXDXDXFXtXL.F.T.eXsXSXSXSXSXSXSXFXDXDXFXDXDXAXVXW.W.W.uXuX!.W.W. X XXX).(.{.].]._.`.}.}.].].].]._.].`.`._.(.(.(.;XoXOXJ.yXFXSXDXDXDXDXAXDXDXDXSXDXDXDXDXDXDXDXDX",
"DXDXDXDXDXDXDXDXDXDXDXDXDXDXDXDXDXDXDXDXDXDXDXDXDXDXDXDXDXDXDXDXDXDXDXDXDXDXAXSXVXVXVXSXDXDXAXDXDXAXDXAXDXAXDXAXAXDXU.U.x.Y.6.Z j.S.!.Q..X X/.(.{.(.`.`._._.].].].}._.}._.`._.(._.[.`.XXK.aXFXFXSXDXDXFXDXDXAXSXDXDXDXDXDXAXDXDXDXDX",
"DXDXDXDXDXDXDXDXDXDXDXDXDXDXDXDXDXDXDXDXDXDXDXSXDXAXDXAXAXDXDXDXDXAXDXDXDXSXAXSXSXSXDXDXAXDXDXDXAXZXAXAXAXAXAXlXv.v.Z e.C : r Z 8.r.Z r.j.U.W. X{.).oX/.oX|.].[.]._.}.}.].[.`.`.`.oX{.R.pXSXFXDXDXDXDXDXDXDXDXDXDXDXDXDXDXDXDXDXDXDX",
"DXDXDXDXDXDXDXDXDXDXDXDXDXDXDXDXAXDXDXDXDXDXDXDXDXDXDXAXDXDXDXDXDXDXDXDXDXDXAXDXDXDXDXDXDXAXAXZXMXMXMXwX3Xi.u.q M I t O T w > x u . + 3 r f 5.Q.W.$X:X XoX[.[.].[.|.}.|.`.[.[.[.oX X X@XSXDXFXDXDXDXDXDXDXDXDXDXDXDXDXDXDXDXDXDXDXDX",
"DXDXDXDXDXAXDXDXDXDXDXDXDXDXDXDXDXDXDXDXDXDXDXDXDXDXDXDXDXDXDXDXAXDXDXAXDXDXDXZXAXSXSXSXZXNXkXM.c.>.A R / t w > y @ # a e + 4 x } Y . X 3 V f f S.rX.X:X/.{.|.|.}.|.|.{.[.[._.[.[.R.Q.SXDXDXDXDXDXDXDXDXDXDXDXDXDXDXDXDXDXDXDXDXDXDX",
"DXDXDXDXDXDXDXDXDXDXDXDXDXDXDXDXDXDXDXDXDXDXDXDXFXDXDXDXDXDXDXAXDXFXDXDXFXDXDXZXZXZXkX<Xv.*.v X.X.^ H ( D G t W w M # # { a ! w 7 [ y %.~ w.7.Z 4.U.Q.*X&XoXoX;X;X].[.{.{.[.|.`.R.:XVXFXDXDXDXDXDXDXDXDXDXDXDXDXDXDXDXDXDXDXDXDXDXDX",
"AXDXDXDXDXDXDXDXDXDXDXDXDXDXDXDXDXDXDXDXDXDXDXDXDXDXDXFXDXDXDXDXDXZXAXAXDXDXSXZXNX1Xz.t.O.o.>.2.,.R R #.( [ Q ( Q c c W y x 3 2 #.h s.t ! , ; ; 7.r.~.!.-X&X XoXoXoXoX{.XXXX;XP.Q.VXDXDXSXDXDXAXDXDXDXDXDXDXDXDXDXDXDXDXDXDXDXDXDXDX",
"DXDXDXDXDXDXDXDXDXDXAXDXDXDXDXDXDXDXDXDXDXDXDXDXDXDXDXDXDXDXDXDXDXDXNXAXZXZXNXv.V k -.J P P K h S D c [ > O 2 7 z z.c &.= k @.#.O.s...& w.B ;   o 4.t.j.j.U.Q.$XE..X.XR.$X XR.yXSXDXDXDXSXDXDXSXDXDXDXDXDXDXDXDXDXDXDXDXDXDXDXDXDXDX",
"DXAXDXDXDXDXDXDXDXDXDXDXDXDXDXDXDXDXDXAXAXAXDXFXDXDXDXDXDXDXDXDXDXZXAXAXkX6Xx.=.s.-.| | R ( A A S S y N w y R G G g 8 / / / F A 5 & * , ` ` $ @ . + Z V V V f Y.-XQ.T.pXxXpXrXVXSXDXDXZXSXZXDXDXDXDXDXDXDXDXDXDXDXDXDXDXDXDXDXDXDXDX",
"DXDXDXDXDXDXDXDXDXDXDXDXAXDXAXDXDXDXDXDXAXDXDXDXDXDXDXDXAXAXSXDXDXZX6Xe.C n ~ =.n j Q t * ( y Q y.c t t c ! = ..2.1.:.G 1.S 8 E x x M > , . < u M . - k m g : + 4.T.tXjXiXtXDXFXAXDXDXDXDXDXDXDXDXDXDXDXDXDXDXDXDXDXDXDXDXDXDXDXDXDX",
"DXDXDXDXDXDXDXDXDXDXDXDXDXDXAXDXDXDXFXDXDXAXAXFXFXDXAXDXAXAXDXDXDXDXW ! =.| ;.1 ~ Q 5 X } } u a ` + 2 F A 2.s.^ >.>.A ^ 2 t 1.R c R R R y.< @ # t #.#.1.#.g n = . p <XgX6XxXDXDXDXDXDXFXDXDXDXAXDXDXDXDXDXDXDXDXDXDXDXDXDXDXDXDXDXDX",
"DXDXDXDXDXDXDXDXDXAXDXDXDXFXDXDXDXDXDXDXDXAXDXAXDXDXAXFXAXAXAXDXDXZXd.G 6 = + : N k g F S # . M = = v 1.z.O.E z ( @ ( A F [ u D / >  .X.u Q / / :.2.J  .| E v w.! #.} 2X0XDXDXAXDXSXSXCXtXFXSXDXDXDXDXDXDXDXDXDXDXDXDXDXDXDXDXDXDXDX",
"DXDXDXDXDXDXDXDXAXDXDXDXDXDXDXDXDXDXDXDXDXDXDXDXDXAXDXZXZXAXMXAX8XhXS 2 8 & 5 x k 5 h  .H z 7 4 > R X.l l R 4 Q I I I u / a.,.} *.[ /  ./ I ^ G G A 2. .| ~ N m b | 3 ) DXFXDXFXSXSXbXT.4XSXSXDXDXDXDXDXDXDXDXDXDXDXDXDXDXDXDXDXDXDX",
"DXDXDXDXAXDXAXAXAXDXDXDXDXDXDXDXDXDXFXDXDXSXVXBXCXiXiX6Xe.` y e @ R >.:.,.! + w m s.+.O.P 1.I *.$...E v > * W N e a y > u > t u = 3 R R 7 l A :.J / z g & q Q x C T w 0XAXDXDXDXSXbXW.W.pXSXDXDXDXDXDXDXDXDXDXDXDXDXDXDXDXDXDXDXDXDX",
"DXDXDXDXDXAXAXDXDXDXDXDXAXDXAXAXFXFXVXVX5XS.5.!.~.~.l.C : =.O.O.X.G E  .j H d.:.h :.j n O. .7 [ = G ..g l > 8.* @ X # < I q # @ - Y u X # N #.$.%.t c U ; - + # < < 7XDXDXFXDXDXVX!.@X.XxXDXDXDXDXDXDXDXDXDXDXDXDXDXDXDXDXDXDXDXDXDX",
"DXDXDXDXDXDXDXDXDXDXDXDXAXkXlXzXGXgX5X5.L.-XU.-X~.6.C n l.l.: L X.j v > X.d.J 3.X.g F h J 1 #.E >.o.>.1.,.d.T > I [ ,.>./ ` ( Y q.e O e O w I k 5 k > I ; B _ } u B AXAXDXDXAXDX4X!.Q.Q.VXDXFXDXDXDXDXDXDXDXDXDXDXDXDXDXDXDXDXDXDXDX",
"DXDXDXDXDXDXDXDXDXDXDXAXMXb.} a.v.1X6Xx.5X-X-XuX1XC =.O.C j | C F m F -...1 8 2 p.y 2 8  . .J J -.P G A j 8 ^ :.( A 8 ( 8 / 2.:.7 $.w.p./ E 8 G k = ..1.y.w.` # 9 qXAXDXDXDXFXGX7.Y.eX5XSXDXDXDXDXDXDXDXDXDXDXDXDXDXDXDXDXDXDXDXDXDX",
"DXDXDXDXDXDXDXDXDXDXFXDXMXb.( >.a.q.h.t.~.eXeX1Xz.C l.~ ~ n ~ 5 N F F j ..E } i.Y u u R o.J 2.=.G k # E t g 7 ^ A K >.G ,.2.:.>.P z *.= ..E F o...J J j 6 5 = w # gXDXDXDXFXDX_ : : x.iXSXDXFXDXDXDXDXDXDXDXDXDXDXDXDXDXDXDXDXDXDXDX",
"DXDXDXDXDXDXDXDXDXDXDXAXAXh.G :.2.K h :.V x.x.] b | F + 4 + W ~ & n H E v %.a O @ # [ $.,.E $.2 t x : q.u W y > 8 X.2.2.R @ D A j g #.I < 1 W ../ A z 2 h / I y U qXAXDXAXDXiXa } ` ; mXAXDXDXAXDXDXDXDXDXDXDXDXDXDXDXDXDXDXDXDXDXDX",
"DXDXDXDXDXDXDXDXDXDXFXDXAXa.z.K G ^ :.c.+.1 ;.& g 2.| : g.e.@.g T F G E & +   * u [ / W R > W ) B 9 a M e q . q p.,.l R W q I t 2 2 ` N , q 4 7 H F E E s.c N 4 D wXAXDXAXAX_ O # c $ ZXDXAXAXDXDXDXDXDXDXDXDXDXDXDXDXDXDXDXDXDXDXDX",
"DXDXDXDXDXDXDXDXDXDXDXDXAXs 2 ( A ( j l.H O. .L +.L o ;.b w v 2 z k b x = * = a.@.s.@.! # - q B 9 @ X X $ p 9 } y 4 ` x w W U c ! N I 4 U T *.E E X. .H 1.#./ 4 & n.hX7X9X0 . ` * > 8.AXDXDXDXDXDXDXDXDXDXDXDXDXDXDXDXDXDXDXDXDXDXDX",
"DXDXDXAXDXDXDXDXDXDXDXDXAXX D t 4 8 6 z.P 3.3.2.P | v ;.W @.~ ;.E #.T { ! d.d.^ >.8 / = , w q.* 8.i.] s Y { < @ q.q ' } Y * * u.U q.} ` W R 1 F 1./ 1.X...l 4 ` s./ ` Q M ` w.%.R ! 7XAXAXDXDXDXDXDXDXDXDXDXDXDXDXDXDXDXDXDXDXDXDXDX",
"DXDXDXDXDXDXDXDXDXDXDXAX8X0 B R > 8 :.G L +.n 1 = ~ 1.& 1 x = e * N c 5 G G J E g l 2X,.Q *.' - M W ,.* } u } W N N ` > / / { [ > X X @ ( 8 2.G > I * < @ 4 Q } a.[ ` y.W z 2 R [ 4 qXDXDXDXDXDXDXDXDXDXDXDXDXDXDXDXDXDXDXDXDXDXDXDX",
"DXDXDXDXDXDXDXDXDXFXAXAXv.@ X Y D G X.K J  .1 & C 1 T @.k } , M w I @.F >. .j S %.W %.7 F s.W , } ] D u I &.W D ! W k 2 l / & W y.} 4 ) h.&.R ,.[ e 9 % s _   } Y u # X S R #.D I 9 AXDXDXDXDXFXDXDXDXDXDXDXDXDXDXDXDXDXDXDXDXDXDXDX",
"DXDXDXDXDXDXDXDXDXFXAXAX$ X   - k K 2.L l.| g & ..~ F + q r + u k @.s.2.2.= v 2 O + 5 R ,.= W 3 ` @ . . a w ( / a.W q ' j R $.t [ D I ` u . # } e 0 p p p 0 0.X   . X . * I a.* 0 k.AXDXDXDXDXDXDXDXDXDXDXDXDXDXDXDXDXDXDXDXDXDXDXDX",
"DXDXDXAXDXDXDXDXAXDXDXlX  % e + 2 l.+.+.+.g = s.X.n & w # 9 9 q.d.J A 1 2 / ` ` e q %.T 4 y.) r ` Y $ s < Y t &.Q # q ! #...,.s.D 4 # } # u ` #   . $ i $ B $ 0   . X # g.h.} *   8XDXDXDXDXDXDXDXDXDXDXDXDXDXDXDXDXDXDXDXDXDXDXDXDX",
"DXDXDXDXDXDXDXDXDXDXDXcX  w.c ..o. .+.l.n 1 | C v k a.` Z ] y w T S T 8 t Q M ` ] q.M = { ; 0 d i $ 8._   $ Y   O o x R z A z g [ &.D > y.} > Y 9.  i X X   @ < Y y a.g.( > t q Y hXDXDXAXDXDXDXDXDXDXDXDXDXDXDXDXDXDXDXDXDXDXDXDXDX",
"DXDXDXDXDXDXDXDXDXDXDXk.. 4 o.+.j O.h 1 = | s.| b 5 x + . O @ # , v ! x q.{ ) & ' q # ] X   o     $ $ $ X s X a a q I ..*.2 l T R p.y.u.W y ` < < X X @ @ ` i.I 7 D c 2 @ u } u $ AXAXAXAXDXDXDXDXDXDXDXDXDXDXDXDXDXDXDXDXDXDXDXDXDX",
"DXDXDXDXDXDXDXDXDXFXDXf.o ..J  .L n & 1 s.T m > > O > = { $ : < + - o # ; o o s M x ` y 0 X   @ $     X 8.y.U A v E > H E *.W R > * $ # @ a I / ,.} Q ` d.p.7 p.7 X a.u.} } Y @ >XAXAXAXAXAXDXDXDXDXDXDXDXDXDXDXDXDXDXDXDXDXDXDXDXDX",
"AXDXDXDXDXDXDXDXDXAXMX- *.$.H +.E b ;.&.F & g ;.&.I N N w = %.U B 9 O X X O X . q.= v W u @ p _ $ d X   # > R ,.>./ #.| 5 o t > 7 &.u y u y / } S c D a.D > [ I a.x.] Y 4 # < s >XDXAXDXFXAXDXDXDXDXDXDXDXDXDXDXDXDXDXDXDXDXDXDXDXDX",
"AXDXDXDXDXDXDXAXAXAXzXW W 5 W 1 k 5 g = &  .l.j l v { q * I 4 v q.p + 9 e Y V B N ` 4 . * [ I } i.B ` i.` ,.} ,.T 7 ..= 5 T &.3 F X.$.Q ,.g.c u   0 Y Y I &.p.I u W ] 8.< # $ Y GXDXDXDXDXAXDXAXDXDXDXDXDXDXDXDXDXDXDXDXDXDXDXDXDXDX",
"DXDXDXDXDXDXDXAXAXAXwXT 1 g 3 q ;.F F J O.| h J k 1 + x %.@.R c .   ) u., = p.! k x k Q #.z I c X * D &.7 > > D S [ / Q y M %.T 1.S R u &.> < f.f..   . . < $ q <     B b.M ` i.AXDXDXDXDXFXDXDXDXDXDXDXDXDXDXDXDXDXDXDXDXDXDXDXDXDX",
"DXDXDXDXDXDXDXDXAXAXy.#.-.|  ...F j J  .F g = ! N w v T R 1 I [ = w.[ k #.A j G $.R >.E X.1.U c 0 < ( 2 z.X.c.G G G v q o - r : X - 9   p < } q.y B ; .   % @ s _ )     X # ' v.DXDXDXDXDXDXDXDXDXDXDXDXDXDXDXDXDXDXDXDXDXDXDXDXDXDX",
"DXDXDXDXDXDXDXDXAXMX~ H L h n n n P H <...N &.x . q y.*.4 k > } U * 5 1...| j g m F ^ ../ 2 4 a u q 4 [ ,.:.G G 2 * x & a 8.a a $ s i e 9 * w 4 , < < @ < X @ # $ #           3XDXAXDXDXDXDXDXDXDXDXDXDXDXDXDXDXDXDXDXDXDXDXDXDXDXDX",
"DXDXDXDXDXDXDXAXZX3X6 L L L j j  .O.-.6 o k w - ` } y.< < @ f.h.} m.y.I R l d.y.#.%.D y t u.u.a Y i.b.p.,.( &.D } D < k.a.B 8.X   ,X2X3X>X2X3X3X3X3XM.n.n.m.n.n.M.n.n.b.m.n.m.zXMXDXDXDXDXDXDXDXDXDXDXDXDXDXDXDXDXDXDXDXDXDXDXDXDXDX",
"DXDXDXDXDXDXDXAXNXwXM.c.l.l.M.z.| z s.n ! V N ] 7.9 < @ @ @ q * 0 9 # $ & e.T w : N q X e e X @ u s * @ 0 # < u   < @ X s X               X     X @ * l 8 D G ( ( ( X./ ,.,.,.MXAXDXDXDXDXDXDXDXDXDXDXDXDXDXDXDXDXDXDXDXDXDXDXDXDXDX",
"DXDXDXDXDXDXDXAXMXs.A = > = m = = 3 M # o . ; ; X     d i % @ % 0 $     $ . .     $ % i .                 % 0.0.9.k.x.k.0.d 9.9.9._ gX0X0XgXhXgX0X0X0XAXAXAXAXAXMXAXMXMXMXMXAXAXDXDXDXDXDXDXDXAXDXDXDXDXDXDXDXDXDXDXDXDXDXDXDXDXDXDX",
"DXDXDXDXDXDXDXAXNXv.m.m.c.a.C C q O + #   .               % d i % i i ; i i >X<X,X>X<X>X,X,XDXDXDXDXDXAXDXAXDXDXAXDXFXDXDXDXDXDXFXDXAXDXDXDXFXAXDXDXFXDXFXAXDXDXDXDXDXDXDXAXDXAXDXDXDXDXDXDXDXDXDXDXDXDXDXDXDXDXDXDXDXDXDXDXDXDXDXDX",
"DXDXDXDXAXDXDXDXNX0X7XwXwX9XwXqXhX9X9X6X7X7XmXmXmXcXmXmXlXlXAXAXDXFXAXDXAXDXDXZXDXZXDXDXDXAXDXDXFXAXDXDXAXDXDXAXDXDXFXDXDXFXDXDXDXDXDXAXDXFXDXDXDXDXDXDXDXDXDXDXDXDXDXDXDXAXDXDXDXDXDXDXDXDXDXDXDXDXDXDXDXDXDXDXDXDXDXDXDXDXDXDXDXDX",
"DXDXDXDXDXDXDXDXZXMXMXNXMXMXAXAXAXMXMXMXZXAXAXDXDXAXAXDXDXDXFXAXDXDXDXAXDXZXDXDXAXDXDXDXDXDXDXAXDXDXAXDXDXAXAXFXAXDXDXDXDXDXDXDXDXDXDXDXDXDXDXDXDXDXDXFXDXDXFXDXFXAXDXAXDXDXDXDXDXDXDXDXDXDXDXDXDXDXDXDXDXDXDXDXDXDXDXDXDXDXDXDXAXDX",
"DXDXDXAXDXDXDXDXDXAXAXMXAXAXZXDXAXAXMXAXAXAXDXAXAXFXAXDXFXAXDXDXDXFXDXDXDXDXDXDXDXSXDXDXAXDXDXDXDXDXAXDXDXDXDXDXDXDXDXDXFXDXDXDXDXDXDXDXDXDXDXDXDXDXAXDXDXDXAXDXDXAXDXAXDXDXDXDXDXDXDXDXDXDXDXDXDXDXDXDXDXDXDXDXDXDXDXDXDXDXDXDXDXAX",
"DXDXDXDXDXDXDXDXDXDXDXAXDXAXDXZXDXAXDXDXZXDXDXAXDXDXAXDXDXDXDXDXDXDXDXAXDXDXDXDXDXDXDXDXDXDXDXDXDXDXDXDXAXDXFXAXDXDXDXDXDXDXDXDXDXDXDXDXDXDXDXDXDXAXDXDXAXAXDXAXDXDXDXDXDXDXDXDXDXDXDXDXDXDXDXDXDXDXDXDXDXDXDXDXDXDXDXDXDXDXDXDXAXlX",
"DXDXDXDXDXDXDXDXDXDXDXDXDXDXDXDXDXDXDXDXDXDXDXDXDXDXDXDXDXDXDXDXDXDXDXDXDXDXDXDXDXDXDXDXDXDXDXDXDXDXDXDXDXDXDXDXDXDXDXDXDXDXDXDXDXDXDXDXDXDXDXDXDXDXDXDXDXDXDXDXDXDXDXDXDXDXDXDXDXDXAXAXDXDXDXDXDXDXDXDXDXDXDXDXDXDXDXDXDXDXDXDXMXwX",
"DXDXDXDXAXDXDXDXDXDXDXDXDXDXDXDXDXDXDXDXDXDXDXDXDXDXDXDXDXDXDXDXDXDXDXDXDXDXDXDXDXDXDXDXDXDXDXDXDXDXDXDXDXDXDXDXDXDXDXDXDXDXDXDXDXDXDXDXDXDXDXDXDXDXDXDXDXDXDXDXDXDXDXDXDXDXDXDXDXDXDXDXDXDXDXDXDXDXDXDXDXDXDXDXDXDXDXDXDXDXDXDXAXqX",
"DXDXDXDXDXDXDXDXDXDXDXDXDXDXDXDXDXDXDXDXDXDXDXDXDXDXDXDXDXDXDXDXDXDXDXDXDXDXDXDXDXDXDXDXDXDXDXDXDXDXDXDXDXDXDXDXDXDXDXDXDXDXDXDXDXDXDXDXDXDXDXDXDXDXDXDXDXDXDXDXDXAXDXDXDXDXDXDXDXAXDXDXDXDXDXDXDXDXDXDXDXDXDXDXDXDXDXDXDXDXDXDXAXlX",
"DXDXDXDXAXDXDXDXDXDXDXDXDXDXDXDXDXDXDXDXDXDXDXDXDXDXDXDXDXDXDXDXDXDXDXDXDXDXDXDXDXDXDXDXDXDXAXDXDXDXDXDXDXDXDXDXDXDXAXDXDXDXDXDXDXDXDXDXDXDXDXDXDXDXDXDXDXDXDXDXAXDXDXAXDXDXDXAXDXAXDXDXDXDXDXDXDXDXDXDXDXDXDXDXDXDXDXDXDXDXDXDXDXDX",
"DXDXDXDXDXDXDXDXDXDXDXDXDXDXDXDXDXDXDXDXDXDXDXDXDXDXDXDXDXDXDXDXDXDXDXDXDXDXDXDXDXDXDXDXDXDXDXDXDXDXDXDXDXDXDXDXDXDXDXDXDXDXDXDXDXDXDXDXDXDXDXDXDXDXDXDXDXDXDXDXDXDXDXDXDXDXDXDXDXDXDXDXDXDXDXDXDXDXDXDXDXDXDXDXDXDXDXDXDXDXDXDXAXDX",
"DXDXDXDXDXDXDXDXDXDXDXDXDXDXDXDXDXDXDXDXDXDXDXDXDXDXDXDXDXDXDXDXDXDXDXDXDXDXDXDXDXDXDXDXDXDXDXDXDXDXDXDXDXDXDXDXDXDXDXDXDXDXDXDXDXDXDXDXDXDXDXDXDXDXDXDXDXDXDXDXDXDXDXDXDXDXDXDXDXDXDXDXDXDXDXDXDXDXDXDXDXDXDXDXDXDXDXDXDXDXDXDXDXDX",
"DXDXDXDXDXDXDXDXDXDXDXDXDXDXDXDXDXDXDXDXDXDXDXDXDXDXDXDXDXDXDXDXDXDXDXDXDXDXDXDXDXDXDXDXDXDXDXDXDXDXDXDXDXDXDXDXDXDXDXDXDXDXDXDXDXDXDXDXDXDXDXDXDXDXDXDXDXDXDXDXDXDXDXDXDXDXDXDXDXDXDXDXDXDXDXDXDXDXDXDXDXDXDXDXDXDXDXDXDXDXDXDXDXDX",
"DXDXDXDXDXDXDXDXDXDXDXDXDXDXDXDXDXDXDXDXDXDXDXDXDXDXDXDXDXDXDXDXDXDXDXDXDXDXDXDXDXDXDXDXDXDXDXDXDXDXDXDXDXDXDXDXDXDXDXDXDXDXDXDXDXDXDXDXDXDXDXDXDXDXDXDXDXDXDXDXDXDXDXDXDXDXDXDXDXDXDXDXDXDXDXDXDXDXDXDXDXDXDXDXDXDXDXDXDXDXDXDXDXDX"
};
