/* XPM */
static char *_746_c2880457e896db347eb161ee94d0c1ee70afe95149d5ae738331dd17cd1c9050[] = {
/* columns rows colors chars-per-pixel */
"114 64 256 2 ",
"   c #020400",
".  c #0C0500",
"X  c #030B00",
"o  c #0A0C01",
"O  c #0A0A0B",
"+  c #140B01",
"@  c #0B1400",
"#  c #0D1A00",
"$  c #071302",
"%  c #131502",
"&  c #131B01",
"*  c #181808",
"=  c #191A16",
"-  c #231B0C",
";  c #152200",
":  c #1B2401",
">  c #1C2B00",
",  c #1C230B",
"<  c #1A2513",
"1  c #17310C",
"2  c #222C02",
"3  c #242C0B",
"4  c #252708",
"5  c #243202",
"6  c #2A3403",
"7  c #2C3B03",
"8  c #2A340B",
"9  c #2A390A",
"0  c #323C0B",
"q  c #343A05",
"w  c #272A16",
"e  c #2B3414",
"r  c #2C3813",
"t  c #333D13",
"y  c #353C19",
"u  c #312911",
"i  c #363B25",
"p  c #2E3127",
"a  c #162B30",
"s  c #34430C",
"d  c #394809",
"f  c #354214",
"g  c #3C441B",
"h  c #3D4A1B",
"j  c #3A4616",
"k  c #344C0F",
"l  c #3C4625",
"z  c #334E31",
"x  c #356239",
"c  c #46570A",
"v  c #434D1B",
"b  c #434A17",
"n  c #45531C",
"m  c #4A541C",
"M  c #485816",
"N  c #4E5416",
"B  c #4D621A",
"V  c #56671A",
"C  c #556A10",
"Z  c #617619",
"A  c #434C23",
"S  c #444B29",
"D  c #455223",
"F  c #4A5524",
"G  c #4C5B23",
"H  c #4B552C",
"J  c #4D5A2B",
"K  c #455629",
"L  c #535C2C",
"P  c #545B26",
"I  c #454B34",
"U  c #4B5634",
"Y  c #535C33",
"T  c #555B38",
"R  c #5D4F35",
"E  c #4D6324",
"W  c #546325",
"Q  c #55632C",
"!  c #5A6829",
"~  c #5B7128",
"^  c #556333",
"/  c #5B6534",
"(  c #5C6B34",
")  c #5B673B",
"_  c #516D37",
"`  c #636D2A",
"'  c #667727",
"]  c #636C37",
"[  c #677538",
"{  c #767A37",
"}  c #243748",
"|  c #304D4D",
" . c #255059",
".. c #565D45",
"X. c #485748",
"o. c #5C6744",
"O. c #517051",
"+. c #636B46",
"@. c #697645",
"#. c #6E7851",
"$. c #4D716B",
"%. c #5E6D70",
"&. c #463E31",
"*. c #768A32",
"=. c #678118",
"-. c #798648",
";. c #76894E",
":. c #74876B",
">. c #5C8A6F",
",. c #839C3A",
"<. c #88813B",
"1. c #8CAB3D",
"2. c #87A43A",
"3. c #90AE3F",
"4. c #90B13E",
"5. c #889757",
"6. c #89954D",
"7. c #8BA544",
"8. c #8DAB43",
"9. c #8DA54A",
"0. c #8EAA4A",
"q. c #86A444",
"w. c #91AC45",
"e. c #91A64B",
"r. c #92AC4B",
"t. c #98AB4B",
"y. c #93B244",
"u. c #95B24B",
"i. c #99B74B",
"p. c #8EA654",
"a. c #93AC52",
"s. c #96AB59",
"d. c #96B252",
"f. c #9BB353",
"g. c #9BB559",
"h. c #8FB043",
"j. c #A2B757",
"k. c #A5B34E",
"l. c #8F9668",
"z. c #98AA66",
"x. c #9DB367",
"c. c #97A66F",
"v. c #A4B370",
"b. c #A4C35C",
"n. c #3773B0",
"m. c #537689",
"M. c #5377B2",
"N. c #677CA7",
"B. c #2C7CCD",
"V. c #297AC9",
"C. c #347CC9",
"Z. c #2D7DD2",
"A. c #2B7DD7",
"S. c #317DD4",
"D. c #397EDA",
"F. c #367FD8",
"G. c #417EC1",
"H. c #3D83B9",
"J. c #568991",
"K. c #70928E",
"L. c #5591B6",
"P. c #6896B7",
"I. c #6F90B2",
"U. c #72A7B1",
"Y. c #6AA3A6",
"T. c #2D82CE",
"R. c #3888CB",
"E. c #2D83D4",
"W. c #2E89D5",
"Q. c #2E89DA",
"!. c #3283D5",
"~. c #338BD5",
"^. c #3B8DD5",
"/. c #3584D8",
"(. c #3B84DB",
"). c #348BDB",
"_. c #3B8BDB",
"`. c #3D85D7",
"'. c #3B93DB",
"]. c #3992D8",
"[. c #398CE0",
"{. c #3B95E1",
"}. c #4989C9",
"|. c #5989C6",
" X c #5799CA",
".X c #448DD5",
"XX c #438DDB",
"oX c #4A8EDC",
"OX c #478AD6",
"+X c #558CD6",
"@X c #4493DC",
"#X c #4A93DB",
"$X c #4998D8",
"%X c #539BDD",
"&X c #5799D8",
"*X c #4894C9",
"=X c #6898CA",
"-X c #7899C9",
";X c #669BD8",
":X c #769BD4",
">X c #6A8BC6",
",X c #59A2DB",
"<X c #56A1CE",
"1X c #6AA5C8",
"2X c #75A9C8",
"3X c #67A4DA",
"4X c #76A7D6",
"5X c #78B3CC",
"6X c #4593E1",
"7X c #4B94E2",
"8X c #499BE3",
"9X c #5598E2",
"0X c #478EE1",
"qX c #59A1E2",
"wX c #67A5E4",
"eX c #77AAE5",
"rX c #7AB2EC",
"tX c #639EE1",
"yX c #8B9A8E",
"uX c #91A790",
"iX c #ADB18A",
"pX c #8D94B6",
"aX c #8EABAF",
"sX c #A9AAB2",
"dX c #AFC4B1",
"fX c #CBCAAB",
"gX c #8D9BCB",
"hX c #98A6C8",
"jX c #89A7D8",
"kX c #94A7D9",
"lX c #8FB2CC",
"zX c #A7A8C9",
"xX c #A4ACD9",
"cX c #ABB4D9",
"vX c #B8B9DA",
"bX c #B4B5CD",
"nX c #97B7E7",
"mX c #8EB1E8",
"MX c #AABAE5",
"NX c #B6BCE5",
"BX c #A2BDF2",
"VX c #A19EC9",
"CX c #C5BCCF",
"ZX c #B9C2D7",
"AX c #B3C8ED",
"SX c #97C7D6",
"DX c #C9C6DB",
"FX c #D6CFD4",
"GX c #E4D9D3",
"HX c #C8C8E6",
"JX c #D8D5E9",
"KX c #D0D3EE",
"LX c #E4DAEB",
"PX c #D5E5FA",
"IX c #E9E5F6",
"UX c #F2ECEF",
/* pixels */
"gXkXcXxXHXCXCXFXLXLXFXLXCXpXzXDXNXvXNXkXkXgX>X>X>X>X>X>X>X:XmXBXNXNXkX:XgXjX+X0XD.n.S.A.V.F.V.T.V.B.T.B.B.B.V.V.V.T.B.T.B.B.V.E.V.V.V.V.B.C.C.B.B.B.Z.Z.V.V.A.V.A.V.A.V.A.Z.B.A.S.B.V.Z.C.B.C.V.S.V.S.S.Z.B.S.S.S.S.S.D.D.D.D.D.D.D.",
"xXxXVXNXVXCXJXJXFXCXUXLXLXHXbXVXpXgXpXgXjXkXgXkXgXgX>XgX:XM.M.M.M.>XkXkX>XG.C.C.V.S.V.A.S.B.T.V.T.B.Z.B.B.B.T.T.T.B.B.B.B.Z.A.V.Z.Z.B.B.V.T.B.B.S.B.Z.Z.V.Z.A.V.A.A.B.B.B.B.Z.Z.B.Z.C.Z.S.S.S.V.S.S.S.V.S.A.S.Z.S.S.S.S.D.D.D.D.D.D.",
"VXHXHXDXHXLXLXLXLXGXLXUXFXDXJXpXNXpXN.pX>XgXpXxXVXgXgX:XgXjXgX>XM.M.M.|.D.C.C.S.V.V.C.C.S.S.V.Z.A.V.Z.Z.Z.B.T.V.Z.B.Z.Z.Z.Z.A.Z.S.Q.A.Z.E.B.Z.B.A.B.B.B.Z.Z.A.B.A.B.Z.A.Z.Z.Z.Z.S.B.S.S.V.S.S.S.S.S.S.S.S.S.S.S.D.D.D.D.D.D.D.D.0XD.",
"LXHXDXKXLXHXCXCXLXUXUXUXIXIXLXFXKXKXNXxXxXNXNXxXxXxXgX>X>XkXxXxXxXmX>X>XM.n.n.V.C.C.S.S.V.V.A.V.V.A.A.E.A.A.E.A.E.Z.Z.S.S.Z.S.A.A.S.A.E.Z.E.Z.E.Z.B.B.A.Z.A.S.S.A.Z.Z.T.Z.Z.S.Z.S.A.S.S.S.S.S.S.S.S.S.S.S.S.F.S.S.D.D.D.D.D.D.D.D.D.",
"JXIXIXIXHXvXVXHXIXUXLXLXLXLXCXLXCXCXJXvXvXzXvXNXHXxXgXgXNXxXxXvXxXxXxXNXkX:X+XG.C.C.V.C.W.E.E.T.E.A.Z.E.E.A.E.E.Z.T.T.B.T.T.T.T.S.A.Z.A.A.A.A.A.A.Z.A.A.A.E.A.A.S.Z.S.E.S.S.Z.S.!.S.!.S.!.S.!.S.S.S.A.F.F.F.F.D.D.D.D.D.D.D.D.0XD.D.",
"KXK.VXxXNXVXVXNXDXDXFXFXCXFXFXCXCXCXCXDXHXHXzXVXgXgXVXxXxXxXVXvXvXzXVXzXxXgX:X+XtX9X}.C.C.T.V.E.V.A.E.E.E.T.E.E.E.E.T.E.T.!.T.E.E.!.Z.Z.E.E.E.E.E.T.E.A.A.E.E.E.E.T.!.S.S.A.!.S.S././.S.!.F.!.!.A.S./.F.F.F.D.D.D.D.D.D.D.D.D.D.0X(.",
"nXMXjXkXgXmXgXMXxXDXJXLXLXLXFXFXFXDXKXKXKXLXKXvXVXVXVXxXNXNXHXDXHXDXCXxXgXkXjX;X>XeXrX;X}.C.~.B.Q.E.E.E.E.E.E.E.E.E.E.E.E.E.E.E.T.T.B.E.A.E.E.E.E.E.E.E.E.E.Q.E.!.E.!.E.S.E.!.!.!.S.F.!.!././.!.D.D.F././.F.F.D.D.D.(.(.(.(.D.0X0X(.",
">X|.|.:XmXmXjX>XNXAXKXCXLXUXLXLXJXCXHXLXJXKXCXJXHXKXKXNXxXVXxXNXDXJXLXHXHXMXgX:X;X|.mXBX;X}.!.).Q.W.W.E.E.E.E.E.E.E.E.E.!.E.W.!.T.T.T.E.E.E.A.E.E.E.E.Q.E.E.E.E.!.!.E.!.!.!.!.!.!././././.F././.F.A.F.F.F.[.D.(.D.0XD.D.0X(.D.[.(.(.",
"+X+X;X+XG.|.|.;X>X4XMXAXxXvXKXPXKXzXsXDXsXpXVXzXVXzXhXpXhXhXMXNXvXJXJXLXLXKXNXxX:XM.|.rX}..X#X].T.T.W.W.W.W.W.W.E.E.Z.E.E.E./.!.E.T.W.W.E.E.E.W.E.E.E.W.Q.Q.A.Q.E.W.!.Q.!.!.).!.!././././././.`.~././.(.(.F.D.D.(.0XD.XXD.(.0XD.0X(.",
"+X+XOXOX+XOXOX}.G.|.|.L.M.I.I.gXhXHXKXJXLXFXCXCXbXcXvXcXcXcXcXzXVXVXCXDXDXFXZXMXBX:X|.D.C.T.R.T.W.W.T.W.W.W.W.W.W.~.W.W.E._.!.).Q.Q.E.E.W.Q./.W.~.W.E.W.E.E.Q.Q.~./././.!.!.!.!.!.~./././././.`.(.).(.(.(.(.XXXXD.D.OXD.XX(.XX0XD.0X",
"7X9XoX7XoX.X.XOXOXoXOXOX+X+X+X|.jXMXHXIXUXLXUXLXDXZXvXZXDXvXDXZXxXkXpXgXgXAXAXAXmXeXOXC.W.W.T.Q.W.W.W.W.W.W.W.W.W.W.Q.W.Q.W.E.W.E.Q.Q.Q.Q.Q./.).~.~.~.E.Q./.Q.Q.Q.).Q.)./.).~./.`././._._.(._.(._.(.`.`./.`.(.(.XXD.XXD.(.0X0XoX0X0X",
"0X0XoX0XXXXX@XXXOXXXoXOX+XOXOX+X>X4XjXMXJXIXIXLXJXDXDXHXDXDXDXDXNXNXxXkXlXgXjX-X|.OXR.E.W.Q.W.Q.W.W.W.W.W.].~.W.W.).Q.E.W.~.W.~.{.[.Q.).Q.Q.).Q.~.R.E.~./.).[.[.).).).).).)././.~.).`./.(._._._._._._._._.XXXXXX0XXXoXXXoXoX0XoXoX0X",
"7X0X6X0X@X#XOXXX#XOXOX.XoX.X#XOX.X}.>XjXAXAXKXLXJXJXHXDXDXDXFXDXHXcXhXkXnX:X;X*XR.R.~.W.~.~.].~.R.~.~.~.W.W.~.~.~.~.].^.].).V.].~.R.~.)._.).).Q.~.~.~.~.)./.).[./.Q.Q.).).).)._._._._._.XXXXXX_._.`.XX_.XXXX0X6XD.0X0X+XoX0X9X9X9X0X",
"7X7X8X6X@X#XXX#X.X.X$XOXoX.X$X.X@XOXOXL.>X-XkXMXKXPXLXJXZXvXvXvXAXvXnXjX>X|.}.R.~.~.].~.].R.].).].].~.].].].R.].^.R.R.R.H.L. XH.}..X*X.X_.~.).{.).Q.).].).).).[.).).).).).).)._._.@X6XXX6X6X@XXXXXXXXXXX_.XX6XXXoX0X0X0XoX+X9X9XtX9X",
"#X#X7X@X#X7X#X#X%X#X$X#X@X$XXXXX.X.XOX}.*X}.}.L.=XAXAXAXcXMXMXkXjX:X:X=XL.}.9X_.).[.).^.^.^.~.'.].W.].].].].^.R.L.L.L.L.Y.5XSXP.P.L.*X*X.X^.].).{.Q.Q.'.).'._.).[.).).[.).)._.)._.XXXX6X0XXXXXOX@XXX.X_.XXXX0X0XoXoX+X0X0X+X9X9X+X9X",
"#X&X#X7X#X7X8X9X#X%X#X$X#X#X_.#X@X@X.X$XXX.X.XOX}.|.>X2XjX4X3X X XtX;XmXrXoX.X).[.).).'.^.].].~.R.*X*XL.L.L.Y.J.Y.J.m.K.>.K.X.| $.J.L.L.L.L.R.W.'.].Q.].].).].).).{.).{.'.).'._._._.XX6X6XXXXX#XXXXX@X@XXX0XoXoXoX0X0X0X9X9X+X9X9X+X",
"%X&X%X&X#X%X9X9X%X#X%X#X$X$X#X@X6X].#X$XOX@X_..X*X*X*X}.+X*X$X.XR.}.*X*X~.W.].].].].^.^.].].*X<XY.J.J.>.>._ x ;.k O.U o.z e w l o.X.| O.$.J.L.*XR.R..XR.].{.).[.[.[.{.Q.]._._.[.[.XX'.#X#XXX#X#X@X@X6X0X6X@X$XOXoX7X7X7X+X#X9X+X9X9X",
"9X9X%X9X%X%X9X9X%X%X%X$X&X#X$X8X8X@X$X$X&XXX@X@X].].].$X@X@X].].].].R.].].'.].].]..X$X$X X<XL.J.>.>.O._ E B ~ d k z 0 o H e 2 g t   # 1 1 1  .P.L.&X,X*X$X].'.'.{.{.{.'.'.{.{.{.6X'.6X@X@X@X@X'.@X6X6X6X6X7X#XOXoX7XoX#X#X+X+X+X+X&X",
"#XqX%X%X%X,X%X%X8X%X$X%X%X9X7X$X$X$X$X%X7X9X#X$X].$X{.'.[.XX].].].].].].].].].].$X<X*X;X1XY.K._ =.E B E ! f 7 : f ; & i e # 5 t / S X X 1 z 1 a m.5X1XrX}.].@X].'.'.'.'.].~.].].~.].@XXX@X.X@X$X#X@XXX6X8X6X7X8X8X@XoX+X|.;XeXeX:X:X",
"+X3X;X%X%XqX,X,X%X%XqX%X%X7X9X%X%X*X,X}.|.&X X X$X$X8X{.6X'.].].'.).'.$X{.$X].*X<XL.P.Y.U.O.K ` _ B B B f D g A r l # ; o.r U f 6 T j / E O.o.| | m.P.1X<X$X@X@X.X'.'.].@X'.{.'.{.].'.7X@X'.8X@X$X$X@X6X6X#X7X7X#X9X}.;XAXAXMXgXxXBX",
"eXeX3X3X3X&X9XwXwXqXwXqX,X%XqX,X*X X>XI.m.I.J.L.$X8X$X$X$X$X].].'.{.8X].$X$X<X<XY.K.>.>._ ( [ ` ~ M N / L L H Y D b g A 9 f 8 5 Q b [ s U > < < X.$.U.I.U.1XOX#X@X$X$X].].^.].'.'.{.'.$X#X@X8X6XXX6X8X8X7X8X#X%X+X+X=XkXAXHXvXvXNXHX",
"nXjXmX4XwX3XwXwX9XwXwXqX,X,X,X<X Xm.I.aXa a $.L.%X8X$X$X8X$X$X$X8X$X$X<X<X<XY.$.x k =.c W V c c h h f Y 2 @ 6 0 j -.v ] > g J ^ ( ] W : ) l <   X x $.%.$.J.P.=X*X*X*X+X+X}..X.X'.].qXqX$X8X0X7X#X7X6X6X#X#XtXeXeX:XjXnXcXAXHXcXHXMX",
"AXAXnXmXrX3XqX&XtXtXwX;X&X,X,X,X;Xm.} $.p = $.I.,XqX,X8X8X8X8X$X$X*X<XY.Y.Y.>._ _ *.K E m m b b M h f g t g m m N d 6 P P Q n n 6 4 : 4 T U & % X & z l l z p J.U.L.P.nXPXAXmX3X3XmX2X3XqX$X9X9X+X&X9XqX9XwXeXmX:XjXjXmXmXjX2XgX:X:X",
"AXAXSXmXmX3X3X3X3X;XtXtXwXwX,X,X1XpXyXz z p X.N.,XqX,X,XqX8X8X<X<XU.Y.O.x x x ~ c s h k * H g S @.0 t g y F : ! [ ] ] F [ d q m b t b 4 4 X u e i X : t k s > # | K.cXHXvXZXmX-X=XAXAX2XL.%X$XqX;XeXwX9X9XmXmXnX:X:X;X;X:X:X-X-X>X-X",
"nXmX5XrXeXwXrX5X4X3X4XwXwXqXqX3XI.m.l.+.+ X.O } >XtXwX%X,X%X<XP.U.>.z x _ _ E 1 L F r X L ^ t y U # 8 v h [ @.P ] ] b P 5 b ] S g A P v +.4 # : f ^ ( [ _ s h ; $ f uXFXSXpX=X=X:XjXmX2X3X<X,XwXeXeXwX;X;X;X3X;X;X;X&X3X=X2XPXPXPXcX",
"5X3X4X3X3XeX3XrXrXrXrXeXwXwX,X4Xm.o.....+ p %.} :X&X<X=X1X5X5XJ.x B E B 7 > $ 8 A t t n h ; X l 4 2 v [ -.( P h H @ H b F L u b L 2 ! ! t D J P ( [ M E E G h [ F ^ ^ uXdXhX4X X3X3XeX3X3X<X*X%X&X3X&X,X&X3X;XwX X;X=X:X2XPXUXUXUXIX",
"3XeX3X3XwXwXwXwXeXrX3X3X,X,XwX3X| %.#.R + O }  .5X3XeX5XU.>.O.x _ h s 6 s ; 9 l g 6 b ! M d s 8 2 m / s h F 6 H g l A 0 H @.+./ ) P Q P Q m W m n c [ V E H h f h G 5 h ;.aXU.;X$X%XqX,X<X,XqXqXqX,X,X&X&X&X&X3X3X=X-XlXZXUXUXUXUXGX",
"4X4X1X2X2X2X4X=X2X1X5X5X1X5XwX1XN.%.&.. a O a Y.1X5XU.K.x _ k s ; _ ' ~ ( J # 5 f { ` W V [ h ) ] Q G b 6 ; S A 8 l f > t 2 t 8 2 6 Y F q d j ! n G k s ; r K t K K K s K z U.P.<X,XqX$X$X%X%XqX8X%X,X&X&X,XwX&X=XjXPXbXGXUXUXUXGXGX",
"lXaXaXuXY.K.I.aXaXaXuXK.aXaXjXjXlXI.$.a } }  .P.5XY.>.E 9 E ! ~ ! k P m q N @.{ d ] d m Q W d P & m W 0 b 5 T & & @ # 2 A 8 & # : l y X & l ( ( ^ r h h w , @ & 3 l # f ..T z  .1X*X<X,X,X,X,X,X,X,X,X,X,X,X,XwX:XAXDXFXGXfXc.iXiXfX",
"%.#.^ :.@.[ #.#.#.:.o.@.o.>.uXaXhXaXpXK.I.gXP.U.U.O.k B [ [ > B ! 7 c 6 W -.c ` P d h f D 6 W P ` ` ] [ [ @.m 2 v Y / ] L J D A +.t % e $ r h s 8 g > D & I I T i 3 g U i & 1 1 } 2X XP.1X X;X X&X<X1X3X<X3X,X3XU.pXFXGXfX5.{ N 5.v.",
"] ) ( P k P y ] Q P V Z c ` [ #.yXuXdX%.lXlX5XSXuXx V ~ E k _ k M h n ( W > d 5 ] j 5 s E W c M [ m m b 0 q P ! P b 0 F q Q [ ( q ^ ) @.Q G s n j > Q ( @.^ U & y D G h @ X.w | $.K.lXgXlXlX-XjXU.P.gXP.-X1X1XU.aXsXiXv.6.,.6.<.<.' ",
"` c N q q ` P 4 q V { { C ' V ` -.Q :.O.K.lXlXaX;.B ~ V E k h s h D D d Q G Q o.A t t n ( M [ ~ m f ; G q s d P c b ] m ] [ ` [ P d ] 2 W P n ! ! M b d 7 7 > r > P ( [ $ $ $ 5 p < l.yXyXK.sXaXZXKXUXPXAXaXlXSXdXc.@.' ' c C C C c ",
"b b q q R m b t q { { V N c N ` ` N d [ j :.:.x k E n $ 7 # K D ; h G G v ^ y @ @ : L ] ] P T 6 e g : o.g S g > 9 Q { [ n & b b d d ^ D : 5 H Q P j k 7 d G D t J m s # l l e I T U y T ) o.sXUXLXUXUXGXdXsXuX;.~ C Z *.Z *.c C ' ' ",
"b 6 ` * & 4 * y { R q N N q 6.c N V ` -.~ 5 ^ > k [ E 1 O.o.^ s D n n J # # X & 8 Y P H A 2 Y U l 3 y l e e X e #.] j m D 8 g f 6 6 H l 1 e 9 s G n m G @.h h 9 G E J D r l U # & A & 0 ` +.iXfXfXGXiXfXiX;.[ ~ Z =.=.=.C Z =.' c V ",
"` [ ] +.u X % 3 R & q u u R 4 P N F q *.N ! B E ~ B $ _ j f j 6 k k h f > : ; @.! [ L L % ; 8 l w * X o % p w T i 8 U g r H H y J A A 3 A K ) F F ! ! B [ ^ H 8 > 5 F # $ # # H : 2 b W m N j A J iXiX{ =.*.c C C *.*.Z Z V c N V c ",
"` b 8 w % w . + U Y b q u 4 b y 8 q 7 -.V ' ' [ V B h _ l ^ K Q E Q D ^ H #.-.W ] q L : 9 t +.: ..o.U i S U w & +.r U U l : > +.A o.Y U D F 6 n [ G [ Q Q j 8 J @.( ) ^ H ^ ) ^ F ^ ! M q N ! b D ( 6.C *.Z Z ' C C Z c ` V c 6 6 b ",
"] [ A +   I S #.[ / y 4 u l l A 4 7 ! N B W n 1 1 K _ > 3 f 1 r ; h j 9 n M G F f f uX] J ) K > y H +.& T e L A h h K 8 ^ Q L J * o # # H q [ m 2 A : 3 & 8 F ^ #./ D ) D h 5 F L f 7 P W [ P f [ { W V V C ' =.c C V ` N b V ! N P ",
"q 4 t ..+.Y ` b m g u - l * X S b b ] d B E 5 > h 5 h ^ f ^ 3 l 9 l _ k [ W 7 D ) S ) s n @.H 2 Y U v t A ] m b P F t 5 f P ; G ] Y u K ;.) m ] / e w < i I   U g r & @ n n ^ v g D 9 s G 0 j M M *.d V c B Z B *.M 6.] P ] N ` 6.[ ",
"U e + 3 S T ` : b 4   w O + X ; f k *.B *.n s 1 _ E D # w r @ t f Q [ -.[ ; D 5 # @ 9 F ( : A 3 H % X X i t P P [ D 8 J d m Q 0 Y b A U y   & T u w p p i w ..o   X o   > b @.; 8 U 9 J : ; n M M M V ~ *.B B c j k +.H l.iX6 N c V ",
"- e *   . Y L L ) * = O   w e & 5 *.V ' ~ s > [ W k ; r # 3 w o.-.n M > 6 Q K U e e ^ D 7 +.S t I S & i : A q / F ; 8 J ( W ] @.b 8 % Y & r U ;   X % w % i = p o   @ * @.#.J : $ ; 6 @.D > s Q k M ~ C Z s d [ c 7 g # & m 6 N ` ' ",
"g e O = X * v S S i w = * o.j W ~ W ' [ h 5 B B h k @.U z U y r h h m s 0 H g U Y ^ A : T , e i p * ..I   * l   @ @ g A j v j s Q ^ g > +.Y > l X.  p o @   # : A y @.#.U 4 r 8 F Q k 0 s Q Q > X s c C V d V C c c ( ; G n *.*.' c ",
"% = = =   w % o X $ p p X t ! ` d W k 5 1 E -.G j 9 j # X o # # 5 g J f o.Y S ; U r & T X   O     * = * @ i o i f w D Q ( 9 f A F @.+.+.l g H 3 , X X @ # U +.h 0 b g 2 % r T r > ] ! [ m f _ h ^ D B k 7 ( [ B Z d B s ` ~ ~ V ! V ",
"=     O   $ * X   o   X ; W c V V n ; 5 *.h s > 5 $ > > T ; 2 2 # 3 X : , @ X i g y H y w X X O *     X ..o.S b D G > G J ) H D : ; ; & $ y l J ] ^ J J #.] 0 @.6   @.+.U ..H : ) D D ( D 9 h A 2 D Y D y ; [ B c d [ ! [ M Q 7 6 F ",
"O O   =     O o % $   l ) ( M ~ G k E ^ z # s _ ) D l g r : ) S i w @ X @ % X   +.2 A S l o i I % i X   & 2 n [ ] G ( J 8 $ f 2 0 ) r i y l H ^ h t f @.j 2 ^ D [ l.A A 8 % 4 S f Y j 2 H l ) K l e   @ i z $ k d c W V d M ; ; F t ",
"  O   O O O   O < e D ( K s K 1 k s s 5 1 W [ d j g ^ 8 : b 0 g ..i @ w r l g l g H 5 X ; U A Y o.A S +.Y / L ] m 0 Q > 8 D ) 7 n Q ( F ) #.l r   w z H l ) @.h y S U T 2 # ; / F j y #.U w ; & I w * . = w y W V *.*.c { + N / y   ",
"X O       X     ) G M E 5 7 5 s ^ D k B E E d c s 5 # f ^ L F b X   S @.2 2 @.G f g t G ^ v l g o : y ] q 2 2 b n Q Y K f l ^ h [ b D t ) 2 4 +.o.X     X 3 : 8 4   X S #.S T L b ] L e #   &   @ = i O     X f *.<.N W +.g 6 R t 8 ",
".   O =   O I J ~ M k ~ _ E B E k k h E G 9 > E l r g A Y 2 v L > ] Y 0 ( h s n ( D ] G ! [ D f e 4 P 6 -.! 5.m n v g 8 $ : e , X : 3 X y , T o.i I w   X * + i I I X   = = T #.F F t 2 @ 4 U T i   = = .   % X 4 q b [ y u 6.] N ] ",
"% .     X X f ! B Z B V B k C d k B M [ Q h ) l   8 @.] 0 y 6 T S : 9 [ W G s s j n W W W 6 8 y u e 6 P ] ` A F 6 > g ; y U i z % i p w w ; 0 6 : : 4 # 4 + % * * #           @ : d P v P Y > : 8 T X w & *   w t R F o + S - R <.<.",
"& > # : ; ; E k s d s B B h s 7 B ~ ~ 7 # t 9 > H T o.4 , % +.#.U c.+.D D k @.[ ( Q h h t +.+.g H o.;.@.] F +.A R A u #.#.A ..X   yXiXiXuXv.iXv.iXiXv.v.c.v.c.v.v.v.z.c.z.c.v.s.s.x.z.c.5.5.-.[ [ { / R A U u S * 4 N b N { ` N 6.<.",
"z.5.z.z.s.s.s.s.x.g.x.p.*.;.v.;.E k @.D K g S K U e < % % # 3 : 3 e # # > +.l 9 5 l e $ r e o & r g 4 % u * u i . u u - &..       + . + * + % + * 5 q g q b N P F P L P [ ] { @.6.6.#.-.-.5.l.5.l.l.c.l.l.l.l.c.c.l.6.l.z.6.6.k.t.t.",
"q.9.;.2.,.0.g.b.d.~ c 1 ; 1 k 1 1 ; k ; # X < , $     i p * # w p * o X # $ $ # & < w i * X O @ + . . . + + + * . u i - + .   . . . * . . - + - + - - + + * + + + +     . - .   . .   . . . .                 & R ] z.s.t.k.k.k.k.k.",
"7.u.8.y.u.u.d.u.u.d.d.s.s.;.B k k # # 1 X X X X X X   X X e @       X X # ; # $ X # * @ X X X % o . . + u u . u - 4 - - &.. * . . w + @ - . - . * + . + .   .     . . X +       . .   . .                 X X ; 2 q d Z 6.t.k.k.j.f.",
"r.7.r.8.r.w.0.u.u.x.d.d.x.g.x.x.v.z.p.;.s.;.;.5.5.;.;.p.5.6.6.;.5.5.-.;.-.E E 7 $ 1 $ # 1 : # X   X X $ # : ; 6 2 s 2 : 4 X   X , # & X X   X X .   X X       X X $ ; & & 8 : > 2 5 5 5 6 9 0 s h D +.;.-.;.5.z.s.s.g.g.k.k.s.k.d.b.",
"r.r.u.u.u.0.f.i.g.u.g.g.u.u.d.b.d.g.g.g.b.d.x.x.x.p.a.w.r.d.r.a.9.0.r.i.0.g.x.g.z.;.;.p.z.z.5.l.c.c.z.c.z.z.x.5.g.5.a.;.@.-.@.[ ^ E ( ^ ( [ ( _ Y ^ _ @.-.@.z.l.c.z.z.x.z.v.v.x.x.x.x.z.z.s.x.z.s.z.p.s.p.a.a.a.j.k.s.k.j.v.s.v.x.g.",
"u.w.w.0.u.u.0.8.y.u.0.0.u.d.0.d.d.a.u.h.h.d.0.d.0.w.8.y.w.3.w.f.u.w.u.w.i.f.8.h.8.u.h.u.y.r.8.d.d.p.a.d.a.a.d.a.e.f.r.f.g.9.0.p.0.s.z.d.p.p.p.s.x.s.d.p.d.a.q.q.e.e.9.a.t.e.s.e.e.e.a.9.e.9.e.t.9.t.e.9.s.e.s.t.7.t.t.s.t.t.k.s.g.d.",
"w.u.u.w.u.u.r.u.u.h.u.0.u.u.d.0.a.d.h.h.i.h.u.u.d.8.u.i.i.i.j.i.i.u.u.i.i.u.i.i.y.i.i.y.4.i.4.4.y.h.8.8.8.2.8.8.2.w.1.8.1.8.8.h.8.0.h.0.9.9.9.q.r.9.0.0.q.8.1.8.e.t.r.r.e.9.e.e.e.7.t.7.t.7.t.t.r.w.r.f.t.t.a.f.f.t.g.t.t.k.k.t.d.d.",
"u.d.h.i.i.y.y.h.u.u.h.u.i.i.i.g.u.g.i.i.i.i.i.d.d.i.i.y.u.u.y.w.i.y.y.w.y.y.8.u.h.u.h.h.y.h.1.y.i.4.4.3.1.8.w.8.w.y.1.y.y.2.2.2.y.t.r.w.w.9.e.0.9.9.9.9.7.7.7.2.9.7.e.7.7.r.t.7.9.9.9.r.w.e.7.w.7.t.r.t.f.t.t.r.t.j.j.k.f.j.f.t.b.x.",
"u.h.i.h.i.i.y.y.h.u.i.y.h.y.y.h.h.8.y.u.u.h.h.i.y.u.y.y.y.y.8.w.1.w.4.y.y.w.i.1.8.h.8.8.y.h.h.1.4.4.4.4.i.w.w.u.u.u.8.3.1.w.y.4.y.3.u.t.r.r.9.9.9.q.7.9.7.7.9.9.7.2.e.7.7.e.e.t.u.d.r.r.w.t.u.f.t.r.w.r.t.a.t.f.j.f.f.j.j.f.j.j.h.b.",
"i.b.h.y.h.h.4.4.h.h.u.4.4.4.y.y.4.y.y.3.h.h.h.1.h.1.h.y.y.y.3.y.3.y.3.3.h.1.h.1.h.2.2.1.1.h.1.1.1.2.4.4.1.w.3.y.w.2.2.3.2.,.2.2.2.2.1.2.2.2.7.2.2.9.2.7.7.7.2.7.7.2.t.8.9.8.9.7.0.q.q.0.r.t.w.u.u.w.r.r.r.e.9.e.7.e.e.e.r.r.a.q.;.i.",
"4.h.4.i.h.h.4.4.i.h.h.i.y.i.i.y.4.y.i.i.y.y.h.4.h.4.8.h.y.8.3.y.3.4.y.2.y.i.i.u.y.i.u.u.1.h.1.8.1.1.1.4.*.*.1.*.,.2.2.w.1.u.w.8.w.w.f.i.u.w.9.7.9.2.w.u.8.8.r.u.r.r.r.r.8.w.r.f.b.d.u.d.r.w.w.f.y.t.w.0.e.r.r.0.a.t.f.d.r.e.9.t.h.d.",
"h.h.h.h.i.b.4.4.4.4.4.1.4.2.4.4.y.y.y.3.w.w.w.y.4.h.y.u.u.y.y.u.y.2.w.w.y.8.8.8.8.2.2.2.8.8.*.*.2.1.y.w.w.r.7.r.w.8.9.w.8.d.w.9.7.2.7.9.7.q.7.9.w.7.,.2.r.d.9.9.0.0.u.d.u.d.0.u.0.q.0.d.d.d.d.h.w.y.u.a.9.9.0.d.r.d.u.w.8.2.2.w.h.d.",
"h.2.h.2.4.i.4.2.*.2.1.1.4.4.1.1.1.3.w.w.y.u.y.2.1.1.8.w.w.w.3.2.8.w.w.w.r.u.f.u.y.*.r.g.0.u.b.9.k.k.f.f.r.2.w.u.w.8.8.w.7.0.9.r.r.r.r.r.a.r.e.r.9.9.w.r.q.q.a.a.d.0.0.q.q.9.q.q.0.q.0.a.;.0.q.;.d.0.q.0.a.r.0.0.r.d.r.w.w.r.r.7.h.i.",
"1.1.2.4.i.*.h.4.4.4.8.h.y.u.i.u.r.f.f.f.r.7.9.r.r.w.r.0.w.w.w.7.w.t.7.u.r.w.8.i.u.8.8.8.8.q.8.2.w.,.8.d.d.0.8.0.*.y.w.2.2.9.q.2.7.7.r.w.e.r.9.9.q.8.e.7.9.0.0.d.a.q.8.0.q.9.q.q.8.q.q.y.u.h.q.9.9.0.0.0.9.9.a.j.a.r.9.e.e.9.p.g.;.i.",
"4.h.h.h.*.h.h.h.y.4.1.8.8.1.1.y.r.w.0.9.e.r.a.r.f.r.r.9.e.r.w.r.7.1.w.r.w.f.8.2.8.u.8.u.u.d.w.r.d.t.r.r.u.0.0.u.q.8.2.2.8.u.0.w.u.u.r.9.9.9.q.7.8.r.w.w.0.0.a.h.4.;.q.q.0.u.d.d.q.h.8.;.q.a.9.a.6.9.a.9.9.e.e.7.e.t.9.9.a.s.z.s.h.h."
};
