/* XPM */
static char *_ae7e2fa82dc44b48dd57b2cb4ad6412PoQeMutf3k0NyGx6[] = {
/* columns rows colors chars-per-pixel */
"2 32 62 1 ",
"  c #232710",
". c #293811",
"X c #384720",
"o c #3A443C",
"O c #415029",
"+ c #364A41",
"@ c #3F5151",
"# c #4A544C",
"$ c #485A4C",
"% c #495D54",
"& c #4A635F",
"* c #636750",
"= c #676B54",
"- c #6C7B54",
"; c #72765F",
": c #4C6561",
"> c #5E7070",
", c #617365",
"< c #678482",
"1 c #648191",
"2 c #658292",
"3 c #69859D",
"4 c #6A869E",
"5 c #5880B1",
"6 c #5981B2",
"7 c #5B82BB",
"8 c #5C83BC",
"9 c #5D84BD",
"0 c #6586A7",
"q c #6987A3",
"w c #6B89A5",
"e c #6687A8",
"r c #6186B2",
"t c #6287B3",
"y c #7C9DBE",
"u c #7D9EBF",
"i c #6087C0",
"p c #6D95C6",
"a c #6C93CC",
"s c #6E95CE",
"d c #6F96CF",
"f c #759AC6",
"g c #779CC8",
"h c #7299D2",
"j c #819E9C",
"k c #92A496",
"l c #97A199",
"z c #809DAD",
"x c #819EAE",
"c c #85A2A0",
"v c #8BA4A0",
"b c #8DA6A2",
"n c #9CB0A7",
"m c #9EB2A9",
"M c #84A0B8",
"N c #85A1B9",
"B c #82A0BC",
"V c #83A1BD",
"C c #ADB7AF",
"Z c #A1B3B3",
"A c #C8DACC",
"S c #D7E9E9",
/* pixels */
"p5",
"p5",
"d8",
"a7",
"d9",
"hi",
"fr",
"gr",
"u0",
"ue",
"Vw",
"Vq",
"M3",
"N3",
"x1",
"x1",
"c<",
"j<",
"v:",
"b&",
"n+",
"m%",
"Co",
"l#",
"k,",
"A$",
"S@",
"Z>",
"*;",
" =",
"X-",
"O."
};
