/* XPM */
static char *_5494_6ed85ecd86e87a91c5de0c4905bf3235a1727d26efb24748ebc8873fa25ac012[] = {
/* columns rows colors chars-per-pixel */
"32 32 231 2 ",
"   c #020502",
".  c #0A0600",
"X  c #091300",
"o  c #061601",
"O  c #141B01",
"+  c #151806",
"@  c #0D1D15",
"#  c #1D2400",
"$  c #192505",
"%  c #1F3000",
"&  c #1A2215",
"*  c #23290C",
"=  c #252806",
"-  c #293804",
";  c #242917",
":  c #2C3415",
">  c #2D3919",
",  c #31361B",
"<  c #373B16",
"1  c #393E00",
"2  c #142020",
"3  c #1E3229",
"4  c #282D24",
"5  c #2C3A2C",
"6  c #373928",
"7  c #2E3A33",
"8  c #413A15",
"9  c #394A08",
"0  c #3D431C",
"q  c #3B4718",
"w  c #2F4016",
"e  c #39432B",
"r  c #394725",
"t  c #364A2F",
"y  c #464917",
"u  c #49541B",
"i  c #515112",
"p  c #5A611D",
"a  c #464827",
"s  c #485429",
"d  c #545C2C",
"f  c #575B29",
"g  c #454837",
"h  c #4B5935",
"j  c #5A5B32",
"k  c #565D3E",
"l  c #544935",
"z  c #566329",
"x  c #586635",
"c  c #6B6B29",
"v  c #73752D",
"b  c #626332",
"n  c #666B3B",
"m  c #6C7434",
"M  c #69743D",
"N  c #787A39",
"B  c #736E37",
"V  c #3C5246",
"C  c #454C45",
"Z  c #485846",
"A  c #575A48",
"S  c #514F50",
"D  c #475C54",
"F  c #5C5D58",
"G  c #655B47",
"H  c #58684A",
"J  c #5E6D5C",
"K  c #636C44",
"L  c #666A49",
"P  c #6F7C49",
"I  c #697547",
"U  c #767748",
"Y  c #667656",
"T  c #7A7E59",
"R  c #767A53",
"E  c #686552",
"W  c #5A6865",
"Q  c #577376",
"!  c #646A6A",
"~  c #687867",
"^  c #737B6B",
"/  c #687878",
"(  c #777974",
")  c #827D5D",
"_  c #867F6C",
"`  c #7C8145",
"'  c #7B824B",
"]  c #6F8053",
"[  c #758352",
"{  c #7C8A5C",
"}  c #7A8557",
"|  c #6F806D",
" . c #768564",
".. c #788575",
"X. c #86813D",
"o. c #858947",
"O. c #868958",
"+. c #88955A",
"@. c #949457",
"#. c #8A904A",
"$. c #848D6A",
"%. c #898964",
"&. c #8A9465",
"*. c #899765",
"=. c #959576",
"-. c #8D9D79",
";. c #90A17F",
":. c #A3A576",
">. c #737B84",
",. c #587AB5",
"<. c #7B929D",
"1. c #789E9F",
"2. c #71878C",
"3. c #5C84BD",
"4. c #5A88BD",
"5. c #5881B5",
"6. c #7A98A9",
"7. c #628DBE",
"8. c #6285BC",
"9. c #728CB7",
"0. c #6B90BB",
"q. c #7694B5",
"w. c #6E91AD",
"e. c #7EA1BD",
"r. c #5E85C3",
"t. c #5D8BC4",
"y. c #5E88C8",
"u. c #5E91C8",
"i. c #6186C2",
"p. c #638BC4",
"a. c #6A8DC6",
"s. c #6186C9",
"d. c #648CCA",
"f. c #6B8ECB",
"g. c #6886C2",
"h. c #718DC6",
"j. c #6594C5",
"k. c #6B94C5",
"l. c #6A99C6",
"z. c #6592CD",
"x. c #6B94CB",
"c. c #6D9ACC",
"v. c #6699C8",
"b. c #7194C4",
"n. c #7196CB",
"m. c #729BCE",
"M. c #6B95D3",
"N. c #6D9AD4",
"B. c #6A95D9",
"V. c #6C9BDB",
"C. c #6594D2",
"Z. c #739CD2",
"A. c #729DDB",
"S. c #769AD4",
"D. c #688FD0",
"F. c #7CA2C6",
"G. c #76A1CD",
"H. c #7BA3CC",
"J. c #6FA2DB",
"K. c #6FA6DA",
"L. c #75A2D5",
"P. c #75A3DB",
"I. c #7AA5DB",
"U. c #73AADD",
"Y. c #7AAADC",
"T. c #77A5D4",
"R. c #7CACE3",
"E. c #78A7E2",
"W. c #7DB2E7",
"Q. c #8A9989",
"!. c #82989A",
"~. c #939C91",
"^. c #9CA58D",
"/. c #8DAA98",
"(. c #9AA698",
"). c #AAA98C",
"_. c #A7AF93",
"`. c #ADB792",
"'. c #8498A4",
"]. c #809DBD",
"[. c #8AA5AF",
"{. c #96A8A6",
"}. c #87ABB7",
"|. c #96A9B8",
" X c #9BB5BA",
".X c #ABB7A4",
"XX c #B0B9BE",
"oX c #D0CFA3",
"OX c #C5C7B7",
"+X c #D7DAAB",
"@X c #86A5C6",
"#X c #84ACDD",
"$X c #84A9D6",
"%X c #83B4DA",
"&X c #89B4D4",
"*X c #8FB4D1",
"=X c #A6BBC5",
"-X c #A0BFDC",
";X c #83ABE2",
":X c #83B3E4",
">X c #89B8E6",
",X c #97BCEA",
"<X c #9DC2DD",
"1X c #B5CBD7",
"2X c #ADC3D2",
"3X c #9EC2EC",
"4X c #9FCAEC",
"5X c #9FC9F1",
"6X c #A4CAEB",
"7X c #ABCCED",
"8X c #A7C9E5",
"9X c #B4CEE5",
"0X c #B7D4E8",
"qX c #A5CCF2",
"wX c #B2D3F4",
"eX c #C2CCC5",
"rX c #C0CECF",
"tX c #C9D3D3",
"yX c #D1DCD4",
"uX c #DADDCA",
"iX c #C7DBEA",
"pX c #C1DBF1",
"aX c #D2E9E9",
"sX c #CDE2F5",
"dX c #C6E4FD",
"fX c #D2E8F7",
"gX c #D9F3FF",
"hX c #C8E3EA",
"jX c #EAFBF8",
"kX c #FAFCF8",
"lX c #E4EEEF",
/* pixels */
"b.k.k.k.l.j.k.n.h.h.f.d.j.7.8.g.g.i.s.s.4.4.8.8.8.3.,.,.,.,.,.,.",
"h.n.k.c.l.l.k.n.h.h.f.d.p.7.p.p.p.p.r.p.p.3.5.8.3.r.3.3.r.3.,.,.",
"n.n.n.N.m.l.k.b.h.f.f.d.j.7.p.g.i.i.4.4.3.p.i.r.r.y.s.s.y.p.r.,.",
"S.m.Z.Z.m.n.b.k.f.k.j.a.p.p.p.7.a.p.t.t.8.3.s.s.y.s.s.s.s.s.r.r.",
"Z.Z.Z.m.m.n.n.k.k.l.k.a.a.p.p.p.i.g.t.4.7.a.s.r.s.s.p.p.s.p.p.r.",
"L.Z.G.c.m.n.n.m.k.l.k.j.a.d.d.p.9.9.0.0.7.4.d.s.p.p.p.t.t.t.y.y.",
"S.L.m.m.N.S.S.n.c.l.l.l.j.k.f.0.<.W Q w.k.p.f.d.d.d.j.t.t.t.s.d.",
"L.S.Z.m.Z.N.S.S.c.x.l.j.k.k.f.6.~ Y / <.0.p.f.p.d.d.u.t.u.t.d.d.",
"L.T.S.S.Z.m.m.c.S.c.N.v.x.c.b.!.[ m ' ^ q.n.k.a.f.d.z.d.u.u.d.D.",
"H.T.T.L.J.c.m.m.N.S.c.j.x.b.q.2.o.N c ) <.q.x.z.z.M.d.d.u.C.D.C.",
"I.L.L.L.L.G.G.m.S.N.J.L.V.b.!.^ ` o.X.O...'.k.C.x.z.x.M.z.D.C.B.",
"I.I.I.L.L.L.G.S.S.N.v.c.n.}.Q.&.N v c N R ^ F.V.M.C.N.M.C.C.B.V.",
"E.I.I.T.T.L.T.S.Z.A.m.H.q.[.-.m N v N c N $.w.N.Z.B.B.B.B.M.V.V.",
"E.Y.I.I.I.I.L.L.L.L.Z.m.}.~ [ ` N m 9 @.o.s ..@XS.A.A.V.V.V.V.V.",
"Y.Y.R.I.I.L.I.P.J.J.T.}./.{ ' ' U y f @.f { w Q F.P.J.J.V.A.K.K.",
"Y.Y.R.E.I.#XE.P.U.U.H.6.Y M 9 P c ' f 9 n M M H [.F.H.T.P.P.K.K.",
"W.R.;X;X#X$XR.E.U.U.}./.] ' &.w d u #.p #.o.m z D }.}.$X#XE.E.U.",
":XR.R.:X#XY.R.R.R.%X1.t -.O.Y d O.z p m y c ` z ;.| ^ [.$X#XY.:X",
"W.W.%X%X#X#XW.W.W.H. X^ s n z I z z #.u U   q k s t { Q. Xw.@X*X",
">X%X$X&X>X:X:X>XW.<X XY L y M x ] I % K 4 t H O Y > [ { (.<./  X",
"jXgXwX,X>X>X:X>X<X&XV ] a I - R ] o > L g 5 4 D @ o x &.^...~ ~.",
"1X9X7X,X>X3X>X>X<X}..X] $.T I # K `., + ; V 2.'.Q.& y x ).=.R T ",
"-X-X,X6X3X3X7XgXaX| x { k Z Z (.K T L 6 4 C 4 @   F = j ).%.O.R ",
"-X6XqX3X6X7X8X0X/.w h Y (.t V e $.O , ; 4 & C 7 (.uX8 oX%.) =.< ",
"8X6X6X3XqX6X6X7X1XD Y e / / D C H e   ~.A Z ! eXkX).`.#.O.R + . ",
"9X0XwX9X6X7XdX8XiXhXQ aXfX<.{...| J & g Q.o 6 lXyX.X=.+Xf < + + ",
"2X{.2XiXpX9XdXpX0XpXfXiX0XgXaXD W !   ! yX{.2 ! 1XeXOXO O + 6 ; ",
"C F S ! >.>./  XsXhXsXfXsXiXhXtX~.( 6 kXtXlXeXOXyX.Xs * O ; e   ",
"G l E G G C 6 4 C Q.F ! ( =XOX .A E _ OX6 Q.=.=.`.) :.n j a O # ",
"= l 8 a l 6 = a : & * ; & + , = : R =.. : L U ) p ) b U U j a s ",
"= . e * < w > > - # q K &.*.*.+.+.+.O.%.R [ { U O.f 8 = B @.f < ",
"> 6 , e s r h q h z z u 9 9 9 - % - # O % = - < < y a j i i 8 < "
};
