/* XPM */
static char *_3921_1fd2e33301dd01e1c17ec122428fa4bb23c83b48b1d58bdad6ab633cba21db3c[] = {
/* columns rows colors chars-per-pixel */
"48 64 245 2 ",
"   c #040B01",
".  c #080B01",
"X  c #0B1503",
"o  c #111403",
"O  c #141C03",
"+  c #181B09",
"@  c #171B14",
"#  c #101008",
"$  c #132300",
"%  c #1C2806",
"&  c #1A2318",
"*  c #172A06",
"=  c #222C03",
"-  c #262B08",
";  c #293509",
":  c #363A0A",
">  c #232B13",
",  c #2A2C14",
"<  c #252819",
"1  c #2C331B",
"2  c #333B1C",
"3  c #34361A",
"4  c #342E13",
"5  c #1F2D25",
"6  c #1E312F",
"7  c #2C3426",
"8  c #333B25",
"9  c #363A28",
"0  c #273635",
"q  c #2B3128",
"w  c #221B15",
"e  c #443A18",
"r  c #463E2F",
"t  c #374208",
"y  c #394418",
"u  c #3F511D",
"i  c #3A4627",
"p  c #3B4738",
"a  c #3E513B",
"s  c #47490D",
"d  c #454A18",
"f  c #49531B",
"g  c #555819",
"h  c #40500F",
"j  c #5D671C",
"k  c #64651D",
"l  c #434C23",
"z  c #464929",
"x  c #4A5627",
"c  c #565928",
"v  c #464938",
"b  c #495536",
"n  c #555935",
"m  c #574935",
"M  c #685C38",
"N  c #614F2B",
"B  c #5B652A",
"V  c #5A6637",
"C  c #676A2B",
"Z  c #6B732B",
"A  c #73772B",
"S  c #646B33",
"D  c #6C6D32",
"F  c #636C3C",
"G  c #68673A",
"H  c #6B733B",
"J  c #6B7638",
"K  c #737C3C",
"L  c #767638",
"P  c #746C33",
"I  c #635D1F",
"U  c #3B4D49",
"Y  c #464D46",
"T  c #4A5646",
"R  c #555A47",
"E  c #4C5A55",
"W  c #4B5454",
"Q  c #685A42",
"!  c #705F41",
"~  c #5B6646",
"^  c #5D6658",
"/  c #4F635A",
"(  c #636C43",
")  c #6A6C4A",
"_  c #6C7647",
"`  c #737C43",
"'  c #777A49",
"]  c #656558",
"[  c #697658",
"{  c #757A58",
"}  c #746548",
"|  c #445665",
" . c #5B6A69",
".. c #586C6E",
"X. c #636D67",
"o. c #687768",
"O. c #767968",
"+. c #687678",
"@. c #767D78",
"#. c #847F38",
"$. c #827D4E",
"%. c #7C8338",
"&. c #7A844C",
"*. c #7A8547",
"=. c #7A8453",
"-. c #7A8658",
";. c #6D814E",
":. c #798668",
">. c #7A8578",
",. c #83843B",
"<. c #868749",
"1. c #86924A",
"2. c #868957",
"3. c #88945A",
"4. c #969555",
"5. c #92A25D",
"6. c #858A67",
"7. c #8A9368",
"8. c #949768",
"9. c #899675",
"0. c #959578",
"q. c #8B8B77",
"w. c #9CA578",
"e. c #99A06C",
"r. c #A8AB78",
"t. c #ADB37E",
"y. c #A39A66",
"u. c #6D7D87",
"i. c #5A7EBA",
"p. c #567AB4",
"a. c #768688",
"s. c #758996",
"d. c #79939B",
"f. c #6D8A95",
"g. c #5C82BD",
"h. c #5D89BE",
"j. c #7B97A7",
"k. c #628ABE",
"l. c #6A8CBB",
"z. c #7799B7",
"x. c #6F90B1",
"c. c #7BA0B2",
"v. c #5E85C2",
"b. c #5E8AC2",
"n. c #5E8CCB",
"m. c #5F91CE",
"M. c #6286C4",
"N. c #628BC5",
"B. c #698DC4",
"V. c #6087C8",
"C. c #638BC9",
"Z. c #698DCA",
"A. c #6887C7",
"S. c #6A92C6",
"D. c #6592CC",
"F. c #6C95CA",
"G. c #6E99CC",
"H. c #6792C5",
"J. c #719ACD",
"K. c #779DC3",
"L. c #638DD1",
"P. c #6596D3",
"I. c #6A94D3",
"U. c #669AD3",
"Y. c #6C9BD4",
"T. c #6D96DA",
"R. c #6C9BDA",
"E. c #739DD1",
"W. c #719EDC",
"Q. c #7AA4C9",
"!. c #6EA1D6",
"~. c #75A1D5",
"^. c #78A3D5",
"/. c #76A4DA",
"(. c #78A6DB",
"). c #7AAADD",
"_. c #79A9D7",
"`. c #7DB2DE",
"'. c #709FE2",
"]. c #73A3E2",
"[. c #7DACE2",
"{. c #7AAAE7",
"}. c #7EB1E6",
"|. c #848B86",
" X c #879689",
".X c #879899",
"XX c #8D9691",
"oX c #9CA283",
"OX c #94A595",
"+X c #A9AE90",
"@X c #849DB0",
"#X c #8AA4A9",
"$X c #96A8A9",
"%X c #87A8BA",
"&X c #99AFB9",
"*X c #A3ADA5",
"=X c #ACB8AF",
"-X c #BBC39A",
";X c #B9C4B6",
":X c #C9CFB7",
">X c #C9C596",
",X c #88ABC5",
"<X c #99B9C7",
"1X c #84ADDD",
"2X c #86B5DD",
"3X c #92B0D3",
"4X c #A6BAC5",
"5X c #83AEE3",
"6X c #80AEE9",
"7X c #85B2E3",
"8X c #8AB3E4",
"9X c #85B2E9",
"0X c #89B9E6",
"qX c #99BDE6",
"wX c #98C2DA",
"eX c #ACC2CA",
"rX c #ACC3D5",
"tX c #B7C9DA",
"yX c #B5C4C9",
"uX c #9BC4E9",
"iX c #91C2EB",
"pX c #A3C5EC",
"aX c #A4CAEC",
"sX c #ABCDEB",
"dX c #A7C6E6",
"fX c #B3CEE8",
"gX c #ABD1EC",
"hX c #B9D3EA",
"jX c #B7D3E7",
"kX c #A7CBF2",
"lX c #B6D3F4",
"zX c #AED1F3",
"xX c #C5D4DC",
"cX c #CBD5D0",
"vX c #D4E1D5",
"bX c #C6D9E7",
"nX c #C4DBF4",
"mX c #CEDAED",
"MX c #DAE6E9",
"NX c #CAE4F8",
"BX c #D7EAFA",
"VX c #D4ECF6",
"CX c #E9FCFE",
"ZX c #EBF5EF",
"AX c #E3EBD3",
/* pixels */
"H.S.S.S.F.B.F.A.B.F.B.F.S.S.B.B.S.C.B.l.B.N.A.A.V.b.b.v.A.A.i.h.h.k.v.v.i.i.g.g.i.i.i.i.p.p.p.p.",
"H.S.S.F.F.F.F.K.S.F.F.F.F.S.S.B.B.H.B.N.l.N.N.A.V.b.b.k.A.A.k.g.v.g.v.v.v.g.g.g.i.g.i.i.i.i.p.p.",
"F.F.G.G.J.F.F.F.F.F.F.B.S.S.S.S.B.N.B.N.k.k.N.N.M.h.h.k.A.i.h.h.v.v.v.v.v.v.g.g.g.i.M.i.i.i.i.i.",
"F.F.G.G.F.J.J.F.F.K.F.F.S.S.S.B.B.S.N.N.k.k.N.N.k.k.k.k.k.M.h.b.v.v.v.v.v.v.h.v.M.g.k.i.i.i.i.i.",
"J.J.J.K.J.J.J.F.J.F.G.S.S.S.S.B.B.B.N.H.H.h.k.k.k.k.k.k.k.k.k.v.v.v.v.v.v.v.v.v.V.M.v.v.V.g.g.i.",
"J.F.J.J.J.J.J.J.F.G.F.S.S.S.S.B.B.B.N.N.b.b.k.k.k.k.M.N.k.M.v.v.v.V.v.v.v.v.v.v.V.A.v.v.g.V.g.g.",
"J.J.J.J.J.J.J.J.J.F.G.S.S.S.S.l.N.B.H.b.b.b.N.k.M.k.N.V.A.M.M.V.v.M.M.v.v.M.V.M.V.V.V.V.v.v.v.v.",
"J.J.J.J.J.J.J.E.F.J.G.F.F.F.H.H.H.H.H.m.H.b.N.N.N.M.n.v.M.M.V.V.M.M.v.M.M.V.V.v.Z.V.V.V.V.V.v.v.",
"E.E.J.J.J.J.J.J.J.F.F.F.F.S.S.S.B.C.H.C.C.C.N.b.N.b.n.V.v.b.n.n.b.v.b.v.v.v.N.v.n.C.V.v.V.V.V.v.",
"E.E.J.J.J.J.J.J.J.J.F.F.F.S.S.F.C.S.B.B.Z.C.N.N.h.N.v.M.N.v.v.Z.N.v.N.C.N.V.C.N.C.C.C.C.V.n.V.V.",
",XT.,XT.J.J.J.F.K.F.F.F.F.F.S.B.N.S.B.B.Z.A.C.N.k.l.l.l.H.N.Z.b.C.v.N.v.N.C.C.C.C.C.C.v.v.C.V.n.",
"E.E.J.E.J.J.J.J.J.F.J.J.K.F.F.F.Z.F.B.B.B.Z.C.N.l.x.f.j.l.N.B.N.N.C.C.C.N.N.N.C.C.C.v.C.C.C.V.V.",
"1XE.E.E.E.E.J.J.J.J.J.J.F.F.F.F.F.S.F.Z.l.H.H.k.x.f.o...x.A.A.B.C.C.C.N.C.C.C.C.C.C.C.b.C.n.C.C.",
"E.E.E.E.E.E.J.J.J.J.J.J.J.J.G.F.S.F.Z.F.H.H.H.k.x.o.] ~ @XA.B.A.N.C.C.C.C.Z.C.C.V.n.C.n.b.C.V.C.",
"E.J.E.E.E.E.J.E.J.E.J.J.J.J.G.F.S.S.S.S.H.H.D.z.a.] n { s.K.B.L.C.C.C.C.C.N.C.C.C.C.n.N.C.n.C.C.",
"1X1XE.E.J.E.E.E.J.J.J.J.F.F.J.G.J.F.S.S.G.G.D.z.o._ $.$.$.s.z.F.C.D.Z.C.D.D.S.C.Z.C.C.C.n.C.C.V.",
"J.E.E.E.E.E.J.E.J.J.J.J.G.G.G.G.G.F.G.l.G.G.H.d.-.<.$.' $.q.x.I.D.Z.F.C.n.D.D.N.Z.Z.L.L.n.n.L.L.",
"1XE.E.1XE.E.J.E.J.J.J.J.J.J.G.G.J.B.G.G.G.l.Q.f.D ,.I <.$.{ j.B.S.Z.F.Z.U.D.D.D.Z.L.L.L.m.m.L.P.",
"J.E.E.W.E.E.,XT.J.J.J.J.G.J.J.G.J.S.J.S.U.z.d.:.1.A ,.,.$.{ s.z.F.Y.L.I.I.D.D.F.L.Z.D.C.m.D.D.P.",
"E.1XE.E.E.E.E.J.~.J.J.J.E.G.G.J.J.G.G.G.U.c.a.-.<.A %.Z P 6.>.@XS.I.I.I.D.D.D.D.L.P.D.D.D.D.S.D.",
"(.^.^.^.W.E.E.E.Y.J.~.G.J.J.G.J.G.Y.G.G.U.x.:.3.#.<.,.%.<.<.7..Xz.Z.I.I.L.I.L.D.D.P.D.D.D.H.F.S.",
"^.^.^.W.1XJ.1XE.E.~.J.~.E.J.J.J.E.E.E.Y.U.c.8.,.<.<.A ,.<.2.$.:.@XI.I.I.I.I.I.I.P.D.P.m.D.D.F.I.",
"(.(.^.(.E.W.E.E.E.E.~.E.E.Y.Y.J.G.E.Y.!.!.c.8.,.,.A C D C $.<.[ d.Q.F.U.I.I.I.Y.P.U.P.P.I.F.I.T.",
"(.(.^.W.1X1XE.E.E.~.E.E.E.J.E.G.E.E.G.!.Q.j.3.4.A ,.A L L L L { ..c.J.Y.R.P.Y.P.P.P.P.P.I.I.T.T.",
"(.(.(.(./.(.^.^.~.~.~.!.J.J.~.E.T.W.E.J.K.#X3.%.A %.A D D <.C <.>.#XJ.I.!.U.U.T.I.T.P.U.U.T.T.T.",
"(.(.(.(./.^././.~.~.~.~.~.~.~.Y.Y.E.E.Q.#X XJ %.j Z L <.D Z <.<.:.a.K.R.!.U.Y.T.T.T.U.U.U.R.'.T.",
").(.(.^.(.(.^.(.~./.~.!.~.!.!.~.~.G.K.d.:.7.;.` D <.S x <.<.<.C ) X.z.F.!.U./.I.T.R.U.U.R.R.R.R.",
").).(.).(.(.(.(./.^./.~.~.~.~.!.!.Q.%X X` A *.;.&.L _ : B ,.*.H x ^ d.,XG.~.U.T.W.W.!.!.U.R.!.'.",
").).).(.(.(.(.(./.~./.~./.~.~.~._.Q.#X7.*.1.%._ 8.f : f L &.t ` _ y / c.K.Q./.!.'.'.R.R.Y.~.W.W.",
").).).(.(.).).(.(./.(./././.~.~.Q.%X X3.%.A *.J S H S D H &.F 6.=.V i ..%XQ.!.!.!.'.'.'.!.^.W.W.",
"[.).).).].(.).(.(.(./.(./././._.Q.d.-.*.H x l =.C P A I ` x ) ~ V 3.( [ d.Q.!./.].].'.]././.].(.",
"[.[.).).).).(.).).(.)./._._._._.,X.XV 1.` _ ( V ' ` C f K t n ) J c V x a.,XQ./.].].].].].].E.W.",
"{.{.`.).).)._._.(.(.[.)._._._._.,X*X_ 5.B 8._ ( d c S K 1.1.*.S %.A S n ..%X,XQ.^.).].].]./.6X].",
"}.}.[.[.1X`.).).[.[.[.].)._.`.3Xd.9.:.-.&.` i ; V B c D t t 1.%.4.k &.V b >.OX&Xz.1X[.{./.{.].{.",
"[.1X5X[.`.).`.).).5X[.5X).)._.%Xo.F w.-.;.B i % ' J *.J g Z t j %.g B f +X;.;.;. X,X(.].{.).[.}.",
"2X1X7X[.7X[.).`.).[.[.[.[.`._.,Xi J *.=.-.-.oX) 2.Z t S j *.j Z t 5.-.x F -.%.*.q..X5X6X_.2X[.{.",
"8X8X8X7X9X}.`.`.[.}.{.[.[.1X7X,X:.;.B u V ( { ( _ V J 1.K *.K = $ V y l b a j %.7.OX3X3Xu.,X9X6X",
"5X8X8X7X9X9X[.`.7X[.}.9X}.}.9X3XOXS %.h [ x f _ l ' h B h t F x * b y ~ :.i u -.3. X%X3Xu.s.8X8X",
"2X2X9X9X9X6X7X2X7X7X9X9X9X0X`.,X-.*.S V x ~ ;._ F *.J t B b 8 i a p ] q T ^ = S 2.>.$X3X|.|.,XqX",
"wXwX0X8X8X8X7X0X1X7X7X7X0X}.wX,X~ *.V u ~ ~ =.d J =.n : ~ T < p @ o.q @ E v d *.2.:..X&X$.O.u.3X",
"CXCXCXdXqX8X8X9X`.2XiX`.0XiXf.>.V Z y V [ i =.-.F x % , v i R & E & a a 1 * + ' 2.oXa.$XO.$.u.4X",
"MXMXxXnXdXpX8X0XiX`.2XiX0XqXwX;.V ;.~ -.y l y f 7.b = 1 ^ >.v 1 o a E U 0 @ % c g $.*X*X{ Q XX$.",
"nXhXNXlXqXqXqX0X0X0X0XiXiX0XaX&X:.;.oX:.F =.t x e.;.B % q & v Y & 6 eXf.s.v ; f : $.+XoX8.8.) 8.",
"pXqXpXqXdXqXuXqXqXiXiX0XuX<X%X&X:.:.:.~ =.B ~ X b w.t.x 7 < . + >.d.f.| ..E - t M z 0.0.8.2.G ' ",
"uXiXqXpXqXpXqXqXqXlXNXNXtX&X>.[ =.K ~ V ~ 8 OXXX[ V *.: R q i 8 T Y 6 / @ ^ 8 X 4 l +Xq.$.2.2.$.",
"kXqXkXuXqXkXpXqXpXaXdXbXZX*X~ V 1.*.x b T a @. X-.n S { v 9 7 O 9 q & X @ ^ v b x 7.oXoX$.$.P $.",
"iXpXuXaXuXpXkXkXkXpXgXbXcX9.i f ~ V -.8 i b 7 O.6.{ b - R 1 , o & q Y & @ =X Xo ' +X$.2.} q.{ N ",
"iXkXaXuXaXaXpXpXkXzXaXlXOXu 1 _ O.[ ;X>.>.a 7 7 [ %   < > 9 b z z 9 >.W MXZX:X) +X>X' +X6.$.m - ",
"kXaXpXpXaXpXuXaXkXkXkXlX4X+.b ~ T p d.+.a.7 T / o.R i   r ] ) } Q , ] cXZXvX-X8.+X4.' 4.7.z o o ",
"zXaXkXpXkXzXsXaXgXaXkXlXlXmXU >.[ / a.| U  .X.a.] ^ +   q |.( - r @.XXBXZXyXoXt.1.8.r._ ; - + # ",
"gXaXzXzXgXkXaXsXsXzXaXsXjXjXeX/ &XrXNXrX| $Xo.o.-.b i & 0 0 a.O.+   |.mXVXcX9.r.8.>X7.: d + o w ",
"gXjXsXgXaXgXgXgXrXVXnXgXNXNXmXj.eXnXjXnXbXeXX.~ :. X:.  u. .u.@.# U mXmXfXbX;Xr.+X:X- 8 z o # # ",
"jXtXfXfXlXlXfXfXhXBXnXnXsXlXNXBXNXgXjXjXnX4X XT ^ o.$.@ | 6 @XxX X0 6 .XtXbXvX=XoX< < + 4 1 w < ",
"&X.Xu.|.4XrXnXxX&X4XbXfXhXhXjXjXjXnXbXVXBXCX=XO.>.@.w w | @XxX4X.XW 0 .XxXeX*X=XR . < w o Y # @ ",
"] O.W R ] +.XXu.+. ..XnXjXhXhXhXhXhXbXnXnXbXyX4XU W Y w u.BXmXmXxXu..X=XMX X+X-., + < w 9 3 # o ",
"v Q Q } } O.O.@.|.u.X.$XxXbXBXbXbXbXmXbXfXxXbXNXmX=X|.oX|.xX.XBXmXMXZXMXcX=X-X{ - b # o 9 v 1 o ",
"Q m m N ! } ] ] ] X.q T +.yXyX$X$X.X$XyXbXMX=XOX|.+Xq.oX*X$X/ =XMXcX*X:XAX=X3.6.R O.r 3 < o 7 < ",
"N N N $.Q ! m r r 4 7 9 & & Y 8 a b v Y OX=Xb ~ , 4 e y.0.q.8 > Y ] R ) ) 2.' 8.{ } { ) 4 + 3 o ",
"4 r Q r r m r Y r 4 9 1 i v $ 9 , , $ >   * a y X = $.<.e 1 b m m G G $.C L <.D $.s s r.: e : - ",
"w w 4 4 m r v r 9 3 , z $ 2 > , y b b b b n x y l 3.<.2.B   = x $.8.<.#.P $.D P L P #.P P M M N ",
"w + + m 8 1 9 + O 1 i b i i > 3 u f -.-.5.3.1.*.3.*.1.1.Z x g ; N e C c P N N 2.c 2.#.,.y.P : 4 ",
", , O > 1 1 p 2 n 2 * ; $ - ; d V %.%.%.%.%.%.Z Z %.J %.-.-.-.e.r.w.4.4.$.G c = . . s 4.k s f z ",
"7 8 z 4 ; * $ ; = : u u x u x H J V ;.B u u f u y ; y = ; y y l u x V J ( ) $.~ ( V f ` P f d - ",
"< % , : y V ;._ V V B u u x f u t = * * ; u f ; = t y * $ & % $ * $ $ O - O O $ = = : = : : 2 l "
};
