/* XPM */
static char *_2767_b821b732842596b827ad1f55e8b8539fa3fe0497b9539c1aed0d6f569235689d[] = {
/* columns rows colors chars-per-pixel */
"64 35 248 2 ",
"   c #020500",
".  c #020B00",
"X  c #0B0C02",
"o  c #041100",
"O  c #0C1400",
"+  c #0D1A01",
"@  c #0F100B",
"#  c #141C00",
"$  c #191E02",
"%  c #131704",
"&  c #1C1E12",
"*  c #152200",
"=  c #1C2301",
"-  c #1D2A03",
";  c #1C260B",
":  c #1E3205",
">  c #11220B",
",  c #232601",
"<  c #232B02",
"1  c #242D0B",
"2  c #27290A",
"3  c #243203",
"4  c #2B3503",
"5  c #2A3B02",
"6  c #2B340B",
"7  c #2A3908",
"8  c #333D0C",
"9  c #353A07",
"0  c #262B16",
"q  c #2D3A13",
"w  c #2B3414",
"e  c #343C14",
"r  c #333B1B",
"t  c #343818",
"y  c #1A292F",
"u  c #373D25",
"i  c #263930",
"p  c #2C4202",
"a  c #33420C",
"s  c #374709",
"d  c #344214",
"f  c #3B4414",
"g  c #3D4A14",
"h  c #36421C",
"j  c #3B441C",
"k  c #3E4B1B",
"l  c #364A15",
"z  c #385114",
"x  c #3C4524",
"c  c #3A4728",
"v  c #3A5427",
"b  c #355238",
"n  c #324539",
"m  c #1D453D",
"M  c #424C14",
"N  c #424B1B",
"B  c #474A1A",
"V  c #43531C",
"C  c #485717",
"Z  c #4E5912",
"A  c #4C621B",
"S  c #586716",
"D  c #57660D",
"F  c #64721B",
"G  c #434D23",
"H  c #464B27",
"J  c #495423",
"K  c #4C5A24",
"L  c #465229",
"P  c #4B542B",
"I  c #4C5B2C",
"U  c #455524",
"Y  c #535D2C",
"T  c #545B28",
"R  c #454A32",
"E  c #4B5835",
"W  c #535C33",
"Q  c #535A3A",
"!  c #54632C",
"~  c #576728",
"^  c #4C6837",
"/  c #5A6533",
"(  c #5B643B",
")  c #5A6837",
"_  c #5B7134",
"`  c #576D28",
"'  c #646B29",
"]  c #646D38",
"[  c #687637",
"{  c #6A742F",
"}  c #223949",
"|  c #315254",
" . c #345E71",
".. c #3A644C",
"X. c #53584B",
"o. c #5A6746",
"O. c #4B6B4B",
"+. c #646B44",
"@. c #697347",
"#. c #727C59",
"$. c #52786E",
"%. c #737E6F",
"&. c #4A5E67",
"*. c #728A35",
"=. c #7D8357",
"-. c #7B8646",
";. c #5D8476",
":. c #7B8366",
">. c #66877B",
",. c #849F37",
"<. c #8AA63E",
"1. c #8CAB3D",
"2. c #86A33C",
"3. c #91AF3C",
"4. c #838B56",
"5. c #879659",
"6. c #889548",
"7. c #8BA644",
"8. c #8DAA43",
"9. c #8CA54A",
"0. c #8EAA4A",
"q. c #86A443",
"w. c #91AD45",
"e. c #93AC4B",
"r. c #94A74D",
"t. c #8FB14A",
"y. c #94B245",
"u. c #94B14B",
"i. c #99B44C",
"p. c #8FA851",
"a. c #95AD53",
"s. c #9AAD53",
"d. c #98AD5A",
"f. c #95B252",
"g. c #9CB558",
"h. c #A2B55C",
"j. c #A6AB59",
"k. c #8C9266",
"l. c #98AB65",
"z. c #9CB566",
"x. c #A3B76A",
"c. c #A7B876",
"v. c #B1C975",
"b. c #3675B9",
"n. c #3B658A",
"m. c #4B7589",
"M. c #4F7BB4",
"N. c #627FAF",
"B. c #2B7CCD",
"V. c #287BC8",
"C. c #2D7CD2",
"Z. c #2C7CD6",
"A. c #337CD3",
"S. c #367DDA",
"D. c #3D7EDA",
"F. c #337DCA",
"G. c #407CDC",
"H. c #5A8B8E",
"J. c #6D9497",
"K. c #528EB0",
"L. c #6998B8",
"P. c #7194B2",
"I. c #71A6B3",
"U. c #2C82CE",
"Y. c #2781CF",
"T. c #3A89CC",
"R. c #2D82D3",
"E. c #2D89D5",
"W. c #2E85D9",
"Q. c #2E8BD9",
"!. c #3384D5",
"~. c #3B84D7",
"^. c #338BD5",
"/. c #3C8BD3",
"(. c #3383DA",
"). c #3B84DA",
"_. c #348CDA",
"`. c #3B8BDA",
"'. c #3C92D9",
"]. c #3D92CC",
"[. c #3C94E2",
"{. c #468AC8",
"}. c #5589C8",
"|. c #4A92CA",
" X c #5997CA",
".X c #438CDA",
"XX c #498CDB",
"oX c #458BD5",
"OX c #4393D4",
"+X c #4C93D5",
"@X c #4493DC",
"#X c #4A93DC",
"$X c #499AD9",
"%X c #5399DC",
"&X c #5C9CDC",
"*X c #5999D5",
"=X c #538CD5",
"-X c #678BC5",
";X c #679BC9",
":X c #789BC8",
">X c #6498D3",
",X c #7796CF",
"<X c #5CA1D7",
"1X c #6AA5CC",
"2X c #7BA8C4",
"3X c #63A2DD",
"4X c #6BA5D5",
"5X c #75A7DA",
"6X c #4A96E2",
"7X c #5498E3",
"8X c #4A8DE2",
"9X c #6AA7E3",
"0X c #77B0EB",
"qX c #5EA2E3",
"wX c #93A995",
"eX c #ADB891",
"rX c #8DACB3",
"tX c #959DAF",
"yX c #A3C1B5",
"uX c #CBCBB1",
"iX c #8D9ACD",
"pX c #99A6C8",
"aX c #8AA5D6",
"sX c #97A6D5",
"dX c #8DB0CB",
"fX c #A2ABD7",
"gX c #AAB6D9",
"hX c #B6B6D7",
"jX c #AFABC9",
"kX c #90B3E5",
"lX c #AABAE9",
"zX c #A09FC1",
"xX c #C3BAD4",
"cX c #B6C9DA",
"vX c #97C5F4",
"bX c #BAD6FC",
"nX c #B4CDF2",
"mX c #C9CBDA",
"MX c #C8C9E8",
"NX c #DCD6EB",
"BX c #C7D6F9",
"VX c #D9DAF8",
"CX c #D2CDE9",
"ZX c #E5D7E9",
"AX c #E4DAF4",
"SX c #DAE6FC",
"DX c #EEEEF8",
"FX c #DEDADD",
/* pixels */
"tXjXhXxXZXZXZXjXjXsXaXiXiXiXN.-X-X,XkXkXqXoXF.V.F.C.A.A.B.V.Y.B.Z.W.Z.C.C.B.B.Y.Z.C.C.C.C.C.B.V.Z.Z.C.C.A.A.A.C.C.A.S.S.S.S.D.G.",
"cXMXMXNXZXDXDXZXhXhXtXtXsXfXiXiXiXiXN.M.M.b.F.V.V.A.C.V.B.Y.B.Y.Z.Z.Z.C.R.B.Y.C.C.B.C.C.F.C.C.C.C.Z.Z.C.A.A.A.F.A.A.S.S.S.S.D.D.",
"BXVXMXjXNXAXZXNXCXxXmXxXfXMXiXiXfXlXgXfXiX-XM.A.F.B.Z.C.C.Y.R.!.Y.C.U.Y.R.R.R.C.A.U.U.U.C.Z.!.Z.Z.R.A.C.A.A.A.S.Z.S.S.S.(.(.).).",
"kXiXaXaXgXMXNXZXmXmXmXAXCXjXsXlXhXlXMXhXsXiXN.kX7XF.Z.Z.R.W.R.V.R.R.R.U.B.U.C.R.R.U.R.R.C.Z.S.W.!.!.R.A.!.A.!.(.S.(.S.).).).~.).",
"N.=X>X>X-XkXnXBXVXMXxXjXjXhXlXiXfXgXCXVXSXgX,X}.0X@X/.E.U.E.!.E.U.U.E.Q.R.W.W.W.W.R.E.Q.R.E.!.!.!.!.W.!.(.~.!.~.).S.).D.~.oXD.oX",
"=X=XXX{.=XM.M.M.N.lXVXDXAXxXlXhXhXhXzXpXgXbXbX Xb.F.U.E.!.E.U.E.E.U.E.Q.E.W.(.W.Q.E.Q.Q.E.^.~.!.!.!.!.^.~.~.~.`.)..X).D.oXoXXXXX",
"7X8X8X.XXX|.=X}.=XM.kXbXSXAXCXCXmXMXMXfXaX5X{.T.T.^.^.Y.E.E.E.E.^.^.`.`.~.!._.E.Q.Q.Q.Q.!._.^.`.`.).).)..X`.).`..X.XG.8X8X8X8X8X",
"8X8X6X8XXX#XOXOXOXoXM.K.iXgXVXMXcXgXlXaX}.=XT.Q._.E.].].].{.|.].K.|. X*X}.{.|.T.^.E._._._._.`.^._.`..X#X.X@X.X.X.X.X8X8X8X8X7X7X",
"6X#X#X7X7X6X#XOXOX].+XoX{.K.*X,X5X*X X>XqX/.Q.[.'.'.].K.K.K.H.H.H.H.;.| H.H.K.K.].].^.[._._.'.Q._.`.`.@X@X/.#X.X.X#XXX#XXXXX7X7X",
"%X%X&X7X7X%X%X$X@X$X+X+X@X@XT.oX].]./.].T./.'.].$XK.J.;.O.O.^ c h q : p : + m  .K.<X+X^.`._.'.[.'.'.'.[.@X@XOXOX@X#XoX+X*X=X*X}.",
" X&X7X&X*X%X%X%X$X$X X}.*X|.{.$X].'.'.].@XOX XK.I.;.O.^ I I d q + : q r E 3 c b | P.4X+X@X[.[._.[.`.[.[.[.6X'.6X6X#X+X}.,XlXiXkX",
"5X5X>X3X3X3X3X<XqX{.:Xn.n.;X%X].$X].$X|. XI.;.$.*.^ K C C a 8 j ( H e v +.Y P $ + $.J.L.1X|.|.|.{.+X/.6X@X'.'.@XoX%X9X>XkXbXnXnX",
"bXvX0X3X<X4X3X<X<X,X&.i | 1X*X7X$X$X1XI.;.;.o.I i l v v 9 9 9 ' N ! T N , $ r , + o i i m J.pXbXkX XvX9X X+X<X7X9X0X9X5XaX,XP.P.",
"dXdX5X5X5X0X4X<X4XJ.m.0 } n.4X<X4XI.H.b v a l s : z 8 3 e ] ] Y B B M J f W k , f ) ( k j < eXcX1X;XkX5X<X3X9X9X&X5X>X;X-XkXSXBX",
"1X4X4X5X5X5X1X2X1X .X.@ y H.2XI.H.O.v l p * a M ~ f 7 f T V e L N t ( W P / K I I ) J J G W r >.I. X;X X<X%X7X7X&X&X;X2XpXDXDXDX",
"dXrXP.I.I.rXI.I.dXtXn y } dXJ.O.v U z ! K ~ V ! C T K M T 4 G * , 6 6 # < 3 * K ! a 8 = , j : b | H.L.1X X<X&X>X&X4XI.cXFXuXeXuX",
"o.O.E L o.( ! ) :.yXwXwXrXcXb ^ v v V g ! g / 7 f M C [ T Z K J V J T ] U V k f a 7 / Y d d I - w i rXdXrX2XP.;X;X2XrXyXc.-.[ 6.",
"Z 9 B J , { ' S ! ( W #.wXO.I p p C 5 U T C < 4 / ] T a 4 M g q ] ' B ~ g K a K ) x 7 d 3 I k < ; H c >.H.mXSXDXcXrXwX_ F S D S ",
"Z T , X T 9 B B ! U ` ^ v l A l ! l v L + o a ] J , L - - < % E L G e e e N 4 f J K / / 7 d G - q * 3 v ( k.uXeX5.` S *.F F ` A ",
"[ 7 O $ P H 2 t h : A ` _ v v z k k G G K @.) Y e x w Q x c u c N G t T e M J N K Y U e I @.) L L ! C V K f / [ F F D D S Z p s ",
"j t W Q P t 2 & w f A A l : U f j 3 4 Y / d k L J ( 6 L q H P P G 6 J f U 4 ( H Q 1 1 r r r % h P j d k N N [ Z D S S { @./ ~ { ",
"t X $ o.Q % X $ + G [ ` 5 ) e - - h +.K d U w t G L j H + 1 G / $ Y Y ( d d 2 w # + ; 0 ;   O Q ( O 6 I - V s ` F s V z 3 ) M ` ",
"0 & X & & 0 & t _ A C 5 ) z x q 0 # h L E R H r t + % X u O = # 3 Y f e +.Q E x x . . < j j W , x q ) K K g a I z [ ~ Z p ' [ ~ ",
"X   X @ X   % ( A A p ` : g 3 d 1 c ; . .   k r H o & %   u H ] U U f d 1 * + L o.E @.P Q H +.x q h U k N I h ; q d s A ' Z , M ",
"        - s / a 5 z p p ] s a 7 k G 2 w 7 J M f , H Q u Q G N P T t N H ] W +.h t $ 0 R R 2 R H 2 W H T % . 0 + O 2 ] 4.~ 4 T $ ",
"    X , ` A A C V z A ! 7 d q W h U w E Y d C T ( W t $ f +.+.N x < 6 t $ O = t R $ X   % 0   X 6 f B , 2 c & @     , M M 9 T ' ",
"3 - , C A A ` ` z ) ^ q c u o.0 # +.o.P x ) ! E r Q u P +.Q P H w X.R $ R :.#.k.#.=.k.#.k.=.=.=.4.4.l.k.k.@.:.o.Q H G B 9 ' S 6.",
"l.z.a.x.v.*.z p A - a # # 1 . * + + *   + * + 3 - o o # . o + O 2 , X           X $ % $ $ , $ , , < < , 4 4 3 w 2 2 ] 4.j.j.j.j.",
"0.t.e.e.9.g.z.f.*.*.S C A Z z A ~ z C z g p o . . o o . . + O * * = . . $     . . . .     X . . X o . % o + * d M K ' { 9.s.h.h.",
"t.t.u.y.f.f.f.t.f.g.h.x.h.g.d.g.s.h.d.z.x.x.x.l.z.x.l.c.c.x.c.c.x.l.5.5.@.6.5.4.=.5.5.l.c.c.c.c.c.eXc.x.x.c.z.l.l.z.d.g.j.s.s.s.",
"t.8.u.w.i.u.u.t.f.g.t.u.u.g.u.g.g.f.f.u.i.f.f.g.d.u.u.t.u.0.7.9.9.e.0.0.f.f.a.9.d.p.a.5.p.p.a.9.9.9.9.p.0.r.0.s.s.d.s.s.i.h.s.h.",
"f.u.y.w.e.i.y.u.f.q.u.y.u.0.t.t.t.w.w.3.y.y.q.8.7.y.3.3.y.8.w.e.8.w.8.7.u.8.8.q.<.q.2.q.q.q.7.7.9.e.r.9.e.e.e.e.e.r.i.s.i.j.s.s.",
"y.y.y.u.y.w.y.y.i.w.y.i.w.w.w.w.w.y.w.w.w.w.w.w.7.<.,.1.<.,.,.2.1.7.8.<.8.0.w.7.r.2.r.0.e.0.e.0.e.u.e.f.a.a.e.r.0.9.0.t.s.9.0.r.",
"1.1.3.3.1.1.1.1.w.w.w.w.w.w.w.w.w.w.<.<.u.u.w.2.w.w.8.i.w.w.w.w.<.8.w.8.w.w.w.7.7.7.9.r.0.0.0.0.0.0.7.0.0.p.0.r.0.r.f.0.0.0.r.r.",
"1.1.1.1.1.8.w.w.e.w.w.w.w.w.w.7.w.w.w.w.w.0.w.w.w.w.8.w.w.e.r.8.1.q.8.7.r.w.e.q.7.9.0.7.e.7.7.7.0.7.q.q.7.7.9.r.9.r.f.7.9.r.s.r."
};
