/* XPM */
static char *_0596_b79c3bf9f37f0b8a87e0ae4c008d8b09f3947f5534109e1c9b603c79ff9f2dc7[] = {
/* columns rows colors chars-per-pixel */
"64 35 230 2 ",
"   c #000500",
".  c #040B00",
"X  c #090E00",
"o  c #0D1201",
"O  c #0D1802",
"+  c #041502",
"@  c #141C01",
"#  c #181E04",
"$  c #151A07",
"%  c #152201",
"&  c #1B2303",
"*  c #1D2A04",
"=  c #1C230A",
"-  c #192907",
";  c #1E3200",
":  c #132714",
">  c #222C04",
",  c #232C0C",
"<  c #23290A",
"1  c #253205",
"2  c #2D3A05",
"3  c #29340B",
"4  c #2C390B",
"5  c #283505",
"6  c #323C0C",
"7  c #313B09",
"8  c #23291D",
"9  c #292E18",
"0  c #272E12",
"q  c #2C3512",
"w  c #2C341A",
"e  c #2A3A16",
"r  c #333714",
"t  c #333D14",
"y  c #393C15",
"u  c #343C1C",
"i  c #1F3B22",
"p  c #353C22",
"a  c #34382A",
"s  c #383D22",
"d  c #36450C",
"f  c #354214",
"g  c #3B4514",
"h  c #3D4C15",
"j  c #36411C",
"k  c #3B451B",
"l  c #3C4C1C",
"z  c #354C1D",
"x  c #3E521C",
"c  c #2C470E",
"v  c #3C4524",
"b  c #3E4923",
"n  c #3D422B",
"m  c #364428",
"M  c #3B5127",
"N  c #2A4635",
"B  c #424D1C",
"V  c #414A17",
"C  c #43511C",
"Z  c #4A561E",
"A  c #44591C",
"S  c #4C5A1D",
"D  c #455416",
"F  c #50631B",
"G  c #434D24",
"H  c #434B2B",
"J  c #414729",
"K  c #455223",
"L  c #4C5423",
"P  c #4C5B24",
"I  c #46522A",
"U  c #4A542B",
"Y  c #4D5B2C",
"T  c #415925",
"R  c #525C2B",
"E  c #525D25",
"W  c #444833",
"Q  c #4C5433",
"!  c #4D5B33",
"~  c #4C543B",
"^  c #455438",
"/  c #525C34",
"(  c #535C3B",
")  c #51563B",
"_  c #4A652A",
"`  c #55632D",
"'  c #556B2C",
"]  c #5A662B",
"[  c #4B6234",
"{  c #556232",
"}  c #5B6533",
"|  c #5E6A35",
" . c #56623B",
".. c #5A623A",
"X. c #5D6A3B",
"o. c #55702B",
"O. c #626C3B",
"+. c #616C33",
"@. c #677439",
"#. c #1D4344",
"$. c #274952",
"%. c #3D6059",
"&. c #305F73",
"*. c #535B45",
"=. c #5A6445",
"-. c #4E6B55",
";. c #636E43",
":. c #61674B",
">. c #646C4B",
",. c #606744",
"<. c #68744D",
"1. c #666C55",
"2. c #6C7157",
"3. c #757E5A",
"4. c #5B7B7B",
"5. c #4D657D",
"6. c #677768",
"7. c #777B6A",
"8. c #6C7C74",
"9. c #7C8469",
"0. c #7C8275",
"q. c #65857A",
"w. c #86866D",
"e. c #8A926E",
"r. c #85897B",
"t. c #979F7A",
"y. c #8EA37A",
"u. c #3E719E",
"i. c #366289",
"p. c #3A6CA4",
"a. c #3475AC",
"s. c #2E75B6",
"d. c #337CBD",
"f. c #3A7CBB",
"g. c #3976B9",
"h. c #426C92",
"j. c #627D98",
"k. c #4A79AA",
"l. c #347DC1",
"z. c #457EC4",
"x. c #3A81BC",
"c. c #638699",
"v. c #6B919B",
"b. c #788A90",
"n. c #5F84A2",
"m. c #4987BC",
"M. c #5B92BA",
"N. c #5288B5",
"B. c #6B89A2",
"V. c #7991A5",
"C. c #6799B4",
"Z. c #7699B9",
"A. c #7DA0B6",
"S. c #2E89D8",
"D. c #3D8CD3",
"F. c #338DDB",
"G. c #358CD6",
"H. c #3A92DC",
"J. c #358EE1",
"K. c #3A8DE4",
"L. c #3A96E3",
"P. c #498DC8",
"I. c #4D93CE",
"U. c #589BCB",
"Y. c #448CD9",
"T. c #4094DB",
"R. c #5289C2",
"E. c #69A6D7",
"W. c #62A1CA",
"Q. c #8B9A8E",
"!. c #99A68A",
"~. c #A4A988",
"^. c #A3A69B",
"/. c #B5BD9B",
"(. c #ABB797",
"). c #8698B1",
"_. c #8398AD",
"`. c #92A7B0",
"'. c #B8B9A3",
"]. c #A6B9B3",
"[. c #B7B8B7",
"{. c #A9ABA4",
"}. c #BBC2A7",
"|. c #C9CEB4",
" X c #C8D3B8",
".X c #CAD0B3",
"XX c #88A9C1",
"oX c #94AEC5",
"OX c #89B3DA",
"+X c #A9B9C5",
"@X c #8DBDE9",
"#X c #B8C4C7",
"$X c #B4CAD8",
"%X c #AFC5D0",
"&X c #8FC1E6",
"*X c #ADCDE5",
"=X c #ACCAEC",
"-X c #B2CEED",
";X c #B3CCE0",
":X c #AFD2E6",
">X c #B3D2EB",
",X c #B5D2E6",
"<X c #B1CEF0",
"1X c #AFDBF9",
"2X c #B7D8FA",
"3X c #C8D0D3",
"4X c #DCE3CD",
"5X c #DDE0C1",
"6X c #D8E6D8",
"7X c #E1E2DC",
"8X c #E3E8D6",
"9X c #C5D9EB",
"0X c #DFE1ED",
"qX c #CFF2FF",
"wX c #DDFDFF",
"eX c #D8F0FF",
"rX c #D2E6FE",
"tX c #E6E9E8",
"yX c #FBFFEC",
"uX c #F1F6EE",
"iX c #E5EEF3",
"pX c #EBF5FF",
"aX c #E4FEFE",
"sX c #EBFFFF",
"dX c #E8F4F2",
"fX c #FDFEF4",
"gX c #F4FEFE",
"hX c #000000",
"jX c #F7F7F6",
"kX c #EEF3ED",
/* pixels */
"hXhXhXhXhXhXhXhXhXhXhXhXhXhXhXhXjXhXhXhXgXhXhXhXhXhXhXhXhXhXgXgXhXhXhXhXhXjXhXhXgXgXgXsXsXsXsXsXgXgXhXhXhXhXhXhXgXhXjXhXjXhXsXsX",
"hXhXhXhXhXhXhXhXhXhXhXhXhXhXhXhXhXhXhXhXgXhXhXhXhXhXhXhXhXhXgXhXhXhXgXhXhXgXgXrXeX;X$X$XoXoX`._.+X3X+XhXgXhXhXhXgXhXhXtXhXjX9Xb.",
"hXhXhXhXhXhXhXhXhXhXhXhXhXhXhXhXhXhXfXhXhXhXhXfXhXhXhXjXhXhXhXgXgXsXgXsXgXsXk.p.p.p.c.c.B.j.V.9XdXhXhXhXhXhXfXhXhXhXgXhXhXhXgX).",
"hXhXhXhXhXhXhXhXhXhXhXhXhXhXhXhXhXhXhXhXhXfXfXhXhXhXhXhXhXhXhXiX6X+X`.V.).).k.R.R.@XaXaXaXsXsXgXgXgXgXgXgXhXjXfXhXjXiX#XhXhXpXpX",
"hXhXhXhXhXhXhXhXhXhXhXhXhXhXhXhXhXhXhXhXfXhXhXhXhXhXhXhXgXgXgXdXpXsXsXsXgXsXsXsXsXaXsXgXgXgXgXgXhXgXgXsXgXgXhXjXfXfXfXkXjXfXhXhX",
"hXhXhXhXhXhXhXhXhXhXhXhXhXhXhXhXhXhXhXhXhXhXgXgXgXgX9X;X$X%X%X$X,X:X>X*X:X:X-X-X-X=X>X*X=X-X2X<X-X*X<X<X-X,X+XjXfXhXgXhXhXhXjXjX",
"hXhXhXhXhXhXhXhXhXhXhXhXhXhXhXhXhXhXhXhXhXgXgXsXqX<Xh.i.j.n.A.Z.M.a.a.x.g.s.f.d.d.d.s.d.l.l.d.g.f.g.g.k.z.p.).hXhXgXhXhXhXhXhXhX",
"hXhXhXhXhXhXhXhXhXhXhXhXhXhXhXhXhXhXhXhXhXiX`.5.c.XX1XwXwXaXaXaX1XN.U.U.R.I.D.G.F.F.F.F.S.J.F.K.K.K.Y.Y.z.OXgXhXhXhXgXhXhXhXhXhX",
"hXhXhXhXhXhXhXhXhXhXhXhXhXhXhXhXhXfXhXhXhXjXtXpXgXgXsXuXgXgXhXhX}.4.q.%.4.c.M.m.D.G.G.D.G.H.F.J.F.S.T.x.=XgXgXhXhXhXhXhXhXhXhXgX",
"hXhXhXhXhXhXhXhXhXhXhXhXhXhXhXhXhXhXhXhXhXhXgXgXhXfXyXyX8X'.w.J a 0 ; e e : #.&.M.W.P.Y.T.G.L.J.G.D.x.&XgXhXhXgXhXhXfXhXhXhXhXhX",
"hXhXhXhXhXhXhXhXhXhXhXhXhXhXhXgXgXfXhXhXhXgXfXyX.Xy.9.A y g r y @ e e j I - b $.$.C.E.U.H.H.H.H.T.x.OXsXgXhXjXgXhXhXhXhXhXhXhXfX",
"hXhXhXhXhXhXhXhXhXhXhXhXhXgXjXhXhXhXgXfXjXfX(. .[ _ A D L g 7 V ,.b , T @.Y U & + 4.v.C.W.I.k.P.k.@XgXhXgXfXhXgXhXhXhXhXhXhXhXgX",
"hXhXhXhXhXhXhXhXhXhXhXgXjXhXhXgXgXgXfX4X!.>./ P v B B Q r 6 g } V R Y x 1 * y & % + j i #.v.+X9X2XgXgXhXhXhXhXhXhXhXfXhXhXhXhXhX",
"hXhXhXhXhXhXhXhXjXhXhXhXgXgXgXhXfXfXyX( f d V g > k r > k O.} ` L L z C d ` B < m { O.x j : ].[.hXhXgXjXhXgXhXhXhXhXhXhXhXhXhXhX",
"hXhXhXhXhXhXhXhXhXhXhXhXgXgXgXyX4X5X/.G f % 7 V E V 7 k U K y L k y  .Y U ( R R P { U K M ^ 8 jXhXgXwXB.pXhXfXhXhXgXhXhXhXhXhXhX",
"hXhXhXhXhXhXhXhXfXfXgX}.b.{.Q.*.J y g R A ' B +.S ] L B L 2 G # > q 1 @ , 3 # L } d 4 % * - }.fXfXgXV.Z.jXhXhXhXhXhXhXhXhXhXhXhX",
"hXhXhXhXgXhXfX'.e./.Q.b.`.].z o.Y K C h ` g } 6 d D Z +.E E L E Z L R | U G B h 2 6 ` R u *.fXgXfXQ.Q.$XgXhXjXhXhXhXhXhXhXhXhXhX",
"hXhXhXgXhXhXfX~.L } ^ 6.`.-._ c 5 M 2 Z E U > 3 } O.E V 2 V V 7 | ] C { k ! t K O.h 2 f * 9.fXyX8X- 8 tXhXhXhXjXhXhXhXhXhXhXhXhX",
"hXhXhXhXhXhXfXw.L L X.' z c T z { f B K @ o g ;.G > J > & 0 # / A C g t t G 4 f A P X.{ 1 3.yX8Xv O $ gXhXhXhXhXhXhXhXhXhXhXhXhX",
"hXhXhXgXhXhXfX~ t * F o.o._ _ z x l C G U ;...Q k J r ) J s s s k B t Y j k G B U Y K k I >.=.n v ) 6.gXjXhXhXhXhXhXhXhXhXhXhXhX",
"hXjXfXhXhXhXkX$ , C F F d ; M j v 1 4 { } g v U U ..q ) r W / ) I 4 H k I 1 ..H ( , & e m s @ u ~ w Q.fXhXhXhXhXhXhXhXhXhXhXhXhX",
"hXhXhXhXhXhX[.  O C @.] 5 } g 1 - v O.K f I r w H Q v J $ < J ( & / ( X.f f > 4 & o 0 w &   . (  .  4XhXhXhXhXhXhXhXhXhXhXfXhXhX",
"hXhXhXhXhXfX0., O.` Z 2 O.K b 4 , % j Q ! Q b u r o $ o a o < @ 1 / f f ;./ Y k j .   < u J ( > v = fXfXhXhXhXhXhXhXhXhXhXfXhXhX",
"hXhXhXhXfXfX^ ! ' D 2 { 5 C * j < v *   .   k f J o = $   u U O.U I t k 1 % @ Q  .~ <.~ *.U ,.G q =.fXhXhXhXhXhXhXhXhXhXhXhXhXhX",
"hXhXhXhXhXyX{ 5 5 h c d +.h f 4 I m 0 q 3 Y g k > H U u ..B V L U t I G O./ ,.s u # 9 W n 9 n W # '.fXhXhXhXhXhXhXhXhXhXhXhXhXhX",
"hXjXhXhXfX XI A A x F F 6 k 3 ! u I = ! / t R U X.R v # y ;.O.V J > , r # @ = s W #   . $ 9   X 9 4XfXhXhXhXhXhXhXhXhXhXhXhXhXhX",
"fXhXhXfXyXt._ ' A ' ` 2 l e =.w = :.>.! J ..( Q p ) u Q :.) Q u & ) W @ w 2.:.1.2.2.<.>.2.>.,.:.2.fXfXhXhXhXhXhXhXhXhXhXhXfXfXhX",
"fXhXhXjXyX3.K g P % t % @ $   $ X . X   . @   = o     $     n n *.~ a a 8 r.0.0.7.9.}./..X.X|.|. XfXhXhXhXhXhXhXhXhXhXhXhXhXhXfX",
"hXfXfXfXfX^.(.~.e.9.1.*.7.8.7.0.Q.{.^.^.^.3X7X7X7XtXhXhXfXfXjXhXhXfXhXfXhXjXhXfXfXyXfXfXfXfXfXfXfXfXhXhXhXhXhXhXhXhXhXhXhXfXhXhX",
"hXjXfXyXfXfXyXyXyXyXfXhXhXhXhXhXfXfXhXhXhXhXjXhXhXjXhXhXjXhXhXhXhXjXhXhXhXjXhXfXhXhXfXhXfXfXhXhXhXhXhXhXhXhXhXfXhXhXhXhXhXhXhXyX",
"hXhXgXfXfXhXfXhXgXhXfXfXhXhXjXhXhXhXhXhXhXhXhXhXhXhXhXhXfXhXhXjXhXhXjXhXhXhXhXhXhXhXhXhXhXhXhXjXjXhXhXhXhXhXhXfXhXhXhXhXhXhXhXtX",
"hXhXhXhXhXfXhXhXhXfXhXhXhXhXhXhXhXhXhXjXhXhXhXhXhXhXhXjXhXhXhXhXhXhXhXhXhXhXjXhXhXhXhXhXhXhXhXhXhXhXhXhXhXhXfXhXhXhXhXhXhXfXhX7X",
"hXhXhXhXhXhXhXhXhXhXhXhXhXhXhXhXhXhXhXhXhXhXhXhXhXhXhXhXhXhXhXhXhXhXhXhXhXhXhXhXhXhXhXhXhXhXhXhXhXhXhXhXhXhXhXhXhXhXhXhXhXhXhXhX",
"hXhXhXhXhXhXhXhXhXhXhXhXhXhXhXhXhXhXhXhXhXhXhXhXhXhXhXhXhXhXhXhXhXhXhXhXhXhXhXhXhXhXhXhXhXhXhXhXhXhXhXhXhXhXhXhXhXhXhXhXhXhXhXhX",
"hXhXhXhXhXhXhXhXhXhXhXhXhXhXhXhXhXhXhXhXhXhXhXhXhXhXhXhXhXhXhXhXhXhXhXhXhXhXhXhXhXhXhXhXhXhXhXhXhXhXhXhXhXhXhXhXhXhXhXhXhXhXhXhX"
};
