/* XPM */
static char *_9597_e8ada06e9ac8c2d3966a34075c78dee522c972fa57369071ea526b818f36f9b0[] = {
/* columns rows colors chars-per-pixel */
"64 64 248 2 ",
"   c #010501",
".  c #030B01",
"X  c #0D0C01",
"o  c #060705",
"O  c #0C1301",
"+  c #0A1504",
"@  c #141D01",
"#  c #181A05",
"$  c #181B13",
"%  c #0E140D",
"&  c #241F18",
"*  c #1B2401",
"=  c #1E2903",
"-  c #182306",
";  c #1C2515",
":  c #242C03",
">  c #272B08",
",  c #2A3408",
"<  c #353908",
"1  c #242B15",
"2  c #262918",
"3  c #2C3517",
"4  c #343919",
"5  c #342D12",
"6  c #182A25",
"7  c #272C23",
"8  c #2C3627",
"9  c #363825",
"0  c #2C3A36",
"q  c #333A33",
"w  c #473A2D",
"e  c #394407",
"r  c #3A441C",
"t  c #3B4617",
"y  c #2D411C",
"u  c #3B452A",
"i  c #3A4634",
"p  c #43450A",
"a  c #495609",
"s  c #464C19",
"d  c #4A5319",
"f  c #57591A",
"g  c #555011",
"h  c #59631C",
"j  c #656A1B",
"k  c #464926",
"l  c #4A5527",
"z  c #565A27",
"x  c #474836",
"c  c #584B36",
"v  c #4A5539",
"b  c #555839",
"n  c #57492D",
"m  c #655939",
"M  c #655728",
"N  c #5B6528",
"B  c #5A6537",
"V  c #586B32",
"C  c #676B2A",
"Z  c #68742B",
"A  c #76782C",
"S  c #666937",
"D  c #6A7637",
"F  c #777A38",
"G  c #716D2F",
"H  c #384845",
"J  c #3E5347",
"K  c #495546",
"L  c #545847",
"P  c #4C5650",
"I  c #665E45",
"U  c #586647",
"Y  c #5A6758",
"T  c #5D7249",
"R  c #666A47",
"E  c #697547",
"W  c #767948",
"Q  c #6B6A57",
"!  c #6B7754",
"~  c #767956",
"^  c #766647",
"/  c #5A6769",
"(  c #586E75",
")  c #6B7768",
"_  c #757B6A",
"`  c #647577",
"'  c #737977",
"]  c #656C6C",
"[  c #445565",
"{  c #223641",
"}  c #837D48",
"|  c #897C50",
" . c #817D60",
".. c #7A853C",
"X. c #738033",
"o. c #7B8444",
"O. c #7A8548",
"+. c #798557",
"@. c #6F8054",
"#. c #798565",
"$. c #788677",
"%. c #708779",
"&. c #868A3A",
"*. c #90913E",
"=. c #858748",
"-. c #928A4D",
";. c #8A9447",
":. c #878858",
">. c #918B57",
",. c #899555",
"<. c #939756",
"1. c #979848",
"2. c #97A255",
"3. c #868966",
"4. c #899368",
"5. c #949967",
"6. c #858B7A",
"7. c #8B9577",
"8. c #969A77",
"9. c #958E60",
"0. c #A19C74",
"q. c #98A365",
"w. c #99A477",
"e. c #A4A576",
"r. c #ACAA74",
"t. c #697C86",
"y. c #577BB6",
"u. c #768687",
"i. c #748C92",
"p. c #5C83BD",
"a. c #5D8ABD",
"s. c #7996A9",
"d. c #6286BD",
"f. c #6189BD",
"g. c #6B8CB9",
"h. c #6B91BB",
"j. c #7698B7",
"k. c #738EAC",
"l. c #7DA6B3",
"z. c #5E85C3",
"x. c #5E8BC3",
"c. c #5E8AC8",
"v. c #6286C4",
"b. c #638BC5",
"n. c #698EC5",
"m. c #638CCA",
"M. c #6388C8",
"N. c #6A92C6",
"B. c #6592CC",
"V. c #6C95CA",
"C. c #6D9BCD",
"Z. c #6894C6",
"A. c #719ACE",
"S. c #7499C8",
"D. c #638ED2",
"F. c #6593D3",
"G. c #6996D3",
"H. c #6B9BD4",
"J. c #6D9CDB",
"K. c #6698D3",
"L. c #739DD1",
"P. c #739DDA",
"I. c #7598D1",
"U. c #78A5C9",
"Y. c #6EA1D6",
"T. c #75A2D5",
"R. c #79A3D5",
"E. c #75A4DB",
"W. c #79A6DB",
"Q. c #7BAADD",
"!. c #79AAD8",
"~. c #7DB0DF",
"^. c #729FE2",
"/. c #72A3E3",
"(. c #7CACE1",
"). c #78A9E3",
"_. c #7DB1E3",
"`. c #6FA1E1",
"'. c #899889",
"]. c #879896",
"[. c #8A928B",
"{. c #97A598",
"}. c #91A38E",
"|. c #A7AB88",
" X c #AAB38A",
".X c #ABB397",
"XX c #B3B194",
"oX c #879CA6",
"OX c #969FA4",
"+X c #8AA1A8",
"@X c #89A7B5",
"#X c #98AAA9",
"$X c #A1AAAA",
"%X c #A5B5A7",
"&X c #A9B8B8",
"*X c #A8B3B9",
"=X c #BCC197",
"-X c #B6C2B5",
";X c #B3C8AE",
":X c #C8CCAC",
">X c #C5CE9F",
",X c #87AAC6",
"<X c #82AEDE",
"1X c #84A9D3",
"2X c #89B1DB",
"3X c #96B8DB",
"4X c #98B1C7",
"5X c #A4B9C8",
"6X c #A2BDDC",
"7X c #84AEE2",
"8X c #84B3E3",
"9X c #8CBBE6",
"0X c #83B4E9",
"qX c #89B7E7",
"wX c #93BCE5",
"eX c #97BCE9",
"rX c #8FBEF1",
"tX c #A8C4D9",
"yX c #B8CBD9",
"uX c #BCD2DA",
"iX c #AFC6C9",
"pX c #9CC5EB",
"aX c #99C2E7",
"sX c #9DC8F1",
"dX c #A2C4E4",
"fX c #A5CAEC",
"gX c #AACCEC",
"hX c #A6C8E7",
"jX c #B6CDE7",
"kX c #BAD4EB",
"lX c #BAD4E7",
"zX c #ACCDF1",
"xX c #A3CBF6",
"cX c #ADD2F4",
"vX c #B9D5F4",
"bX c #C8D6D7",
"nX c #CFD5C6",
"mX c #C3DBEC",
"MX c #C6D8E6",
"NX c #C6DDF4",
"BX c #D3DEE5",
"VX c #D7E4E9",
"CX c #CBE6FB",
"ZX c #D9EBF5",
"AX c #D4F0FB",
"SX c #EBFDFF",
"DX c #EAEEEE",
"FX c #D9E7DD",
/* pixels */
"N.N.N.N.V.N.N.N.N.N.N.N.N.N.N.N.V.N.N.N.b.N.b.N.b.m.b.b.b.b.b.b.g.x.f.f.b.v.v.d.a.a.a.p.d.a.p.p.p.p.p.p.p.y.p.y.y.y.y.y.y.y.y.y.",
"N.N.N.N.N.V.V.S.N.V.S.V.N.V.V.N.N.V.N.N.N.N.n.n.n.g.n.b.b.b.d.b.b.a.f.d.v.v.v.d.a.a.a.z.d.d.z.p.p.p.p.p.p.p.p.y.p.y.y.y.y.y.y.y.",
"V.V.V.A.V.V.A.V.V.V.V.V.S.V.V.V.N.N.N.N.N.b.N.N.b.b.b.b.f.b.b.f.b.f.f.d.v.d.v.v.v.p.v.v.z.z.z.z.z.z.p.p.p.p.z.p.z.y.p.y.y.y.y.y.",
"A.V.V.A.V.A.V.A.S.A.A.V.V.V.V.N.N.N.N.N.g.Z.m.b.b.h.b.b.b.b.x.b.x.v.v.d.d.f.v.v.v.v.v.v.z.c.z.z.z.z.p.z.v.x.p.p.p.z.v.y.d.y.y.y.",
"V.A.A.A.A.A.A.A.V.A.S.V.V.S.N.V.N.N.N.h.b.h.m.h.n.g.b.b.b.x.f.b.b.v.v.d.f.f.f.b.v.v.v.v.c.c.z.M.z.z.v.z.v.z.z.z.z.z.z.p.p.y.z.y.",
"V.A.A.A.A.A.A.A.A.A.V.V.V.V.V.N.N.N.N.N.N.n.b.b.b.m.b.b.b.b.b.b.v.b.d.d.f.f.a.x.v.v.v.v.z.z.z.z.z.z.z.z.M.b.M.b.v.z.v.z.v.p.p.z.",
"A.A.L.A.A.A.A.A.A.A.V.A.V.V.V.N.V.N.N.N.N.Z.n.b.b.n.b.g.b.b.b.b.M.v.x.a.a.a.c.M.M.M.a.d.z.z.c.z.z.z.z.z.z.b.M.M.b.M.M.z.v.z.z.z.",
"A.A.A.T.A.A.A.A.A.A.A.A.S.S.V.V.V.N.N.N.N.n.N.n.n.b.Z.b.f.b.b.b.M.v.x.a.a.a.c.M.z.v.d.a.d.p.z.z.z.c.c.c.b.c.z.M.b.M.v.M.v.z.z.z.",
"L.L.L.L.L.A.A.A.A.V.A.V.V.V.V.V.N.N.N.N.N.n.n.b.Z.b.b.b.b.b.b.b.b.M.M.c.x.b.b.x.c.b.x.f.a.f.b.x.z.M.M.c.z.b.M.m.M.M.M.b.c.M.z.z.",
"S.L.L.L.A.A.L.A.A.S.A.V.A.V.V.V.A.N.A.n.N.N.N.m.b.Z.b.b.b.b.b.f.d.d.M.M.b.M.x.x.M.c.b.f.b.f.f.b.c.b.c.b.M.c.m.M.c.M.c.b.M.z.M.c.",
"R.L.L.L.L.A.L.A.A.A.A.A.A.A.S.V.N.N.V.V.N.N.N.n.Z.g.b.Z.b.b.b.b.b.h.g.g.n.n.B.b.b.b.M.b.x.x.b.M.b.M.b.m.m.M.m.b.b.c.M.c.M.z.c.b.",
"R.L.L.L.L.L.A.A.A.A.A.A.A.A.A.S.V.A.V.N.N.N.N.N.Z.b.b.Z.b.Z.Z.b.d.g.k.t.g.g.a.Z.n.b.m.m.c.b.m.m.b.b.m.M.m.m.M.m.z.M.c.b.c.M.c.c.",
"L.L.L.L.L.A.L.A.L.A.A.A.A.A.A.A.A.A.N.V.N.N.B.n.Z.m.B.n.m.Z.m.g.h.s.) %./ k.n.m.b.n.v.b.m.b.m.m.M.M.m.m.b.m.m.m.c.x.m.c.b.M.c.c.",
"R.L.L.R.L.L.L.L.A.A.A.A.A.A.A.A.A.N.A.N.V.V.V.V.Z.Z.B.B.Z.m.m.h.j.` R S x u.g.n.n.n.n.b.B.m.m.m.m.m.m.m.m.m.m.m.c.m.c.m.c.M.c.m.",
"L.R.L.L.L.L.L.A.L.A.A.A.A.A.S.A.A.A.A.V.A.V.V.V.N.B.N.N.V.Z.Z.h.i.#.b S 4.) s.h.N.n.n.b.m.D.m.m.B.m.m.m.m.B.m.m.B.m.c.c.c.c.m.m.",
"1XL.L.1XL.L.A.L.L.A.A.I.A.A.A.A.A.A.V.V.C.V.V.V.V.A.B.V.V.N.Z.j.%.B E >.W :.#.s.S.n.N.N.Z.m.B.m.m.m.Z.m.m.B.m.m.m.m.m.c.B.c.m.m.",
"P.P.T.L.L.T.A.T.L.L.A.A.A.A.A.A.I.A.L.C.C.C.B.V.V.V.I.B.V.A.j.i.+.=.=.E F }  .$.j.n.A.n.B.B.G.Z.B.D.V.m.F.m.D.B.x.x.c.c.F.D.D.c.",
"R.R.T.R.T.A.A.T.U.A.L.A.A.A.L.A.A.I.L.H.Z.C.G.I.V.A.B.B.V.g.s.%.D -.W M } -.=.~ oXN.N.B.B.B.B.m.D.V.V.D.D.D.F.m.x.B.B.D.D.D.F.F.",
"R.R.R.L.T.A.T.A.T.A.A.A.A.A.A.A.A.A.C.C.S.C.C.A.C.V.V.C.N.j.].@.=.Z F | >.} =. .t.j.N.B.G.K.B.G.G.B.B.D.F.D.F.F.B.B.B.c.D.D.B.B.",
"R.R.L.T.R.T.T.R.A.T.T.A.L.L.A.A.C.A.C.C.C.A.H.V.A.V.C.T.S.s.$.=.;.&.G | G f } }  .oXS.Z.G.Z.I.B.B.B.B.n.B.B.D.D.B.B.F.F.F.F.B.F.",
"R.R.T.T.R.R.T.A.T.A.T.T.T.A.T.A.C.H.A.A.S.C.C.C.C.A.V.h.S.s.! 1.F Z 1.A A 1.&.=.:.'.s.S.Z.H.G.B.B.B.Z.B.B.B.F.F.D.F.D.F.F.F.F.B.",
"R.R.R.T.R.T.R.T.T.A.T.A.A.T.A.H.T.C.L.A.S.C.C.Y.C.U.C.S.j.].+.&.*.&.&.A &.A -.-.F :.u.j.C.B.B.B.C.B.Z.V.B.K.F.F.F.F.F.G.F.K.G.G.",
"W.!.!.!.R.R.R.T.T.T.A.T.T.T.L.L.A.L.I.L.C.C.C.H.C.C.C.C.l.s.q.A *.*.G j f g | } <.W _ +XN.J.K.H.G.G.B.B.B.C.B.K.K.F.F.F.G.G.G.G.",
"W.R.R.R.T.T.R.R.T.T.R.T.T.A.L.L.L.I.P.H.Y.C.Y.A.T.Y.Y.l.l.$.,.1.j A A F <.W S W G W #.Y 1XK.H.H.J.H.H.H.K.K.K.K.F.J.K.K.G.G.G.G.",
"W.W.W.W.W.E.!.W.T.T.E.T.T.T.T.L.L.L.P.P.C.C.Y.Y.L.P.P.S.}.w.O.X.&.*.F G C h F =.C =.F 7.,XI.C.C.G.J.J.F.K.K.K.K.K.F.K.F.J.J.J.G.",
"W.W.W.W.E.W.!.T.E.W.E.E.T.T.T.T.L.P.P.P.Y.U.Y.Y.P.A.,X@X'.D Z X.g A f -.=.D A j ;.F -.3.( S.T.H.J.G.^.J.H.K.K.Y.F.J.J.K.K.K.J.J.",
"W.W.W.W.W.W.E.W.E.R.!.T.E.T.E.T.E.J.P.T.Y.Y.E.J.J.l.$.+.q...W +.G F o.z l D ;.;.=.F z W ) i.A.J.P.J.J.J.K.Y.H.K.J.K.J.K.J.J.J.J.",
"Q.Q.Q.!.Q.W.Q.W.W.!.E.W.T.E.T.T.Y.Y.Y.T.C.T.P.W.L.@X@.A Z ..W W ..=.S W 5 < &.X.=.F S k Q ' j.U.A.H.^.`.`.J.Y.J.Y.J.Y.`.P.J.J.P.",
"Q.Q.Q.Q.W.W.Q.W.W.W.W.E.W.E.E.E.E.Y.T.T.T.T.U.U.@X].q...&.;...O.5.S p s t S o.F e z 3.! y u u.l.U.Y.C.`.^.J.J.Y.Y.Y.J.`.J.J.E.J.",
"Q.Q.Q.Q.Q.Q.W.Q.W.W.W.W.W.!.W.E.Y.!.R.P.R.R.U.@X{.4.+.D X.h <.z D D W f <.d >.F b 4.+.S z T 8 i.@Xl.A.J.^.`.Y.Y.Y.Y.`.`./.^.P.E.",
"Q.Q.Q.(.Q.W.Q.W.!.W.Q.Q.W.W.W.W.W.Q.E.P.E.U.,Xi.~ ,.Z D d s s <.S N Z D f >.G l ! Y B D q.D E ) i.l.!.Q./.`.E.Y.`.`./././././.W.",
"Q.(.Q.Q.(.Q.Q.Q.Q.Q.Q.W.W.W.W.W.Q.(.W.7XP.1X@X$.z ,.O.D O.t 3.z E S =.C < S G # v ! D X.h d l B %.@XU.T.E.Q.E./.E./././.E./.W./.",
"<X7X<XQ.Q.<X(.(.Q.).)._.).Q.(.Q.E._.E.).~.!.@X.XE <.5.l q.w.z S l z d N o.1.=.2.2.N h X.Z Z E l K +X,X!.@X,X)././.)./.).!.E.).).",
"Q.<X7X~.7X(.(.(._._.Q.).Q.Q.).Q.(.Q.).!.~.@Xu.$.5.N 5.O.+.s u < S N R N N F = a ....;.2.j ..+.r k Y +X+X#X+XU.).).).)./._.`.)./.",
"8X<X8X<X(.(.Q.(.).~.(.Q._.Q.!.Q.!.Q._.~.@X+XU @.<.q.+.@.U y i @ F C F O.V h e Z e d C ;.a a ..V  X4.E E O.#.oX,XQ.Q._.).).)._._.",
"~._._.~.Q.8X7X<X_.~.~.~.~.~.~.Q._._._.2XU.@.= o.=...+.#.#.}.}.! =.O.e d N h Z &.h F V : 2.;.O.e B 4.+...A 5.7.oX2X~.R.<X_.).).0X",
"_.8X_._.7X8X<X<X<X<X2X<X<X<X<X<X!._._.8X2Xs.T X.A p C R U ~ ! b @.U V X.2.X.Z O.o.: O 1 V = z e V 1 ! d =.C |.}.4X2X@Xy.1X3X7X7X",
"qX0X8XqX8X9X8X2X2X8X<X8X7X<X7X8X_._._.Q.,X5X#.X.F p l +.U , D +.u ! V a h Z : e Z @.2 # b y 3 4.@.v * B O.O.>.'.+X4XOX` t.2XeXqX",
"2X2X8X2X8X8XqX0X8X8X0X0X0X0X0X0X8X8X8X2X3Xu.O.Z D O.b i v ! W D N O.Z N e y O.t = K i P 7 K ) + i $.u * z O.e.$.OX*X{.u.[.t.3X0X",
"hXaXaX3X2X2X8XqXqX0X0X0X0X0X0X0X8X8X9XwXiX}.e 2.W y i U U ! +.< S O.O.f , l @.u 1 K 8 ; u.P % ; Y K i v o.,.R '.].$X{.) _ ' k.eX",
"SXSXSXSXvXdXeX7X0X0X0XqXrX_.8XqX0XqXaX( %.V V e t y ) #.y R 5.O.E m < * 1 K 1 9 _ + 8 ] 6 0 ] K 7 @ 9 @ D &.>.|.' #X}.~ 4._ u.hX",
"DXVXMXyXkXdXpXpX9X9XqX0X_.aX9XrXrX9X2XiXu.y q...R U #.= b + S s 3.U v - 2 x $.6.L 8 3 . 0 / q q i ; # # z < S 3.}.$X|.m b  .%X] ",
"NXNXmXCXvXpXwX9X9X9X9X9XaX9XwXeXrX9XeXtXiXi.T +.|.+.+.B <.N , B  Xn  X4 > 3 # 2 1 K i % $ oX6Xt.i.( @ r k z < :..X|. .0.r.M  .6.",
"6X6X6XeXpXaXaXaXrX9XeXwX9X9X3X2XwXpX@XoX;X%.@.#.4.b B :.d B l . 4 ~  Xe.m s 9 - @ + 6 {.t.#X[ i.t.%.u * u , 9.s 7.'.8.9.| M :.~ ",
"hX3XaXpXaXpXxXrXsXaXwXeXcXCXAXAXfX5X;X7.@.V q.Z W 7.r T ; $.}.'.$.W W D , u K ; v ; P i L 0 7 P o 7 ' 2 # O z p 0.0.~ >.-.-.} >.",
"aXaXaXpXxXaXrXxXaXpXfXgXdXtXgXmXAXFXv V N O.,.W l u ! v 0 [.) '.7., O.V ~ #.- x u - ; x 1 ; % % ; % {.7 L k S w.0.0.|.W F >.n | ",
"pXpXxXaXxXpXfXfXcXgXdXfXhXdXfXmXFXnXV , d 4 l ! 6.x 1 i v u q $.3.@.E 4 3 L c 2 3 X # % ; K 2 7   _ DXQ   k 5.e.Q  .R Q :.S W B ",
"sXsXpXpXpXfXdXpXdXdXgXgXzXgXcXlX#Xy T , ! ! .XK &X#XK %.U u $ K #.z . O $ 8 2 4 k v 4 K 2 [.' P DXSXFX;X+.0.:X=X^ :XXX .4.4.: * ",
"fXfXfXfXpXgXhXhXhXhXhXgXfXzXfXjXuXs.T u i %.8 i &XH &Xu.. ;Xo ' _ i ) 0 o o _ I +.B ~ B X $Xq SXDXDXXX=Xq.e. X3.} >.,.5.l O O % ",
"gXfXfXfXzXdXzXzXhXfXgXgXzXzXgXjXlXmXuX; '.Y %.P ` i.{ ( ( 0 ` / L $.i % o o Y &XE > > i [.] nXVXDXVX.X0.r.q.:.5.e.D C * 5 # . $ ",
"gXzXfXcXgXzXxXzXfXxXfXgXfXgXzXgXgXtXlX;XJ %.lXhXNXCXl.6 &XH -X%.7., u 3 2 $ q   / &Xx + o 7 MXBXCXVX%X'.w.5.8.:X=Xk < r = # 2 $ ",
"vXgXkXgXzXzXgXxXcXzXcXgXAXAXhXhXvXAXvXmX%Xl.AXvXvXkXlXCXuX{.J T +.w.|.Q $ i 5X/ ` ].H % 6 bXVXMXMXMXbX%X|.w..X:X1 = U 3 @ O $ o ",
"MXjXmXkXvXjXvXvXzXzXzXNXCXmXNXvXlXlXkXCXAXAXlXmXjXjXyXyX*X&XL B T U {.] & q ] H ` MXiX$.q % [ +X@XNXbXbX;X X3.O ; # 2 1 3 5 X 7 ",
"$Xi.[.] t.5X5XjXNXNXjX5XtXlXlXyXjXvXlXgXlXjXbXlXNXNXSXSXSXMX%XY %.Y ` $ & X ] OXZXMXi.].t.0 P 5XBX5X&X{.=Xw.# $ 3 $ ; O U X 9 $ ",
"Q ) _ L P L ] ' [.u./ ` / ( 5XmXlXlXkXjXlXkXlXmXNXmXmXmXlXMXs.iX] H / H w X SXNXNXBXMXbX] $Xt.bXZX*X$..X4.k 2 X 7 & 2 9 9 # X X ",
"x c I L Q Q Q  . .' 6.[.t.].] *XMXlXmXCXmXMXMXmXmXlXmXlXbXuXbXMXBX&XiX] XX5 DX6Xt.VXZXbXDXBXBXbXMXnX|.>X8.. v x X X X w c w & X ",
"G w n m m m I ^ I  .I /  .q & ] J bXbXuX{.&X%Xu.&XbXyXMXBXVXi.;X[.[.-X~ XXM DX6.] }.bXDXDXOXnXFXDXnX|.=.8. .Q  .c 5 L * X 9 7 & ",
"M M w n ^ } c ^ n w w w $ q 7 & 7 . 8 i ; u u v u 7 Y $X-X! i V 2 5 4 w r.n nX] 9 3 X L Q L L c ^ ^ } F 9.|.*  .3.c | # # 5 9 X ",
"5 5 m ^ w w I w c c w w 9 4 9 5 x u v + u 3 9 3 @ ; 8 + + T 3 u X 1 * 5.-.| # w c 9 ~ k m R W | F G 1.&.W g 2.> , r.0.# t 5 : , ",
"# 5 & 5 & w w w w w w & 7 # 9 b + 3 3 = 3 - 3 u r k l u l l y e t >.>.=.=.-.<   * < m :.:.>.F F f } A f C D } F } M g } F d E k ",
"2 # & & x x 9 2 x ; - 1 4 9 v u i u y 3 4 u l V ,.,.q.q.q.,.;.+.,.O.O.o.=.X.a V V , e N p z z z | m p G W W 5 0.F -.*.1.A p > < ",
"$ 9 # # 1 > 2 3 u 4 l i k 1 , , - : * , r V D Z X.D N Z D X.X.....X...X...=.,.,.,.q.q.r.r.5.<.,.:. .S M :   X o > A *.f g z s n ",
"x u u x y y , @ @ + @ = = t u u V V u V V V X.E W O.Z V N t t e e e y t : @ * , : 4 u t l S S ! ! B S +.E ,.3.~ C G W G z 5 k > ",
"* @ = , , y u E @.+.+.V D V N t e t l h t d , : * @ = , y l y , : , 3 y 3 ; ; 3 > * - - @ * @ + @ @ + * * # * : < < : , 5 k 5 n "
};
