/* XPM */
static char *_df4b03391584d77e47257f3747bb5286BUK662Qza5bWIIm[] = {
/* columns rows colors chars-per-pixel */
"64 64 254 2 ",
"   c #020303",
".  c #0A0302",
"X  c #030905",
"o  c #02050A",
"O  c #04090C",
"+  c #0A0A0C",
"@  c #0A0808",
"#  c #010512",
"$  c #040A13",
"%  c #0A0D11",
"&  c #00051C",
"*  c #020B1B",
"=  c #090D18",
"-  c #0B1215",
";  c #0D151B",
":  c #09131C",
">  c #12171B",
",  c #150A05",
"<  c #010B23",
"1  c #000A27",
"2  c #071326",
"3  c #141C24",
"4  c #141D2A",
"5  c #181E29",
"6  c #161F32",
"7  c #0B1933",
"8  c #1B222C",
"9  c #192127",
"0  c #1B2433",
"q  c #1C2738",
"w  c #1D293B",
"e  c #172436",
"r  c #0C203B",
"t  c #222A35",
"y  c #242D3B",
"u  c #272C35",
"i  c #29323D",
"p  c #27313D",
"a  c #2C2D2C",
"s  c #2C1D14",
"d  c #4C382C",
"f  c #44403D",
"g  c #1B2942",
"h  c #182A48",
"j  c #162E53",
"k  c #193256",
"l  c #0F2A50",
"z  c #222E42",
"x  c #263244",
"c  c #2B3443",
"v  c #2D3A4C",
"b  c #293549",
"n  c #323D4C",
"m  c #313A46",
"M  c #2C3C53",
"N  c #253958",
"B  c #313E54",
"V  c #283D66",
"C  c #132B54",
"Z  c #38414D",
"A  c #354253",
"S  c #3A4554",
"D  c #35455C",
"F  c #3C4A5B",
"G  c #3C4857",
"H  c #2F445A",
"J  c #2B4368",
"K  c #3C4C63",
"L  c #354969",
"P  c #3D5169",
"I  c #2B4B77",
"U  c #364C74",
"Y  c #395378",
"T  c #2D527E",
"R  c #1F437D",
"E  c #434C5A",
"W  c #48515D",
"Q  c #524F4C",
"!  c #435364",
"~  c #4B5663",
"^  c #43546A",
"/  c #4B5B6D",
"(  c #4A5867",
")  c #525D6B",
"_  c #555B65",
"`  c #445B7C",
"'  c #475A78",
"]  c #465267",
"[  c #5B636B",
"{  c #57626C",
"}  c #4B617D",
"|  c #546374",
" . c #5C6974",
".. c #5D6B7A",
"X. c #586575",
"o. c #636C73",
"O. c #626D7A",
"+. c #686872",
"@. c #6A747C",
"#. c #69737A",
"$. c #75787B",
"%. c #696A6C",
"&. c #685C57",
"*. c #867770",
"=. c #78817E",
"-. c #8B847C",
";. c #958777",
":. c #A88B7D",
">. c #2E5183",
",. c #335483",
"<. c #395A88",
"1. c #33558A",
"2. c #3A6598",
"3. c #3C608E",
"4. c #445D84",
"5. c #496389",
"6. c #546B8C",
"7. c #586A87",
"8. c #4C6D9B",
"9. c #486894",
"0. c #546E95",
"q. c #5B7393",
"w. c #58749C",
"e. c #577090",
"r. c #6A7785",
"t. c #727C83",
"y. c #787E85",
"u. c #667A98",
"i. c #657287",
"p. c #476DA1",
"a. c #4A72A3",
"s. c #5877A3",
"d. c #667DA2",
"f. c #827D83",
"g. c #758189",
"h. c #7C858A",
"j. c #798899",
"k. c #6B819F",
"l. c #6A83A6",
"z. c #768AA8",
"x. c #7C91AB",
"c. c #7C93B5",
"v. c #6F8AB2",
"b. c #838A8D",
"n. c #868887",
"m. c #988C86",
"M. c #96948C",
"N. c #868C95",
"B. c #899396",
"V. c #979898",
"C. c #8B908A",
"Z. c #A69C99",
"A. c #AA988B",
"S. c #9CA19C",
"D. c #A6A49B",
"F. c #B2A995",
"G. c #8796AA",
"H. c #949BA4",
"J. c #8295B3",
"K. c #8598B4",
"L. c #8B9CB5",
"P. c #8B9DBB",
"I. c #869AB9",
"U. c #8A97AC",
"Y. c #9AA4A3",
"T. c #8EA0B9",
"R. c #92A2B5",
"E. c #94A4BB",
"W. c #9BAABC",
"Q. c #9BA7B7",
"!. c #A7AAA6",
"~. c #AEB1A7",
"^. c #B6B4A8",
"/. c #A3ADB9",
"(. c #A9B3BB",
"). c #B7BAB8",
"_. c #B3AFA5",
"`. c #A49FA6",
"'. c #C4BBAB",
"]. c #C4BBB5",
"[. c #D4BAA9",
"{. c #CBA890",
"}. c #BCC1BB",
"|. c #C4C3BA",
" X c #D4C4B3",
".X c #EFCBB2",
"XX c #8EA3C2",
"oX c #93A4C4",
"OX c #94A8C5",
"+X c #96AAC9",
"@X c #9AADCB",
"#X c #9AAAC4",
"$X c #9EB1CD",
"%X c #9EB3D2",
"&X c #9DAFD0",
"*X c #A1AFC6",
"=X c #A3B2C3",
"-X c #A4B3CC",
";X c #ABBACC",
":X c #AAB7C7",
">X c #B2BDCD",
",X c #B5BCC4",
"<X c #A2B5D3",
"1X c #ABBBD4",
"2X c #ABBEDA",
"3X c #A6B9D6",
"4X c #B0BED2",
"5X c #A0AED5",
"6X c #8F9FC4",
"7X c #C4BDC6",
"8X c #BAC2C9",
"9X c #AFC1DB",
"0X c #B5C2D4",
"qX c #B3C4DC",
"wX c #BCCADD",
"eX c #BBC8D5",
"rX c #BCCBE0",
"tX c #B6C8E1",
"yX c #C8CACA",
"uX c #D6CCC4",
"iX c #C3CCD4",
"pX c #C3CDDB",
"aX c #C6CAD8",
"sX c #CCD3D5",
"dX c #CBD4DD",
"fX c #C7D2DB",
"gX c #D4D8D9",
"hX c #D3D2CB",
"jX c #E4DDD4",
"kX c #E4D8CA",
"lX c #E8E3DB",
"zX c #F0E5D9",
"xX c #C5D2E2",
"cX c #CAD5E3",
"vX c #CED9E4",
"bX c #D4DCE4",
"nX c #D9DEE4",
"mX c #D7DEEA",
"MX c #C9D7EA",
"NX c #DCE2E5",
"BX c #DDE3E9",
"VX c #D8E5F9",
"CX c #E3E4E4",
"ZX c #EAEAE4",
"AX c #E2E5E9",
"SX c #E5EAEB",
"DX c #ECECEB",
"FX c #E7E7E3",
"GX c #F2EDE9",
"HX c #F3F2EC",
"JX c #E8EBF3",
"KX c #F7FBFB",
"LX c #EEF0F3",
"PX c #DFE0E2",
/* pixels */
"u.k.z.z.z.z.c.x.J.J.I.I.P.P.XXoXoXoXoXOXOXOXOX@X@X$X@X@X%X&X&X@X+X+X@X+X+XOXOXOX6XoXP.P.P.I.I.c.J.G.c.c.z.z.d.d.d.d.d.d.u.u.q.5.",
"l.z.z.z.x.x.J.J.K.T.P.T.XXXXoXoX+X@X@X@X$X&X%X%X%X%X%X%X%X%X%X%X%X%X%X%X%X@X@X@X@X+X+XOXXXXXXXP.P.J.J.J.J.c.J.v.d.J.d.d.i.4.U V ",
"z.z.x.x.G.J.L.I.T.T.E.E.oX#X@X#X@X$X-X-X<X<X3X<X3X3X3X3X3X3X3X3X9X%X3X%X%X%X%X%X&X@X@X#X+X+XXXXX6XP.I.I.J.J.J.z.f.d.d.7.4.7.7.B ",
"z.x.G.G.K.L.P.T.T.oXoXOX#X#X@X-X$X-X<X-X<X3X3X2X9X3X9X9X2X2X9X9X9X3X9X3X2X9X%X%X<X&X@X5X&X+X+XOXoXoXE.P.K.J.J.x.I.d.0.0.d.d.7.1 ",
"G.G.G.L.T.T.E.E.#XE.#X*X*X-X-X<X<X<X1X1X1X9X9X9X9X9X9X9XtX2X9X9X9XqX2X2X9X9X2X3X2X-X3X3X@X*X-X+X6X6X6XE.L.L.J.x.u.7.q.u.u.d.v 6 ",
"x.G.L.R.T.R.E.W.#X*X*X*X-X-X:X1X1X1X9X9X9XqXqXqXqXtXtXqXqXtXtXwXqXqXqXqX9X9X2X2X4X2X1X-X1X<X@X&X5X6XL.E.E.U.J.J.i.4.q.z.f.d.E 1 ",
"G.U.R.R.R.E.W.W.=X=X-X-X;X-X1X4X0X9XqXqXqXqXwXqXtXtXtXwXtXtXrXtXwXtXwXtXtXtXtX2X1X4X1X-X<X*XE.@XoX*X5X/.E.R.G.u.` u.z.d.7./ = # ",
"L.R.R.E.W.W.W.=X=X*X:X:X;X>X4X4X0XqXqXwXwXwXrXrXrXrXrXxXrXrXpXrXwXwXwXqX2XqX2X3X;X*X;X1XE.E.#XT.5X*X*XQ.U.j.u.i.l.c.d.7.M 2 # . ",
"R.R.R.Q.W.(.W.(.:X;X;X;X;X0X0X0XeXeXwXrXrXxXrXxXxXxXxXxXxXxXxXxXxXrXwXqX4X4XwX4X*XW.U.U.U.$XW.1XE.x.u.j.j.j.L.@XXXw.7.7.b 3 o   ",
"R.W.W.W.=X=X=X$X;X;X0X8X0XeXeXeXwXrXfXfXfXxXfXcXxXcXcXcXcXcXcXfXxXxXcXpXwXeX4XaXaXeXpXpX,Xx.j.j.j.j.j.L.oXoX@XJ.u.` q.' # o o o ",
"Q./.@X=X=X0X$X8X>X0X8XeXeXeXeXiXrXfXdXfXcXdXvXvXvXvXbXvXvXcXcXdXcXfXcXpX>X>XaXaXiX0XwXpXcX0XR.L.G.R.qXP.u.u.q.' U ' ' 6 o o     ",
"W./.(.W.}.=X(.0X8X0XeXeXiXeXfXfXfXdXdXvXvXvXvXvXbXmXbXmXmXbXbXmXbXcXbXdXbXvXiXdXaXdXiX>XR.:XG.G./.;X$Xz.6.6.5.4.4.K 1 # o o   o ",
"(.W.(.(.8X8X8X8X8XeXeXeXsXfXsXdXgXvXbXbXgXbXbXNXmXmXmXNXnXnXmXmXBXNXdXiX,X:XiXfXdXiXfXeXwX8X#X0X-XL.k.l.0.0.v.5.5.< # o o X     ",
"(.}.:X}.}.8X8X8XyXeXsXsXfXsXgXgXgXgXbXgXNXNXNXNXNXNXNXNXnXnXAXnXmXBXBXBXBXnXbXnXbXbXdXfXwXMX8X-X1X9X+Xs.9.9.4.4.D $ # X o o o   ",
"=X}.}.8X8X8XeX8XeXyXiXsXsXgXgXNXNXNXNXBXNXNXBXBXBXAXBXAXAXAXAXnXNXBXNXAXNXNXBXnXbXsXbXcX(.0X(.x.L.5.5.9.4.9.9.6.w o   X       o ",
"/.(.}.8XeXyXyXiXyXyXsXgXgXbXNXBXSXSXSXSXFXBXFXAXAXSXSXSXDXSXAXAXAXAXSXBXAXSXbXdXsXfX8X:X0XG.j.} ^ ` 4.T 1.1.,.Y * o X X   o o   ",
"!.!.~.).8XiXyXgXgXyXsXgXgXNXgXBXFXBXFXFXDXDXHXDXDXSXSXDXDXDXDXDXsXBXSXJXSXNXsXbXJXcXVXz.' e.4.5.5.9.1.>.1.1.1.N & # X X o   o   ",
"}.8X8X).).,X}.yXhXgXhXgXPXPXNXCXFXDXCXZXFXDXFXDXDXLXSXDXDXSXGXLXJXLXBXbXfXY./.G.G.x.z.u.0.6.0.8.9.4.4.1.1.4.4.l & # X .   o o   ",
"{ C.V.}.gXhX}.).).|.hXhXlXPXlXlXFXDXZXHXGXGXHXGXHXHXHXHXKXKXDXLXJXBXJXxX$XT.T.l.e.q.0.s.l.9.9.9.9.1.3.<.1.,.` k * $ X       o o ",
"X X X X &.%.KXZXgXyX|.|.|.lXlXlXZXlXZXZXLXHXGXKXKXKXKXKXLXJXJXaX:XW.j.i.| } 7.5.5.3.4.Y <.<.<.,.<.3.<.1.4.4.U z $ O .     o o   ",
"- O - 9 O X 9 a yXKXGXzXjXkXzXzXjXFXGXDXDXgX(.B.j.j.j.u.7.| / | | X.O.i.i.7.i.q.q.q.w.l.a.8.s.s.8.8.0.5.4.` N < o       o o     ",
"o + X ; > - O X   Q KXGXlXjXkXzXHXjXgX).yX,XH.y.O.k.7.i.x.x.G.W./.0XeXwXMXmXMXtXE.v.l.l.d.w.8.9.9.4.<.} N 2 # # o o o o o o     ",
"X o o $ O $ - X +   a jXzXuXA.m.m.Z.V.^.uX7XaXnXJXSXKXKXKXKXKXKXKXmXVXxX$XT.l.l.e.w.s.s.0.s.8.8.9.6.Y 7 # * $ $ $ o o o         ",
"o O o o O $ O O X @ . , uX'.'.'.'.'.].uX].7X).N.Q.H.B.H./.(.H.j.i.i.7.7.e.k.w.k.w.k.w.w.0.9.0.5.` r * * = $ o o o $ o o         ",
"O o X o o X O X O @ @ . *.kX X XF.A.m.$.+.+.| 4.7.0.0.q.q.6.6.0.9.9.9.0.w.w.l.l.v.c.v.l.0.0.5.H < & & = + + o @ o o o o o   . . ",
"o o X X X X X X O + @ . a kXzXzXGXjXnXyX:XoX6X5XJ.d.s.8.a.a.p.8.a.a.a.8.9.2.9.3.3.3.3.6.Y h < : = # + # # o @ o o o X o o o   . ",
"o O O O O O o o O X @ @ ,  X'.Z.N.u.d.i.0.9.9.p.p.8.p.p.a.p.p.2.8.2.2.2.2.3.3.2.5.} J 2 $ : $ $ + + @ + + @ @ o o o X X .       ",
"o o O o o $ + O + . @ X . a &.[ u.w.9.w.9.8.p.p.p.p.p.p.2.2.2.2.2.2.2.2.2.9.8.5.k & : 2 $ O $ O + + # + + + o o o O           o ",
"X o o o $ $ O $ + + - @ @ @   o 6 V 4.s.s.p.>.R R 3.p.2.1.3.p.p.p.a.a.a.9.U r 2 2 < * # $ : $ : % O O $ % o + @ X     .       o ",
"O X o o o # O $ O % o O % > + % = 1 7 N V k C l C C j l l l C j l l j r : & < < * = $ # # # # o X o # # o X .   @ X o     X     ",
"X   o o o o o o o % o O @   O o % & # & 1 1 7 1 1 1 1 1 & & 1 & < : : 2 4 4 8 0 t y y x i c y 0 0 e 4 ; O X . @   .     X   X   ",
"  o     X       o     o o > > a a &.$.N.N.G.R.Q.*X:X,X7XaXaXxXcXdXwXrXeXeX8X0X:X:X/.Q.R.B.h.@.| W Z 0 ; X X     + o o o   X     ",
"O - > 9 9 u Z E W [ #.n.!.yXuX XuXhXuXyXhXyX7XeXeXfXdXwXxXtX3X@XOXc.x.z.q.e.} ^ K B b y 3 : $ o o   o     X .     o     o       ",
"t u u i i i Z Z E W %.f.M.).'.[.7X].].7X(.(.L.G.j.i.../ L N J I J T I I U J J j 1 < & & $ # o O o o . X . @ X .     X           ",
"+ O + - > > > 9 8 9 a f &.A.:.:.f.r.i.' U U V V I J T T T T T T T T ,.>.T >.T T I k r 2 & # $ # % o o O .             X         ",
"O o . X X X   o o @   . . s d s Q E ] L U I ,.1.>.1.T >.T <.>.,.T T I ,.I I T I I U U V M e < * # # # # o   X     X             ",
"    . + X X o o o o X . . *.{.{.A.A.Z.`.y.u.q.d.q.3.Y <.T T T T T <.3.T T Y Y ` 5.7.q.5.' L V M 2 $ # # $ $ o                   ",
"o o o o .   o o o o @ . , [..X.X[.:.A.%._ ) _ ] P F K P P P P P L J P L Y } } ` ' 4.' ` U U U L L e # # # $ o                   ",
"  o o . X o o X   + O . , F.;.:.*.A.*.`.f.f.*.+.+.$.$.n.S.S.=.=.B.o.g.o.( ( P / ] ] ] 4.^ V U V N M M e & o # o                 ",
"o o o o     o o O o X   Q :.;.;.*.*.*.f.m.V.V.`.7X7XyXhXFXlXZXFXFXiXsXdXfXvX:XQ.u.7.4.4.4.,.U V J N N N z 4 & o                 ",
"    o o o # o o o @   a kX'.F.;.:.m.;.-.D.V.h._ G F ! F F ! F H K F / P / P ' ` Y U Y L P V V V N N N k z c 6 > o o             ",
". o     o o # # . . Q  X|.F.:.}.].[.^.^.^.S.$._ W W ( ( F v H H F H F H N H N N N h h N k k k k k k h j h z 6 2 #               ",
"      @ % @ @     Q uX'.F.M.F.~._.^.^.}.].|.].|.hXhXyXhXiX}.}.(.h.g.g. .( K } P V L L N U N N N N k h h g g 6 2 $ o             ",
"  . @   .   > f -._.M.-.-.M.~.~.~._.^.).^.).).^.'.}.}.}.}.}.}.}.}.}.}.).(.{ r...] K K N M k h N h g h h h 6 6 2 $ o             ",
"        > E $.C.f.*.-.M.Z._.D.!.~.D.!.!.^.~._._.~.~.F.}.~.~.!.}.Y.Y.!.Y.V.B.=.C.H.B.L.j.e N h h b h g r g r e : o               ",
"% 8 Q %.*.n.y.-.n.M.C.M.M.Z.M.V.M.S.D.Z.D.!._.^.~.~.D.~.!.Y.Y.Y.B.B.S.S.Y.V.=.M.C.N.h.r./ | ' b g 6 h g g r e 3 o               ",
"$.$.$.$.$.$.n.n.n.C.n.n.M.n.V.m.V.D.D._._.~.!.V.Y.Y.Y.Y.H.Y.Y.V.Y.B.S.B.V.Y.C.B.b.h.$.N.O.O.@.W X.] b g w w q 9 #               ",
"[ [ %.#.$.=.=.$.h.$.y.b.y.b.V.V.Z.M.m.C.C.C.B.B.S.j.j.B.j.h.C.j.j.B.B.j.h.h.j.h.h.h.h.y.y.h.y.) ) / E E b w w 0 # o             ",
"%.+.#.#.#.$.$.$.#.$.=.=.=.h.h.h.b.n.h.b.b.b.N.h.j.j.h.B.g.j.g.g.g.g.g.=.=.( { =.r.@.o.#. .) ~ _ +.7.n c c w c y 3 o o           ",
"[ +.+.%.%.%.o.%.o.o.=.#.#.@.$.$.t.$.t.g.g.g.g.g.h.g.g.g.g.g.g.g.g.g...=. .g. .=.o.@.@.o._ ~ _ G B W +.~ y i 0 9 2 o o           ",
"[ _ [ [ [ [ [ %.o.o.o.o.o.#.#.#.@.@.@.@.@.@.@.r.=.g.g.=.g.=.r.@....... ./ ( {  .#.(  . .i.) S m x m B ] S A ~ m u 9 o           ",
"~ ~ _ _ _ [ _ [ [ o.[ o.o. .o...O.O.O.o.O.O.O.O.} ....X.....X. .|  ./ =. .( { { ..{  . .X.S c c c c z x c v c E n i 3 %         ",
"W ~ ~ ~ _ _ _ _ _ ) { { ) {  . . . . .X.O.X.X.O............. .| }  .| / / ( ( ( ( G S Z n n S S E B B S m v t q u u a 9 o       ",
"E W W W E W W ~ ~ ~ _ ( _ ) ) ) ) | ) | | X.X.| | } | | | } | | | | } ! ) K ( P ! A F W F F A S B E G G S B c i 4 3 u a > +     ",
"Z S E E E Q W E W W ! ~ ~ ~ ~ ( ( / / / / / / ' / / / / / / / / / ! ( / P ) W P F ( F F F F S v B B c B n n m c 0 9 8 8 8 > o   ",
"m Z f n Z S S E E E W E ! W W ] ! ] ] ] ] ] ] ] P ^ P ^ P P P P P P F P g * x K F D F F S S S A n n m m c c z i t 8 3 3 8 $ o   ",
"m n m n m n Z n Z S S S S S G G E E K E ! K ] L K K P K K K K K H P H H p w x H A A B n B n v v m c i i p p y y 0 0 9 3 3 > $   ",
"i i i c m m m m m n n n A A A A B B B L L B E B L K D D L D H D H H H H v v v H A v v v v c c c x p p p y t w 0 t 8 9 3 > > $   ",
"u i i i i i c c m m m m m n m v v B B B B B B B B B B B M H M H H H A H M M v v b c c c c x y y y t t t w 0 8 8 8 9 9 9 3 > - o ",
"u u u i u u y i i c c c c c m m m b v v v v B M v v N v M v M v v v x x x x x x x x y y y t t 0 t 0 8 0 8 8 9 9 9 3 3 3 > 3 > ; ",
"8 u 8 u u u t t u u i y i i c i x x x z x z b b b b b b b x x b x x x y w w x w w t q q q q e 8 8 8 8 9 9 9 4 9 3 9 3 3 > ; > ; ",
"8 8 8 8 u 8 8 t t t t t t y t t y t y y z z y z z z z g z y g w y w w q e e w e e e 0 0 8 9 9 e 9 9 4 3 3 3 3 2 ; ; ; ; ; - - - ",
"> 5 8 9 5 5 8 8 6 8 0 8 t t t 0 t t t y t 6 y w q y q q e w e e q e e e e e e 8 e 4 e 4 9 4 4 3 3 3 3 ; 3 3 > ; ; ; : ; - - - - ",
"3 > 5 3 3 3 5 5 5 5 5 5 5 5 0 5 0 6 6 6 0 6 6 e 6 e e 6 0 e e e e e 4 e 9 4 e 4 4 4 3 4 3 3 3 3 ; 3 ; ; > : : - ; ; - - - O - % "
};
