/* XPM */
static char *_1232_82541b806602e752ed93d00b85ba391a600cc3326e2a129c8ac8c119ff84d937[] = {
/* columns rows colors chars-per-pixel */
"64 64 239 2 ",
"   c #000400",
".  c #040B00",
"X  c #090D02",
"o  c #0C1401",
"O  c #0D1A00",
"+  c #071306",
"@  c #111603",
"#  c #131C01",
"$  c #181E02",
"%  c #151C0B",
"&  c #191D0C",
"*  c #131708",
"=  c #191B16",
"-  c #152101",
";  c #1B2402",
":  c #1C2B02",
">  c #1B230A",
",  c #1F2A0C",
"<  c #1D2315",
"1  c #0D2D16",
"2  c #222D03",
"3  c #232B0B",
"4  c #24270C",
"5  c #253303",
"6  c #293304",
"7  c #2C3A03",
"8  c #25300C",
"9  c #2A340C",
"0  c #2E3A0B",
"q  c #27380C",
"w  c #323C0C",
"e  c #323D06",
"r  c #242B14",
"t  c #272B17",
"y  c #2B3411",
"u  c #2B321C",
"i  c #293715",
"p  c #333D13",
"a  c #30351A",
"s  c #323B1B",
"d  c #353A19",
"f  c #2A3624",
"g  c #353C22",
"h  c #393D2C",
"j  c #373B25",
"k  c #34430C",
"l  c #38480B",
"z  c #344214",
"x  c #394414",
"c  c #3C4A15",
"v  c #35411B",
"b  c #3B441C",
"n  c #3D4B1B",
"m  c #374811",
"M  c #3F5219",
"N  c #3F530C",
"B  c #3D4522",
"V  c #3E4A22",
"C  c #3C442B",
"Z  c #374726",
"A  c #344B33",
"S  c #424E15",
"D  c #414D1D",
"F  c #42471F",
"G  c #45521B",
"H  c #49531D",
"J  c #4C5B1C",
"K  c #455618",
"L  c #515C1D",
"P  c #42560F",
"I  c #4E631F",
"U  c #54661E",
"Y  c #424C24",
"T  c #444D2C",
"R  c #434729",
"E  c #455323",
"W  c #495524",
"Q  c #4D5A23",
"!  c #4B552C",
"~  c #4D5A2C",
"^  c #475429",
"/  c #525D24",
"(  c #535C2C",
")  c #454B35",
"_  c #4B5434",
"`  c #4E5A33",
"'  c #4B5638",
"]  c #525B34",
"[  c #535C3A",
"{  c #545938",
"}  c #4B6129",
"|  c #536325",
" . c #55632C",
".. c #58652D",
"X. c #5C6B2C",
"o. c #576824",
"O. c #546333",
"+. c #596534",
"@. c #5C6A34",
"#. c #5B643B",
"$. c #5D6B3A",
"%. c #57643B",
"&. c #62732C",
"*. c #636C3C",
"=. c #637234",
"-. c #64713C",
";. c #68753D",
":. c #6A7A33",
">. c #31504C",
",. c #345F65",
"<. c #4D4E45",
"1. c #4A5949",
"2. c #555B45",
"3. c #5D5D51",
"4. c #5F6C40",
"5. c #5A6546",
"6. c #5D775C",
"7. c #626C44",
"8. c #62694A",
"9. c #647242",
"0. c #6A7445",
"q. c #6B7648",
"w. c #727D4A",
"e. c #686D56",
"r. c #687554",
"t. c #737B5A",
"y. c #527573",
"u. c #737769",
"i. c #758447",
"p. c #758154",
"a. c #798768",
"s. c #6D897A",
"d. c #8A9470",
"f. c #9DA577",
"g. c #98AB69",
"h. c #929E69",
"j. c #3E6A94",
"k. c #3D6088",
"l. c #3D75A8",
"z. c #3778B6",
"x. c #557685",
"c. c #486D95",
"v. c #5C7A92",
"b. c #496F90",
"n. c #617B94",
"m. c #477AA5",
"M. c #447CB8",
"N. c #557EAA",
"B. c #3A7FC4",
"V. c #3783BE",
"C. c #568995",
"Z. c #729089",
"A. c #5589B7",
"S. c #5491BC",
"D. c #538AB3",
"F. c #6687A6",
"G. c #6792B8",
"H. c #6F95AD",
"J. c #79A3BB",
"K. c #3584C6",
"L. c #3989C9",
"P. c #348CD3",
"I. c #3B8BD4",
"U. c #358CDB",
"Y. c #3A8DDB",
"T. c #3586D3",
"R. c #3A93DC",
"E. c #3A94D8",
"W. c #388DE2",
"Q. c #3A92E3",
"!. c #3790E2",
"~. c #4586C8",
"^. c #4892C9",
"/. c #5393C1",
"(. c #418BD5",
"). c #468DD7",
"_. c #4492D8",
"`. c #5291CD",
"'. c #6A9CCC",
"]. c #669BC7",
"[. c #669FD3",
"{. c #759ECC",
"}. c #69A1CE",
"|. c #67A2CF",
" X c #6AA2D3",
".X c #75A7C9",
"XX c #4696E3",
"oX c #72ACE7",
"OX c #919993",
"+X c #9BA189",
"@X c #9CA296",
"#X c #A4AA8A",
"$X c #A6AA96",
"%X c #AEB297",
"&X c #B0BA97",
"*X c #859CB0",
"=X c #8AAAA9",
"-X c #91AAB3",
";X c #A6A8A4",
":X c #B5BBAA",
">X c #A9B4B5",
",X c #B6C09D",
"<X c #99C1B6",
"1X c #BDC7AA",
"2X c #A2C7BF",
"3X c #C4C6BC",
"4X c #CAD3B4",
"5X c #C4CBAC",
"6X c #88ABCA",
"7X c #90B8CD",
"8X c #A5BDD9",
"9X c #98BEE2",
"0X c #98C1DD",
"qX c #B4C9D6",
"wX c #ADC5D1",
"eX c #99C8F4",
"rX c #B3D9FD",
"tX c #AFD1EC",
"yX c #BCE4FF",
"uX c #D4D9CB",
"iX c #C7D7DA",
"pX c #CCD3D5",
"aX c #D2E6CF",
"sX c #E5E7DD",
"dX c #D1DFE6",
"fX c #C4E3F9",
"gX c #DAF8FF",
"hX c #D7E6EA",
"jX c #E6E9E6",
"kX c #FCFFEC",
"lX c #F8FCEA",
"zX c #E5FFFF",
"xX c #EDFFFF",
"cX c #EAF5FB",
"vX c #FCFEF5",
"bX c #F4FEFF",
"nX c #000000",
"mX c #F7FCF2",
"MX c #EEEFEF",
/* pixels */
"nXnXnXnXnXnXnXnXnXnXnXnXnXnXnXnXnXnXnXnXnXnXnXnXnXnXnXnXnXnXnXnXnXnXnXnXvXnXvXnXnXnXnXnXvXnXnXbXvXnXnXnXnXbXvXnXnXnXnXvXvXvXnXvX",
"nXnXnXnXnXnXnXnXnXnXnXnXnXnXnXnXnXnXnXnXnXnXnXnXnXnXnXnXnXnXnXnXnXnXvXbXnXvXnXcXbXbXbXbXbXbXcXbXbXnXnXnXnXnXnXnXnXbXnXnXvXvXnXbX",
"nXnXnXnXnXnXnXnXnXnXnXnXnXnXnXnXnXnXvXvXvXnXnXnXnXbXnXnXnXnXnXnXnXnXbXnXnXnXbXbXzXzXzXzXtXrXrXrXtX>X;XbXcXnXnXnXnXbXnXpXvXbX8X{.",
"nXnXnXnXnXnXnXnXnXnXnXnXnXnXnXnXnXnXvXvXvXnXnXnXnXnXnXnXnXnXbXnXnXnXnXnXnXnXfX6X6Xj.c.c.l.j.k.k.*XbXbXnXnXnXnXnXnXnXnXbXnXbXcXN.",
"nXnXnXnXnXnXnXnXnXnXnXnXnXnXnXnXnXnXnXnXnXnXnXnXbXvXvXnXnXnXnXnXnXnXbXvXnXxXm.z.z.z.c.c.c.c.F.gXbXcXnXnXnXvXnXnXnXnXbXbXvXbXxXJ.",
"nXnXnXnXnXnXnXnXnXnXnXnXnXnXnXnXnXnXnXnXnXnXnXnXnXnXnXvXnXnXnXnXnXbXnXbXxXfXl.B.z.9XgXcXzXxXxXnXnXnXnXnXnXnXnXnXnXbXbXnXvXnXbXqX",
"nXnXnXnXnXnXnXnXnXnXnXnXnXnXnXnXvXnXbXnXbXnXvXnXnXnXbXnXnXnXnXhXiX-Xv.b.x.v.N.M.m.6XbXbXbXbXvXvXnXnXMXvXvXvXvXvXbXbXhX>XnXnXnXnX",
"nXnXnXnXnXnXnXnXnXnXnXnXnXnXnXnXnXvXnXnXnXvXnXnXvXnXnXnXnXnXbXpXdXiXfXfXcXxXxXzXzXbXnXnXnXnXvXvXvXnXnXnXbXnXnXnXbXbXMXdXnXnXnXnX",
"nXnXnXnXnXnXnXnXnXnXnXnXnXnXnXnXnXnXnXnXnXnXnXnXvXvXnXnXnXnXnXnXbXbXbXbXnXnXbXnXbXbXnXnXvXnXnXnXnXbXnXnXnXnXvXnXvXnXbXnXnXnXnXnX",
"nXnXnXnXnXnXnXnXnXnXnXnXnXnXnXnXnXnXnXnXnXnXnXnXnXnXxXbXxXxXxXbXzXxXbXxXbXbXbXxXxXbXxXbXbXxXbXbXbXxXcXbXbXbXbXbXnXvXnXnXnXnXnXnX",
"nXnXnXnXnXnXnXnXnXnXnXnXnXnXnXnXnXnXbXbXnXnXnXnXbXnX6X'.[.[.[.'.[.].'. X'.}.|.|.|.|.[. X[.}.'.[.'. X[.{.'.{.F.bXbXnXnXnXnXnXvXvX",
"nXnXnXnXnXnXnXnXnXnXnXnXnXnXnXnXnXnXnXnXnXnXnXMXnXzXS.z.z.l.j.l.z.B.~.B.K.K.V.K.K.K.K.K.K.K.K.K.B.~.B.~.~.M.G.bXnXnXnXnXnXvXbXvX",
"nXnXnXnXnXnXnXnXnXnXnXnXnXnXnXnXnXnXbXnXvXnXbXfXeXG.l.D.7XwXgXgXeXA.L.P.E.P.E.P.U.P.P.L.P.P.U.U.T.T.(.(.).M.fXbXnXnXnXnXnXnXnXnX",
"nXnXnXnXnXnXnXnXnXnXnXnXnXnXnXnXnXnXnXnXnXbXqXb.b.A.eXgXcXnXbXbXrXl.S.V.L._.I.P.U.P.P.P.P.P.!.!.W.Q.XX).~.].xXbXnXnXnXnXnXnXnXnX",
"nXnXnXnXnXnXnXnXnXnXnXnXnXnXnXnXnXnXbXnXnXiXv.H.fXxXxXbXbXnXbXxXtXC..XJ.D./.(._.U.U.R.Y.I.I.U.U.W.).I.~.N.gXbXnXnXnXnXnXnXvXnXnX",
"nXnXnXnXnXnXnXnXnXnXnXnXnXnXnXnXnXnXnXnXnXbXxXxXnXnXnXvXnXvXnXnXaXs.Z.>.x.H.S.V.I.U.Y.Y.R.Y.U.U.U.Y.).~.tXbXnXnXnXnXnXnXvXnXnXnX",
"nXnXnXnXbXnXnXnXnXnXbXnXvXnXnXnXnXnXnXnXnXbXnXbXbXnXnXnXvXvXvX&Xp.A i Z 1.>.s.C.^.E.R.U.!.!.E.Q.Y.Y.(./.xXnXvXnXnXnXnXnXnXnXnXnX",
"nXnXbXnXnXnXnXnXnXnXnXnXvXvXnXnXvXnXvXnXbXnXnXnXnXbXvXvXlX%X#.w z ; B 8 - 1 1 >.D. XI.Q.Q.!.!.R.W.I.B.9XnXvXvXnXnXbXbXnXnXvXnXnX",
"nXnXnXvXnXnXnXnXnXnXnXnXnXnXnXnXnXvXvXnXnXnXmXnXnXmX,Xi.k H 0 y - g # j ` . i 1 ,..XoXY.Q.U.R.E.Q._.M.xXbXnXnXnXnXnXnXnXnXvXnXnX",
"nXnXnXvXnXnXnXnXnXnXnXnXnXnXnXnXnXvXnXvXnXnXbXvX$X5.~ | L H Y d r i C B B ^ [ 5.A C. X`._.XXE.E.R.z.yXbXbXbXnXnXnXnXnXnXnXnXnXnX",
"nXnXnXnXnXnXnXnXnXnXnXnXnXnXnXnXnXnXnXbXvXmXkXd.$.@.=.I Q ( ! ! b b w 0 ~ O.Z o A C.J.G./.`.L.^.^.S.zXbXnXnXnXnXnXnXnXnXvXnXnXbX",
"nXnXnXnXnXnXnXnXnXvXnXnXnXnXnXnXnXnXnXnXMXkX` ~ } X.l N E 9 ; d 0.H w +.q.s ' u . 1.y.C.]././.S.V.gXzXnXnXnXbXnXnXnXnXnXnXnXnXnX",
"nXnXnXnXnXnXnXnXnXnXnXnXnXnXnXnXnXbXnXnXaXd.$.@.W K n n Y 9 D / 6 ( / D : - 1.r . i n Z y.{.G.fXwXzXnXbXnXnXnXvXnXnXnXnXnXnXnXnX",
"nXnXnXnXnXnXnXnXnXnXnXnXnXvXnXnXnXbXvX@XV V  .l 5 Y E ! y Y 6 ;.0.( S E v s $ % g + m z + y.qXqXMXvXvXnXnXnXnXnXnXnXnXnXnXnXnXvX",
"nXbXnXnXnXvXnXnXnXMXnXnXvXvXnXnXnXnXvX2.%.W n D - %.s i w / 0...] D b ( c Q ` o q @.;.c y % >X>XnXnXnXnXnXnXnXnXvXnXnXbXnXvXnXnX",
"vXnXnXvXvXnXvXnXnXnXnXnXmXvXvXvXvXvXlXr.0 - z p ^ # 3 : / 0./ D 5 Y ` p w ..n ~  .X.Q H #.' e.uXnXnXbXdXMXnXbXbXvXvXnXnXnXnXnXnX",
"vXvXnXnXnXvXnXnXnXnXbXbXbXxXbXxXkXkX5XH 5 : k k / S w 9 ( F x E Y q t.+... .Q K K | O.] d ! > mXnXbXzXn.cXnXnXnXvXvXnXnXnXnXnXnX",
"nXnXnXnXvXnXnXvXnXcXbXbXxXgXpX,Xd e 6 @.9.2 w ;.X.X.W *.W 2 F p z 8 5 w 2 ~ k G } Q 5 y F Y 2.mXcXbX9XF.bXnXnXnXnXnXnXnXnXnXnXnX",
"nXnXnXnXnXnXvXnXnXbXmX7X>.=Xs.} W X.Q Q c ;.~ W G J G 7 / 7 ! @ o a b o d 4 # [ +.p B $ # ; uXnXnXvXF.{.bXvXnXvXnXnXnXnXnXbXnXnX",
"nXnXnXnXnXvXnXsXsXsX*Xx.H.-XA } &.k W k Q ....m S k ..=.=.=.( d 7.` ] F { # ; F p 0 s v ! y mXnXvXwXH.0XxXnXvXnXnXnXnXnXnXnXnXnX",
"nXnXnXMXvXnXmX$X2.+X=X=X-X<X} o.l | D W  .5 W k k X.l | / e H ..e / W -.S ;.=.w l k 9.5.- a.nXvXvXd.H.iXbXvXnXnXnXnXnXnXnXnXvXnX",
"nXnXnXnXnXvXvX$X{ 7.r.Z.wXs.} I K x ^ n ~ ( ~ z P o.;.S 6 x k H / L ;.@.G W D L X.G V : 3 e.vXnXvX@ >.dXnXvXnXnXnXnXnXnXnXnXnXvX",
"nXnXnXnXnXvXvX+XU U } A a.A } : : G 9 ~ E R . d -./ S d p R R 9 *.*.- ! x ] ; W | S 6 ` y d.vXvX5XC f jXnXnXnXnXnXnXnXnXnXnXnXvX",
"nXbXnXvXnXnXvX+XL L i.J K 5 9.m 9.n ^ ~ ; . r { ( e ! 6 R y @ [ ( W d d 2 ` 9 2 G K  .~ y d.mXkXe.o % mXnXnXnXnXnXnXnXnXvXnXnXnX",
"nXbXnXnXnXnXnXe.F S } I I o.k M k k c n # ; q.;.d 2 b 4 X * u T F F F ! W p B #.W ..@.@.8 %.uX#X. p & vXnXnXvXnXnXnXnXnXnXnXnXnX",
"nXnXnXvXnXnXvX<.y e I &.&.&.M O.V O.W ^ $.p...S 6 d j 8.h ) u b R ^ # ! ] ] ~ 2 @.@.@.k E #.~ c *.! u.vXnXvXnXnXnXnXnXnXnXnXnXnX",
"nXnXvXnXnXnXvXh ! 2 o.L } - $.: Z 5 0 m D H l @.0.[ y R { d ] F ^ d #.] @ . D O.k p # i ~ 9.! ` w { e.mXvXnXvXvXnXnXnXnXnXnXnXnX",
"nXvXvXvXnXnXnXX 4 H J J m q z A A q k Q =.l / ( w -.p { d _ ! ! F 0 S p 7.v q.W #.r r g y b O v _ y +XvXvXnXnXnXnXnXnXnXnXnXnXnX",
"nXnXnXnXnXnXjX  @ x :.&.k k O.: , , E i.X.7 - $ | e F d   a H -.x F Q E Y ` y # C r u g u   . # 8.$ 3XvXnXnXvXnXnXnXnXnXnXnXnXnX",
"nXnXnXvXnXnX>XX # J &.U q 9.v : % ' @.k 7 +.d C S #.d T t y d +.- ~ $.9.p y , ) . . r u <   . t.{   sXnXnXnXnXnXnXnXnXnXnXvXnXnX",
"nXnXnXvXnXnX;Xh V X.=.N N M ^ ' ) s E c z V ' ' g < C & 3.  h   - ! Y p 7.9 [ s <.* o . $ R r._ r a vXnXnXnXnXnXnXnXnXnXvXnXnXnX",
"nXnXnXnXMXnXu.* X.I l 5 i.Z z O . O p ! ~ _ s t h . . o * @ 4 s n [ b n ] 9.V ' > . . T ' d B o { & vXnXnXnXnXvXnXnXnXnXnXnXnXnX",
"nXnXnXnXnXvX8.x U I O $.m : O v s - > $ * o C C g . o .   2.! H 7 Q #.E - > o T #.` %.9._ @ *.7.s 8.vXnXvXnXnXnXnXnXnXnXnXnXnXnX",
"nXnXnXnXnXvXT @.o.P } M 5 $.A V y _ f . . . B i ! o ) u . # S *.X.G # 9 ! s i ` ^ z +.0 ! d.T 2 4 t.vXvXnXnXnXnXnXnXnXnXnXnXnXnX",
"nXnXnXnXnXlX4.k k k k : =.k Y 0 p x _ # C B n c o T _ _ { #.+./ D 6 E n Q O.7._ o s B #.] B { 3 o %XvXnXnXnXvXnXnXnXnXnXnXnXnXnX",
"nXnXnXnXnXvXn 2 7  .l } K S : x ..F . ' 9 ~ c k W ! g - F x 4 H @.F b ] +.x ] , 8..   4 4 o $ e.C 4XvXnXnXnXnXnXnXnXnXnXnXnXnXnX",
"nXvXnXnXvXaXE O.} l I Q 2 ^ e W w ] d { ~ w X.J *.+.B 4 F *.w.H V ; 3 2 O $ > ) [ f   * t '   * h sXnXnXnXnXnXnXnXnXnXvXvXnXnXnX",
"bXnXnXvXmX1XM c M M | | ] - D +.5 Y a B 4.x c Q ( 0 d 4 F *./ x y r ' u r u r y 3 3 $ @ # #       vXnXnXnXnXnXnXnXnXnXnXnXnXvXnX",
"nXnXnXnXvXa.c | k o.} - z z 4.5 $ t.t.#.b #.4.` z 7.B 7.t.#.{ ! a u.' = R #X#X%X&X#Xf.f.f.f.h.h.+XvXvXvXnXnXnXnXnXnXnXnXnXnXnXnX",
"nXnXnXMXmX1Xh.:.g.l $.~ i 2., O @ 4 9 # r [ r g o s X d @ t 4 @ & < X           X $ d p ( W ( *.u.vXvXvXvXvXnXnXnXnXnXnXnXnXnXnX",
"vXvXvXvXkX4.: 5 7 : v . % *   f = = = . *   + * <           3.<.u.u.<.<.) 3X3XpX3X:XvXvXkXvXkXvXvXvXnXvXvXnXnXnXnXnXnXnXnXnXnXnX",
"vXvXvXvXvXd.f.0.z : O .         = f t = < u.@X@XOX;XvXnXnXnXnXnXnXmXvXnXnXnXnXnXnXvXnXnXnXvXnXnXvXnXvXnXnXvXnXnXnXnXnXnXnXnXnXnX",
"nXvXvXnXmX:X5X4X4X5X:X;XpXjXjXsXjXnXvXvXmXnXnXmXnXvXnXnXnXnXnXnXnXnXnXnXnXnXnXnXnXnXnXnXnXnXnXnXnXvXnXvXnXnXnXnXnXnXnXnXnXvXnXnX",
"nXnXnXnXnXvXkXkXkXkXvXvXnXnXvXnXvXnXnXnXnXnXvXnXnXnXvXnXvXnXnXnXvXnXMXnXnXbXnXnXnXnXnXnXnXnXnXnXnXnXvXnXnXnXnXnXnXnXnXnXnXnXnXnX",
"nXbXnXnXnXnXvXvXvXkXnXnXvXnXnXvXvXnXnXvXnXnXnXvXnXnXnXnXnXnXnXnXnXnXnXnXnXnXnXnXnXnXnXnXnXnXnXnXnXnXnXnXnXnXnXnXnXnXnXnXnXnXnXvX",
"nXnXnXnXnXnXnXvXvXvXnXnXnXnXvXnXnXnXnXnXnXnXnXnXnXnXnXnXnXnXnXnXnXnXnXnXnXnXnXnXnXvXnXnXvXnXvXvXvXnXnXnXnXnXnXnXnXnXnXnXvXvXmXMX",
"vXnXnXnXnXnXnXnXnXnXnXnXnXnXnXnXnXnXnXnXnXnXnXnXnXnXnXnXnXnXnXnXnXnXnXnXnXnXnXnXnXnXnXnXnXnXnXnXnXnXnXnXnXnXnXnXnXnXnXnXvXvXnXjX",
"nXnXnXnXnXnXnXnXnXnXnXnXnXnXnXnXnXnXnXnXnXnXnXnXnXnXnXnXnXnXnXnXnXnXnXnXnXnXnXnXnXnXnXnXnXnXnXnXnXnXnXnXnXnXnXnXnXnXvXnXnXnXvXjX",
"nXnXnXnXnXnXnXnXnXnXnXnXnXnXnXvXnXnXnXnXnXnXnXnXnXnXnXnXnXnXnXnXnXvXnXvXvXnXnXnXnXnXnXnXnXnXnXnXnXnXnXnXnXnXnXnXnXnXnXnXnXnXvXMX",
"nXnXnXnXnXnXnXnXnXnXnXnXnXnXnXnXvXnXnXnXnXnXnXnXnXnXnXnXnXvXnXnXnXnXnXnXnXnXnXnXnXnXnXnXnXnXnXnXnXnXnXnXnXnXnXnXnXnXnXnXnXnXnXvX",
"nXnXnXnXnXnXnXnXnXnXnXnXnXnXnXnXnXnXnXnXnXnXnXnXnXnXnXnXnXnXnXnXnXnXnXnXnXnXnXnXnXnXnXnXnXnXnXnXnXnXnXnXnXnXnXnXnXnXnXnXnXnXnXnX",
"nXnXvXnXnXnXnXnXnXnXnXnXnXnXnXnXnXnXnXnXnXnXnXnXnXnXnXnXnXnXnXnXnXnXnXnXnXnXnXnXnXnXnXnXnXnXnXnXnXnXnXnXnXnXnXnXnXnXnXnXnXnXnXnX",
"nXnXnXnXnXnXnXnXnXnXnXnXnXnXnXnXnXnXnXnXnXnXnXnXnXnXnXnXnXnXnXnXnXnXnXnXnXnXnXnXnXnXnXnXnXnXnXnXnXnXnXnXnXnXnXnXnXnXnXnXnXnXnXnX",
"nXnXnXnXnXnXnXnXnXnXnXvXnXvXnXnXnXnXnXnXnXnXnXnXnXnXnXnXnXnXnXnXnXnXnXnXnXnXnXvXnXvXnXnXnXnXnXnXnXnXnXnXnXnXnXnXnXnXnXnXnXnXnXnX"
};
