/* XPM */
static char *_8062_0349f9737c0e59cd84c4f702dbc107230c09605bf49eebd24539fe2ba43200ea[] = {
/* columns rows colors chars-per-pixel */
"64 85 255 2 ",
"   c #0C0B03",
".  c #050A01",
"X  c #0D1401",
"o  c #0B1704",
"O  c #131303",
"+  c #121B02",
"@  c #171A0A",
"#  c #13160E",
"$  c #201C0B",
"%  c #152201",
"&  c #1B2301",
"*  c #1D290B",
"=  c #1A2409",
"-  c #1B2516",
";  c #1C311E",
":  c #232908",
">  c #2A340B",
",  c #293405",
"<  c #343B0B",
"1  c #252817",
"2  c #2C331A",
"3  c #2B3616",
"4  c #333D14",
"5  c #35381A",
"6  c #352F10",
"7  c #1C2A25",
"8  c #282B22",
"9  c #2C3527",
"0  c #343B23",
"q  c #373829",
"w  c #383C35",
"e  c #2A3533",
"r  c #0D1B21",
"t  c #433B2B",
"y  c #453A1E",
"u  c #3A430B",
"i  c #3A4419",
"p  c #3A4527",
"a  c #3B4638",
"s  c #43481A",
"d  c #4A541A",
"f  c #565A1A",
"g  c #494E0C",
"h  c #5D651C",
"j  c #67691D",
"k  c #464925",
"l  c #4B5524",
"z  c #4A5628",
"x  c #565829",
"c  c #474B37",
"v  c #495437",
"b  c #575937",
"n  c #564B30",
"m  c #655B3A",
"M  c #675E27",
"N  c #5A632C",
"B  c #5A6628",
"V  c #5B6637",
"C  c #5E7238",
"Z  c #656928",
"A  c #6A752C",
"S  c #74762B",
"D  c #656938",
"F  c #746D34",
"G  c #6B7335",
"H  c #6A763A",
"J  c #747C3C",
"K  c #777937",
"L  c #726B29",
"P  c #605819",
"I  c #394949",
"U  c #3F5169",
"Y  c #495648",
"T  c #565B46",
"R  c #495756",
"E  c #5A5954",
"W  c #444C49",
"Q  c #5A6647",
"!  c #596457",
"~  c #556C59",
"^  c #676A47",
"/  c #746C45",
"(  c #6B7647",
")  c #737B44",
"_  c #757848",
"`  c #686A56",
"'  c #687757",
"]  c #767A58",
"[  c #726954",
"{  c #596867",
"}  c #5C6D76",
"|  c #646A67",
" . c #6A7668",
".. c #73796A",
"X. c #6A7878",
"o. c #767B76",
"O. c #6F6D6A",
"+. c #5E5D56",
"@. c #2C3844",
"#. c #817D37",
"$. c #847C46",
"%. c #837D53",
"&. c #827A6A",
"*. c #798339",
"=. c #77802F",
"-. c #7C8444",
";. c #798549",
":. c #7B8556",
">. c #79905C",
",. c #798568",
"<. c #798677",
"1. c #738B78",
"2. c #85883B",
"3. c #868948",
"4. c #899348",
"5. c #95964A",
"6. c #848C54",
"7. c #888857",
"8. c #8A9355",
"9. c #969956",
"0. c #938B55",
"q. c #858966",
"w. c #8A9566",
"e. c #959867",
"r. c #858B77",
"t. c #8B9678",
"y. c #969975",
"u. c #A49D76",
"i. c #99A27A",
"p. c #98A16B",
"a. c #A4A577",
"s. c #A7A971",
"d. c #94A04E",
"f. c #6E7C86",
"g. c #5A7FBA",
"h. c #567AB4",
"j. c #59748A",
"k. c #778887",
"l. c #758999",
"z. c #79949A",
"x. c #6F8A8D",
"c. c #5B82BD",
"v. c #5F8ABF",
"b. c #7997A7",
"n. c #628ABE",
"m. c #6A8DB7",
"M. c #6A93BB",
"N. c #7595B8",
"B. c #6E8CA7",
"V. c #7EA4BA",
"C. c #5F86C2",
"Z. c #5F89C2",
"A. c #6086C4",
"S. c #638BC4",
"D. c #638CCA",
"F. c #698EC8",
"G. c #6591C5",
"H. c #6A92C6",
"J. c #6592CE",
"K. c #6D95CA",
"L. c #6E9ACD",
"P. c #679ACC",
"I. c #729ACE",
"U. c #7499C7",
"Y. c #6694D1",
"T. c #6996D3",
"R. c #6C9AD4",
"E. c #6D9CDB",
"W. c #6899D5",
"Q. c #739DD2",
"!. c #739DDC",
"~. c #769BD4",
"^. c #7AA3C9",
"/. c #6EA2DB",
"(. c #6CA1D4",
"). c #75A2D5",
"_. c #79A2D5",
"`. c #74A3DA",
"'. c #79A5DA",
"]. c #7BAADD",
"[. c #76A9DB",
"{. c #76A9D7",
"}. c #719CE1",
"|. c #74A4E3",
" X c #7EACE1",
".X c #78A8E6",
"XX c #7EB1E4",
"oX c #6FA8E1",
"OX c #848A88",
"+X c #899687",
"@X c #989B86",
"#X c #889997",
"$X c #909596",
"%X c #99A797",
"&X c #93A68D",
"*X c #ACB397",
"=X c #ADB191",
"-X c #879AA8",
";X c #8E9DAC",
":X c #97A5A7",
">X c #86A7B9",
",X c #98A9B7",
"<X c #90AEB2",
"1X c #A9B5AA",
"2X c #A7B8B7",
"3X c #ADB4AA",
"4X c #BAC2AF",
"5X c #CBCCB1",
"6X c #C2C99F",
"7X c #87A8C7",
"8X c #83ADD8",
"9X c #89B2D9",
"0X c #98B9DA",
"qX c #96B3C8",
"wX c #A5B9CB",
"eX c #82ADE6",
"rX c #83B3E3",
"tX c #8BB4E5",
"yX c #8AB9E9",
"uX c #95BCE6",
"iX c #96BEF1",
"pX c #B8C3C8",
"aX c #B7CBD8",
"sX c #ACC5D5",
"dX c #9CC3E5",
"fX c #9BC4EB",
"gX c #9AC6EB",
"hX c #9BC4F2",
"jX c #A3C6ED",
"kX c #A5CAEC",
"lX c #AACDEC",
"zX c #A7C7E4",
"xX c #B6CEE7",
"cX c #ADD1E9",
"vX c #B3D3EB",
"bX c #BBD3EB",
"nX c #BAD5E6",
"mX c #A6CBF2",
"MX c #ACD2F3",
"NX c #B8D8F3",
"BX c #98C1D7",
"VX c #C7D5D9",
"CX c #CBD3CD",
"ZX c #D9E4D9",
"AX c #C5D8E9",
"SX c #D1DDE9",
"DX c #C7DAF3",
"FX c #C2CEE4",
"GX c #D7E5E9",
"HX c #CAE4F9",
"JX c #D7E6F7",
"KX c #D3EBF6",
"LX c #E5F7FD",
"PX c #EEF3F2",
"IX c #C1BF99",
/* pixels */
"G.G.H.H.H.H.H.H.H.H.H.H.H.H.H.H.H.H.K.H.F.G.H.S.F.F.S.S.S.S.n.n.F.F.S.A.A.A.A.A.A.A.A.v.c.A.A.c.C.g.g.c.g.g.g.h.h.h.h.h.h.h.h.h.",
"H.H.H.U.H.K.U.K.H.K.H.K.H.H.U.H.H.K.H.H.H.H.G.S.F.m.F.S.F.n.A.S.A.A.A.A.S.A.A.A.A.A.A.v.v.C.A.c.C.c.g.C.C.g.g.g.h.C.C.h.h.h.h.h.",
"K.H.K.K.K.K.U.K.U.K.U.K.L.H.K.H.H.H.H.H.H.m.F.G.S.G.S.S.S.S.S.A.A.A.S.A.n.A.A.A.C.A.A.A.A.A.c.c.C.c.C.c.C.g.C.C.C.c.h.h.h.h.h.h.",
"K.K.K.U.I.K.K.K.K.K.K.K.H.U.H.U.H.H.H.H.G.H.F.F.S.S.F.S.S.A.S.n.n.n.n.n.A.n.A.S.A.A.A.A.A.C.A.C.C.C.c.C.g.C.C.C.C.c.C.h.h.h.h.h.",
"K.U.I.K.I.I.I.U.I.I.I.K.L.K.K.K.H.H.H.H.H.G.m.F.H.m.F.S.S.S.S.n.n.v.n.v.n.c.A.A.A.C.A.A.A.C.C.C.C.C.C.C.C.C.C.C.C.c.c.c.C.g.g.g.",
"K.K.K.I.I.K.I.K.K.K.I.K.K.K.H.K.H.H.F.H.F.G.F.S.F.S.S.m.S.S.S.n.v.n.n.v.n.n.C.n.A.C.C.A.C.C.A.A.C.C.C.C.C.C.C.C.Z.C.C.c.g.c.g.g.",
"K.I.I.I.I.I.I.I.I.I.K.K.K.K.K.K.H.G.H.H.m.F.S.H.S.H.S.S.S.S.S.S.n.v.Z.v.n.A.v.C.A.C.C.C.A.A.C.A.C.C.C.C.C.Z.C.C.C.C.C.C.C.g.C.g.",
"I.I.I.I.I.I.I.I.I.I.U.I.L.U.K.H.H.H.H.H.G.S.S.G.S.S.S.S.S.S.n.S.Z.S.n.A.Z.C.v.v.C.C.C.A.A.A.A.C.C.C.C.C.C.Z.D.C.A.S.C.C.C.c.C.c.",
"U.I.U.Q.Q.Q.~.I.I.I.I.K.K.K.K.K.H.H.H.H.H.F.S.G.G.S.S.S.S.S.S.S.S.Z.Z.S.S.A.A.A.A.A.S.C.C.C.C.C.C.A.A.A.D.A.D.A.D.C.Z.C.A.C.A.A.",
"Q.Q.Q.I.U.I.I.Q.I.I.I.I.I.K.U.K.K.K.H.H.H.G.F.F.G.S.G.G.S.G.n.Z.Z.Z.Z.Z.S.A.A.A.S.A.C.S.S.C.Z.C.C.A.A.A.A.D.A.D.C.D.D.Z.A.A.C.C.",
"Q.Q.~.I.Q.I.U.Q.I.I.I.K.I.K.K.K.K.H.H.K.H.G.G.m.S.G.S.S.S.G.S.n.D.Z.Z.D.S.S.S.S.Z.S.S.C.C.C.C.C.D.C.A.D.D.A.D.A.D.S.A.Z.A.A.C.C.",
"Q.Q.Q.Q.U.Q.Q.I.I.I.I.U.I.I.K.K.K.K.K.H.H.H.F.F.D.M.G.S.S.Z.S.S.D.S.Z.S.S.S.S.S.D.C.S.S.S.C.S.A.C.D.A.D.A.D.A.D.D.A.D.D.D.A.A.A.",
"Q.^.Q.Q.U.Q.Q.Q.I.K.K.U.K.U.K.K.K.U.H.H.H.G.G.G.G.S.S.G.D.S.S.S.A.A.n.n.S.S.S.n.S.A.S.A.D.A.A.D.D.C.D.A.A.D.D.A.D.D.D.D.A.D.A.A.",
"~.~.~.Q.Q.Q.U.I.I.I.I.I.I.K.K.K.K.K.K.H.H.H.F.F.G.G.F.S.D.S.G.n.n.n.n.n.S.S.S.S.S.S.S.S.A.S.A.D.A.D.D.D.D.D.D.D.A.D.C.A.D.A.A.D.",
"_.Q.~.Q.Q.Q.Q.I.I.I.I.I.I.K.I.I.K.K.H.H.H.H.F.G.H.G.G.S.G.G.S.G.m.M.n.n.m.F.F.S.S.S.S.A.D.D.A.D.D.A.D.A.D.A.D.D.D.D.D.D.D.A.D.D.",
"Q._.^.~.Q.I.I.I.I.I.I.I.I.I.I.I.I.K.K.U.H.F.H.G.F.S.F.F.S.S.G.n.M.m.B.B.m.m.m.S.S.G.F.S.S.S.D.A.D.D.D.D.D.D.A.D.D.C.A.D.A.A.A.D.",
"_._.Q._.Q.U.Q.Q.Q.U.I.I.Q.I.I.L.I.T.K.U.K.K.K.K.H.G.F.F.D.F.G.m.M.l.O...} N.n.S.S.S.F.D.G.D.D.D.A.D.D.D.D.D.D.D.D.D.C.D.C.D.D.D.",
"_.~._.~.Q.Q.Q.Q.Q.I.I.I.I.I.I.I.I.I.U.K.K.K.F.K.G.G.K.K.D.F.G.m.B.x.] ^ Y l.U.F.D.D.F.D.m.D.D.D.D.D.D.D.D.D.D.D.D.D.D.D.D.D.C.D.",
"_._.Q.Q.Q.Q.Q.Q.Q.Q.Q.I.I.I.I.Q.I.I.K.K.K.K.K.K.K.F.H.G.J.D.J.H.B.x.b _ / o.B.S.H.H.F.F.F.F.J.D.D.D.D.D.D.D.D.Y.D.D.A.D.D.C.D.D.",
"_.Q._.Q._.Q.U.Q.Q.Q.I.I.Q.I.I.Q.T.~.K.K.I.K.K.T.R.H.G.H.K.F.T.m.z. .^ x 7.] -Xm.H.H.F.D.F.D.D.D.Y.D.D.D.D.D.D.D.D.D.D.D.D.D.D.D.",
"_.Q.Q._.Q.Q.Q.Q.Q.Q.Q.Q.Q.I.I.I.R.I.I.K.K.K.K.K.K.P.K.P.H.K.T.N. .^ ( ;.$.%.&.b.H.H.H.F.F.F.F.F.D.D.Y.F.D.D.D.D.D.D.D.D.D.D.D.D.",
"_._._.I._.I.Q.Q.Q.Q.U.I.I.I.I.T.I.R.Q.L.I.K.K.K.K.H.H.L.H.H.H.b.t.) ;.3.$.$.] OXN.H.H.H.F.J.J.J.Y.D.D.D.D.D.D.D.D.D.D.D.D.D.D.D.",
"_.).)._._.I.Q.~.Q.I.Q.I.I.Q.I.I.Q.R.I.I.I.K.I.K.L.K.H.H.K.U.N.x.^ 0.-.G #.#.7.o.b.H.J.T.H.J.J.J.Y.D.Y.Y.Y.D.Y.D.Y.D.D.D.D.D.Y.Y.",
"_.Q.).).)._.Q.^.Q.Q.Q.I.Q.I.Q.L.Q.Q.I.I.L.I.K.K.K.K.L.K.G.N.b.k.-.2.J x 0.3.%.] z.m.K.K.J.Y.Y.Y.Y.Y.D.Y.Y.D.D.D.D.Y.Y.D.Y.Y.D.Y.",
"_.'.).~.).~.).~.).R.Q.Q.Q.Q.Q.Q.T.I.I.I.I.I.K.I.K.I.K.H.U.N.#X' 4.S K 0.0.3.$.&.x.N.H.F.T.T.Y.Y.Y.Y.Y.D.D.Y.D.Y.D.D.D.Y.D.D.Y.D.",
"'.).).'.).).).!.Q.).Q.Q.I.R.I.Q.I.I.I.~.K.I.R.I.K.I.T.K.I.b.1.6.2.K P K F L 0.q.o.>XH.I.K.J.Y.P.J.D.Y.Y.Y.D.Y.D.Y.Y.Y.D.Y.Y.Y.Y.",
"'.'.'.).~.).).~.).Q.Q.Q.Q.).Q.R.I.I.I.I.I.I.Q.T.Q.I.Q.I.M.z.' 4.3.2.5.5.K M F %.,.#XN.K.K.K.T.J.J.Y.Y.D.Y.Y.Y.Y.Y.D.D.Y.Y.Y.Y.Y.",
"'.~.'.'.'.).).).).).).Q.Q.).Q.Q.I.~.I.U.I.I.R.Q.I.I.T.I.^.z.6.4.*.L 4.j S 9.0.3.6.@Xb.N.K.I.G.P.J.J.Y.Y.D.Y.Y.Y.Y.Y.Y.Y.Y.Y.Y.Y.",
"'.'.'.'.'.~.~._.Q.).).!.Q.).Q.Q.R.I.I.I.L.L.Q.R.~.I.L.U.N.z.3.2.4.4.2.S 2.j 5.2.*.;.k.N.H.~.J.T.Y.Y.Y.Y.Y.W.Y.W.Y.Y.Y.Y.Y.Y.W.W.",
"'.'.'.~.'.'._.'.).).).~.Q.Q.R.).L.Q.Q.I.I.(.R.R.I.I.L.^.V.:X8.2.#.4.S S S L K *.3._ ..-XU.!.R.T.Y.Y.W.Y.Y.Y.W.Y.Y.Y.Y.Y.Y.Y.W.W.",
"'.'.'.'.'.~.'.~.).~.).`.).).Q.Q.R.(.).I.L.(.(.R.~.~.R.M.V.1.d.*.#.2.S h j Z K 7.%.7.,.k.U.J.E.T.T.T.W.W.Y.Y.Y.Y.Y.Y.Y.Y.W.W.W.W.",
"'.'.'.'.'.'.'.'.'.).).~.).Q.Q.(.L.L.I.(.L.L.R.).R.I.).^.b.z.8.d.S K 2.#.3.) F H ^ _ _ ! 7X~.T.W.E.W.W.W.Y.W.W.W.Y.W.}.W.W.W.W.W.",
"'.'.{.'.[._.'.).{.).).).).Q.).).).L.).R.L.(.Q.R.).(.(.V.z.i.-.*.=.2.S S A B H 3.L $.F q.>X~.(.W.(.(.W.W.T.T.W.Y.W.W.W.T.E.R.T.W.",
"'.].'.'.'.{.).'.).).{.).).).(.Q.).).(.(.(.).R.)./.^.^.#X+X( *.*.f 2.h A 3.D J K 5.3.9.w.-X~.L.(.W.W.W.W.R.T.W.W.Y.W.W.E.T.~.R.W.",
"].'.'.'.'.'.'.'.{.[.`.).).).).`.(./.`.!.Q.).).E.!.I.b.z.p.;.V H A K S 9.H / J Z K L S _ R B.I.R.(.(.(.T.R.R.W.E.(.P.W.W.W.E.E.E.",
"].].].[.'.[.].'.`.].[.).`.).).`.E.`.}.~.Q.I.(./.~.^.1.>.d.2.) ;.A K -.g s D 9.9.4.3.N H ..l.U.Q.R.Q./.R.R.E.!.E.W.(.E.E.E.E.}.}.",
"].].'.].].'.'.'.'.'.`.'.).).`.).`.!.~.'.).).(.(._.>X,.*.K *.-.-.3.-.D ] y < 3.S *.) D c ! f.N.~.~.!.}.E.E.E.}.E.E.W./.E.E.E.!.}.",
"].].].].].'.].'.'.].'.`.[.).`.`.`.`.~._.).).).{.U.<X>.=.*.K J *.3.Z l l y D K S f x ] ^ c Y >X^.~.~.}.}.}.}.E././.E././.(.`.!.}.",
" X].].].'.].'.].[.'.[.'.).`.`.).).)._.^.^.{.(.V.<X1.>.4.4.5.3.Z e.H s , F x 3.3.g ( ) N u v a z.V.^.`.}.}.E./.(././.E.`./.`.).!.",
"].].8X'.].].].].'.].].'.].).].`.{._.{.{.{.{.^.<Xt.e.-.Z A g 8.H l N 8.J K f 3.G ( q.6.;.G V k 1.>XV.`.}.|./.(.(.oX/.`.E./.!.`.'.",
" X]. X].].].].].].[.[.[.].[.).[..X[.[.[.[.).>Xk.;.4.A F l l d 8.A B A A f ;.D n ` ` N H 8.G C ' x.>X).|.oX/./././.oX|.|.|./.`.'.",
" X X].].].].].].].].].].[.].].].`..X].{.[.^.<Xk.Z 4.J ) ' l H d B ;.H f g H V , c ^ D G B G ( V 1.>X_.`.`.oX`.!.oX}.|.|.oXoX'.|.",
"]. X]. X X].].].].].].].].].]..X.X`.[.[.].{.7X#X^ 8.3.Z :.^ >.;.q._ _ ) B *.;.h :.D ) K B d i z Q z.8X|.]..X.X X|..X|.}.oX|..X}.",
"eX].eX]. X X]. X].].XX].].].[.'.XX].].[.{.7X<X:X:.:.e.N e.8.d l : 5 x Z *.4.=.-.3.H h 3.J ;.8.v ' z.7X7X>X7X_..X|..X.X.X.X.X.XeX",
" XXXXX X X X X].].XX].].].].].]. X8X X9X9XV.1.1.t.Q t...;.l i u D C Z f B H : d ;.*.d.-.=.*.>.p a ~ z.&X%X#X7XeX[.|.eX.X.X.X.X.X",
"rX8XXXrX X XXX X].]. X].]. X].].].8X].{.qX-X' >.t.w.i.( V u , : G B -.6.H B , H j g =.=.u , ;.v %X>.>.*.8.,.<X_. X.XeX.X.X.X.X.X",
"XXrXrX X8X X X8XXXXX8X X8XXX]. X[.rXXX].V.1.u B 5.5.G :.! | | p K 4.u x Z ) f h % =.B *.4.4.=.d ,.i.V ;._ q.#XqX8X X X X.X.XeXeX",
"8XXXXXrXXXrXXXXXXX9XXX XXX X XXX8X].[.].>X1.i ;.S S 3.q.r.&X&X] -.A D d H g A 4.;.=.i % 4.=.;.u l C t.' 6.q.r.#X9X8X8X XXXXXeXyX",
"XXrXXX9XrXXX].XXXXXXXXXXXXXX X X{.rXXXXXBXz.>.;.=.u z V Q ] ( N ( V d ;.4.*.=.*.=., % > V u d i V 3 ( k _ / @X:XqX7X7XB.7XtXeXeX",
"yX XrXrXXXrXyXXXXX9XrXXXrXXX9XXXyX{.rXrX9X<X>.d =.u V ,.V > ^ ( v ( ;.f H A u g ;.;.: % p i u ;.r.T 1 Q 6.w.q.&X,XqXb.f.f.9XtXyX",
"tXyXyXrXtXtXeXtXrXrXrXrXrXrXXXrXXXrXyX{.BXV.>.*.J ( 3 T Y V ) N i :.B u p i , u > p a v Q Q Y a c ! c i G 3.y.t.#X2X;XX.X.-XuXyX",
"tXuX9XyXrXtXtXtXyXrXrXrXrXyXrXrXrXyXXX{.qXx.=.=.B N :.a Q ' ;.( ] :.=.J p Q :.b 3 T ; p i a Q o I <.9 3 B S w.,.:X2X:X<.+Xo.qXtX",
"wXzX0XBX0XtX8XtXXXhXyXXXrXrXrXrXXXyXyXBX2Xz.u 5.3.< i Q V C ;.i V :.;.i 2 p ( z 3 v ; - ..a % ; b z p v A 5._ r.$X:X$Xo...<.l.0X",
"LXLXLXLXzX0XuXtXyXXXyXXXyXyXyXyXyXyXyXx.&X:.B B < l ^ :.z ;.e._ H z u < * 0 0 1 Y @ W ! ; ; Y a i * p % Z -.6.%Xo.:X@X..&...l.sX",
"LXKXGXHXDXMXkXuXyXyXyXyXhXXXrXgXyXyXyXV.I p :.A / 5 [ v , , D ) >.C p % 2 ..a r.~ - o 9 8 Y E I e r X 5 ;.Z 7.y.$X:X=X^ q...;X-X",
"GXJXAXxXNXzXuXfXyXyXXXhXXXyXyXyXyXXXgXBXqXv 8.H ^ ,.r.3 ( , B u 8.z b 3 2 8 r.! Y a e o e { I R I I - % < u l q.%X3Xy.] D O.%XO.",
"DXbXDXHXNXkXfXiXiXyXyXgXyXyX0XgXgXrXgXBXwXz.( ,.*X:.>.C >.N u D i.T i.s : 5 - - p a Y - r -XwXj.l.} - i z k s 7.*X%X&.e.u.F %.y.",
"zXzXzXzXjXiXiXyXiXhXuXuXuXuXyX0XdXuXBX>X4X+X~ &Xt.Q Q >.z V 5 o ^ ..CXt._ i q - o o - X.f.2Xl.U j.x.p 3 c p ] x y.y.e.0.0.P 7._ ",
"dXzXdXfXiXjXhXhXiXuXiXuXdXkXzXzXBXsX<Xx.1.~ t.V >.' p :.a 1.<.a k ^ C q., 1 e - 9 o Y +XX.U r ;Xe e p % % % ( u q.y.e.e.3.3.) / ",
"dXuXfXgXhXiXgXgXiXhXuXjXNXHXKXLXnXsX+X>.;.;.>.*.z ' a ~ 7 1.2X%Xt.^ _ ( v O.E q v 1 a - a e a ; - 9 %X1 : : u Z u.u.%._ #.0.J e.",
"fXfXgXgXkXgXdXkXjXdXkXlXdXBXvXbXKXZX( C N _ 4.J D i ' c a <.{ OX1.p ( N ] Q - a 0 + 1 c 9 1 @ # - 8 $Xw T s ) e.u.@X@X] ^ 7.x ;.",
"fXfXgXgXgXgXgXkXlXzXdXjXlXzXkXAXKX4XB i d l G x d k i a W ; Y t.t.( w.l , b ` 2 1 & X 1 - 9 2 1 . R CXW : 6 w.s.7.] m [ ] / _ b ",
"hXmXkXjXgXmXjXjXjXjXMXMXkXkXMXDX4X:.;.< b Q i.' PXr.1 ! Q ' = Y ( ) X + 2 0 & : p : 8 9 9 3Xc w ` CXPX6X& w.a.u.[ IX5X&.y.3.b k ",
"jXjXhXjXmXkXjXjXjXjXjXkXkXlXkXcX4Xa p < ..Q ' ` ..%X$XOXp a o p :.u @   1 1 2 b N ^ n Y 1 Y OXOXPXPX5X*Xa.s.5XIX%.=X/ q._ m   $ ",
"mXhXmXmXhXmXjXkXkXjXzXmXmXmXkXxXaX#X' v a ..0 Y :XW #XX.- @X7 X.,.a  .8 O . ,.Q ( N ( n @ $Xt PXPXPX5X*Xp.s.s.0.-.7.e.7.z = O # ",
"MXmXjXmXmXkXMXzXkXlXMXMXjXmXMXlXvXvX4X; +XX.R I { } @.X.{ Y X.f.R  .Y 1   O { %X~ > < ^ r.<.CXJXPXZX*Xp.s.9.e.y.a.8._ , 4 * . # ",
"mXlXlXMXlXlXlXzXlXmXmXmXMXMXlXMXcXxXvXx.R ~ aX;XbXaX{ r x.e -X#Xk.,.* . $ # r I X.k.9 o ; - aXGXSXGX=X=Xs.a.] 6X=Xl u > o = # - ",
"MXlXlXlXlXlXlXMXmXMXlXlXMXzXxXvXcXxXcXaXl.z.bXNXNXnXsXz.pXk.OXI ,.p 1.T 1 q OXe j.-XY = o X.VXFXxXSX3Xq.@Xy.*X*Xq.p p i 0 . ; @ ",
"NXlXMXMXMXMXmXmXkXMXcXnXJXJXFXzXnXKXDXSX;X;XJXxXcXNXNXbXaX&Xv *.;.e.@X` # t $X{ { #Xc @ 9 2XAXFXAXnXnXpX1X&X=X*X6 : v 5 # # #   ",
"xXNXbXNXMXcXMXMXvXcXcXnXJXJXDXDXnXAXDXJXPXJXAXnXvXlXxXbXqX:XY C D b &X| - 8 W @.x.VXCXE I 7 } wXsXnXnXSX3X%X&X: 1 O 6 2 1 $ $ q ",
"CX#X:X;X,XAXDXvXvXvXNXvXHXNXvXxXxXNXxXNXDXxXvXcXaXnXJXSXLXpX1.a o.O.R R # 8 f.{ ,XaX#XwXY e R b.sXDXpX4X*X=X3 = 2 1 O 2 W $ 1 # ",
"OX$XOX| | k.-X,XDXaX,Xl.B.wXDXxXvXbXNXvXxXNXxXHXKXKXLXJXLXGX%Xz.f.} $X. w   :XJXHXDXqXX.X.W R aXSX,X%X*X=Xw.& @ $ $ 2 . n   1 @ ",
"E O.&.n E E O.f.O.l.O.f.} } ,XDXnXbXnXcXvXnXvXbXDXDXAXAXFXaX2XpX{ I R R t # JXAXFXDXFXSXOX2X;XpXGX4X<.*Xw.4 : @ 1 $ 1 c 5 = O O ",
"n T +.+.[ &.&.O.&.O.$XOXOXf.f.AXAXnXnXDXAXFXbXAXvXDXFXnXnXVXFXAXCX:X:XO.@Xt SXFX,XSXSXAXSXVXGXVXVXCX&X6Xy.+ k c   O   c T q @   ",
"m n m m m m m &.[ +.&.E ..O.e W #XSXAXJXVXVXVXVXJXDXFXFXVXaX2XGXwX5XCX@X@Xm GXOXI wXLXSXSXGXVXVXZXCXs.p.y.p c q c 1 t $ @ q w 8 ",
"m n y n m m $.n +.[ t &.E 8 8 O.a k.#X#X . ...! { OXwXDXGXVX{ ..| +.&.[ =Xm ZX$X..O.OXVXZX` $X3XZX3Xs.*.q.] <.@XE $ v @ O 1 8 O ",
"n M t m / m n $.n n t t 8 t q 1 8 o 9 p 3 p k v c 0 R #X%X~ a Q 1 q 5 y u.n 3XT 5 5 $ c n T ^ D x K 2.#.0.IX1 [ &./ %.: + 5 1 # ",
"y 6 m m y y n n n n t W 8 8 q q c p v = p i p i & p 0 % 3 V u i X :   0.0.$.> n b 4 ( n m D / $.F F 2.#.#.n u., 6 e.u.O 4 : : $ ",
"$ y t t y n t n t W t t t 6 $ y = q 0 + 3 . o + X . % o o v i , + ;.9.0.%.%.: O 5 i b F _ %.$.$.F M F L #.L S F F #.F M x M [ n ",
"$ O $ 1 6 t t t t t 8 8 8 $ n m : 0 2 2 ; p ,.7.w.w.w.w.e.V B z *.J K 2.#.%.k + * , / 7.0._ F F D 0.$.L M L #.Z #.$.P #.F u n y ",
"1 - @ 1 c q 2 2 0 + * ; i p p p c p 1 3 p i , i ;.;.>.>.>.;.-.d.-.4.*.d.*.*.h G C i u d g Z N x / M 4 / / / 6 e.$.3.5.5.L P 6 4 ",
"1 2 1 + - 1 2 ; p p p v p > i 4 : > & * i z C *.*.=.=.=.=.=.=.=.;.*.*.*.*.>.>.>.6.8.e.p.9.6.7.7.:.H s s : .   O d #.2.P f g s n ",
"1 1 3 p c q p i 2 3 % % % % o % & u i z C C C B B *.*.;.*.=.h d z z d z B p z z d V J ;.8.6.6.6.-.6.9.e.$.D b k $ L -.h u d u 6 ",
"q c 5 2 * * * % % > z p z ;.;.;.;.B z N B C C B Q z * , , i i u > , > * % % , , > > & % % < i d z u i l 4 d V V ( H Z Z Z 6 k : ",
"- = * 3 i i p ;.;.;.*.B C z p , u p z i d u , , % % , i i z ; * > i i i 3 * % * * = = * & % & + + = o X = + + : : @ & , , p 4 z "
};
